<svg width="311" height="213" viewBox="0 0 311 213" fill="none" xmlns="http://www.w3.org/2000/svg">
<path d="M168.236 15.7093C195.532 25.7317 219.985 39.679 240.909 57.1617C261.933 74.7251 278.919 95.7404 291.394 119.619C304.009 143.774 310.407 170.126 310.407 197.948C310.407 226.118 304.009 252.647 291.394 276.794C278.93 300.659 261.969 321.744 240.981 339.453C220.009 357.167 195.496 371.146 168.128 381.002C140.728 390.882 111.681 395.891 81.7912 395.891H-444.052V154.375H-165.706L-233.701 243.076H-342.346V307.194H81.7912C98.9329 307.194 115.338 304.297 130.559 298.584C145.973 292.798 159.688 284.865 171.33 274.998C182.844 265.239 192.072 253.582 198.76 240.347C205.356 227.309 208.699 213.133 208.699 198.209V197.69C208.699 183.1 205.44 169.161 199.012 156.257C192.474 143.14 183.389 131.456 172.001 121.517C160.598 111.559 147.045 103.593 131.71 97.8402C116.476 92.1192 99.6787 89.2184 81.7912 89.2184H-444.052V0.525024H81.7912C111.713 0.525024 140.797 5.63313 168.236 15.7093Z" fill="#F2F2F2"/>
</svg>
