<svg width="250" height="283" viewBox="0 0 250 283" fill="none" xmlns="http://www.w3.org/2000/svg">
    <path opacity="0.2" d="M102.117 11.1092C82.6073 18.2768 65.1296 28.2514 50.1737 40.7543C35.1472 53.315 23.0066 68.3443 14.09 85.4213C5.07282 102.696 0.5 121.542 0.5 141.439C0.5 161.585 5.07282 180.558 14.09 197.827C22.998 214.894 35.1216 229.973 50.1224 242.638C65.1125 255.306 82.6331 265.304 102.194 272.352C121.778 279.418 142.54 283 163.903 283H539.75V110.277H340.802L389.402 173.713H467.056V219.568H163.903C151.651 219.568 139.926 217.495 129.046 213.41C118.03 209.272 108.227 203.599 99.9053 196.542C91.676 189.563 85.08 181.227 80.2996 171.762C75.5854 162.437 73.1962 152.299 73.1962 141.626V141.255C73.1962 130.821 75.5254 120.852 80.1197 111.623C84.7931 102.243 91.2863 93.8868 99.4257 86.7788C107.576 79.6573 117.263 73.9604 128.224 69.846C139.112 65.7546 151.118 63.68 163.903 63.68H539.75V0.25H163.903C142.516 0.25 121.729 3.90311 102.117 11.1092Z" fill="#C2C2C2"/>
</svg>
