<svg width="1011" height="614" viewBox="0 0 1011 614" fill="none" xmlns="http://www.w3.org/2000/svg">
<path d="M220.334 23.8118C178.032 39.3639 140.136 61.0063 107.707 88.1347C75.1251 115.388 48.8008 147.998 29.4671 185.051C9.91519 222.534 0 263.425 0 306.598C0 350.308 9.91519 391.475 29.4671 428.945C48.7822 465.977 75.0696 498.695 107.596 526.174C140.099 553.661 178.088 575.353 220.502 590.647C262.966 605.978 307.984 613.75 354.306 613.75H1169.25V238.983L1011.63 241.903V376.623V476.118H354.306C327.74 476.118 302.316 471.621 278.725 462.756C254.838 453.779 233.583 441.468 215.539 426.158C197.696 411.014 183.394 392.926 173.029 372.389C162.807 352.156 157.626 330.159 157.626 307.002V306.197C157.626 283.557 162.677 261.927 172.638 241.903C182.772 221.549 196.851 203.419 214.5 187.997C232.171 172.545 253.176 160.184 276.943 151.257C300.552 142.379 326.584 137.878 354.306 137.878H1169.25V0.25H354.306C307.933 0.25 262.859 8.17639 220.334 23.8118Z" opacity="0.3" fill="#fff"/>
</svg>
