<svg width="742" height="582" viewBox="0 0 742 582" fill="none" xmlns="http://www.w3.org/2000/svg">
<path d="M359.75 40.8296C433.036 67.7677 498.689 105.255 554.87 152.245C611.316 199.452 656.921 255.936 690.415 320.117C724.287 385.041 741.465 455.869 741.465 530.65C741.465 606.363 724.287 677.668 690.415 742.571C656.953 806.715 611.412 863.387 555.063 910.984C498.754 958.595 432.939 996.169 359.461 1022.66C285.894 1049.21 207.904 1062.68 127.654 1062.68L-1284.18 1062.68L-1284.18 413.533L-536.852 413.533L-719.411 651.943L-1011.11 651.943V824.28L127.654 824.28C173.678 824.28 217.723 816.491 258.592 801.136C299.975 785.586 336.799 764.262 368.057 737.743C398.97 711.513 423.747 680.182 441.705 644.609C459.413 609.564 468.388 571.461 468.388 531.351V529.956C468.388 490.741 459.638 453.275 442.381 418.591C424.825 383.336 400.434 351.933 369.859 325.219C339.244 298.454 302.854 277.043 261.68 261.58C220.779 246.203 175.68 238.406 127.654 238.406L-1284.18 238.406V0.0175781L127.654 0.0175781C207.992 0.0175781 286.079 13.7471 359.75 40.8296Z" fill="url(#paint0_linear_1442_14560)" fill-opacity="0.1"/>
<defs>
<linearGradient id="paint0_linear_1442_14560" x1="-271.358" y1="0.0175781" x2="-271.358" y2="1062.68" gradientUnits="userSpaceOnUse">
<stop stop-color="#D7E9EE"/>
<stop offset="1" stop-color="#7B8588"/>
</linearGradient>
</defs>
</svg>
