<svg width="669" height="617" viewBox="0 0 669 617" fill="none" xmlns="http://www.w3.org/2000/svg">
<path d="M381.924 -404.081C308.741 -377.174 243.178 -339.73 187.076 -292.795C130.709 -245.643 85.1675 -189.223 51.7198 -125.118C17.8947 -60.2684 0.741211 10.4777 0.741211 85.1716C0.741211 160.797 17.8947 232.019 51.7198 296.847C85.1353 360.916 130.613 417.523 186.884 465.064C243.114 512.62 308.837 550.151 382.213 576.611C455.678 603.135 533.559 616.582 613.697 616.582L2023.57 616.582L2023.57 -31.8097L1277.28 -31.8097L1459.58 206.324L1750.88 206.324V378.461L613.697 378.461C567.737 378.461 523.753 370.681 482.942 355.344C441.616 339.812 404.844 318.513 373.629 292.025C342.759 265.825 318.016 234.53 300.084 198.999C282.4 163.994 273.438 125.936 273.438 85.8715V84.4788C273.438 45.3094 282.175 7.8866 299.409 -26.7574C316.94 -61.9716 341.297 -93.3386 371.83 -120.022C402.402 -146.755 438.741 -168.141 479.858 -183.586C520.702 -198.945 565.738 -206.733 613.697 -206.733L2023.57 -206.733V-444.846L613.697 -444.846C533.471 -444.846 455.493 -431.132 381.924 -404.081Z" fill="url(#paint0_linear_1442_14559)" fill-opacity="0.1"/>
<defs>
<linearGradient id="paint0_linear_1442_14559" x1="1012.15" y1="-444.846" x2="1012.15" y2="616.582" gradientUnits="userSpaceOnUse">
<stop stop-color="#7B8588"/>
<stop offset="1" stop-color="#D7E9EE"/>
</linearGradient>
</defs>
</svg>
