<svg width="35" height="35" viewBox="0 0 35 35" fill="none" xmlns="http://www.w3.org/2000/svg">
<g clip-path="url(#clip0_1467_21909)">
<path d="M19.9928 27.2646V28.0601H21.5837V27.2646H19.9928ZM24.3501 20.6037L23.8085 20.0211L23.8084 20.0213L24.3501 20.6037ZM17.5004 3.81821L17.4982 4.61367H17.5004V3.81821ZM7.63676 13.4099H8.43221L8.43221 13.4076L7.63676 13.4099ZM10.6506 20.6037L11.1886 20.0177L11.1886 20.0177L10.6506 20.6037ZM13.417 27.2646V28.0601H15.008V27.2646H13.417ZM15.3483 31.0227H14.5528V32.6136H15.3483V31.0227ZM19.7321 32.6136H20.5276V31.0227H19.7321V32.6136ZM14.2125 28.7944H13.417V30.3853H14.2125V28.7944ZM20.7882 30.3853H21.5837V28.7944H20.7882V30.3853ZM16.7049 27.2646V28.0601H18.2958V27.2646H16.7049ZM18.2958 18.7386C18.2958 18.2993 17.9397 17.9432 17.5004 17.9432C17.0611 17.9432 16.7049 18.2993 16.7049 18.7386H18.2958ZM21.5837 27.2646V25.666H19.9928V27.2646H21.5837ZM21.5837 25.666C21.5837 24.9864 21.9728 24.2296 22.6555 23.4075C23.3288 22.597 24.1662 21.8611 24.8919 21.1862L23.8084 20.0213C23.1325 20.6498 22.189 21.4793 21.4317 22.3911C20.6839 23.2914 19.9928 24.4139 19.9928 25.666H21.5837ZM24.8917 21.1863C27.0405 19.1887 28.1594 16.5049 28.1594 13.4099H26.5685C26.5685 16.0952 25.6106 18.3459 23.8085 20.0211L24.8917 21.1863ZM28.1594 13.4099C28.1594 7.62202 23.4179 3.02276 17.5004 3.02276V4.61367C22.5795 4.61367 26.5685 8.54037 26.5685 13.4099H28.1594ZM17.5025 3.02276C16.1044 3.01897 14.7188 3.28393 13.4253 3.80292L14.0176 5.27943C15.1208 4.83686 16.3037 4.61042 17.4982 4.61367L17.5025 3.02276ZM13.4253 3.80292C12.1316 4.32193 10.9549 5.08504 9.96312 6.04944L11.0722 7.19C11.9138 6.37165 12.9146 5.72199 14.0176 5.27943L13.4253 3.80292ZM9.96312 6.04944C8.97134 7.01389 8.18415 8.16068 7.64794 9.42449L9.11249 10.0459C9.56511 8.97906 10.2307 8.0083 11.0722 7.19L9.96312 6.04944ZM7.64794 9.42449C7.11172 10.6884 6.83738 12.0436 6.84131 13.4122L8.43221 13.4076C8.4289 12.255 8.65989 11.1126 9.11249 10.0459L7.64794 9.42449ZM6.8413 13.4099C6.8413 16.397 8.00169 19.2519 10.1127 21.1897L11.1886 20.0177C9.43771 18.4105 8.43221 15.9967 8.43221 13.4099H6.8413ZM10.1127 21.1897C10.8324 21.8503 11.6699 22.582 12.3426 23.3913C13.0248 24.212 13.417 24.9753 13.417 25.666H15.008C15.008 24.405 14.3163 23.2769 13.566 22.3743C12.8063 21.4603 11.8628 20.6366 11.1886 20.0177L10.1127 21.1897ZM14.2125 25.666C13.417 25.666 13.417 25.666 13.417 25.666C13.417 25.666 13.417 25.666 13.417 25.666C13.417 25.666 13.417 25.6661 13.417 25.6661C13.417 25.6661 13.417 25.6661 13.417 25.6662C13.417 25.6662 13.417 25.6662 13.417 25.6663C13.417 25.6663 13.417 25.6663 13.417 25.6664C13.417 25.6664 13.417 25.6665 13.417 25.6665C13.417 25.6666 13.417 25.6666 13.417 25.6667C13.417 25.6668 13.417 25.6668 13.417 25.6669C13.417 25.667 13.417 25.667 13.417 25.6671C13.417 25.6672 13.417 25.6672 13.417 25.6673C13.417 25.6674 13.417 25.6675 13.417 25.6676C13.417 25.6677 13.417 25.6678 13.417 25.6679C13.417 25.6679 13.417 25.668 13.417 25.6681C13.417 25.6683 13.417 25.6684 13.417 25.6685C13.417 25.6686 13.417 25.6687 13.417 25.6688C13.417 25.6689 13.417 25.669 13.417 25.6692C13.417 25.6693 13.417 25.6694 13.417 25.6695C13.417 25.6697 13.417 25.6698 13.417 25.6699C13.417 25.6701 13.417 25.6702 13.417 25.6704C13.417 25.6705 13.417 25.6707 13.417 25.6708C13.417 25.671 13.417 25.6711 13.417 25.6713C13.417 25.6714 13.417 25.6716 13.417 25.6718C13.417 25.6719 13.417 25.6721 13.417 25.6723C13.417 25.6724 13.417 25.6726 13.417 25.6728C13.417 25.673 13.417 25.6732 13.417 25.6734C13.417 25.6735 13.417 25.6737 13.417 25.6739C13.417 25.6741 13.417 25.6743 13.417 25.6745C13.417 25.6747 13.417 25.6749 13.417 25.6751C13.417 25.6753 13.417 25.6755 13.417 25.6758C13.417 25.676 13.417 25.6762 13.417 25.6764C13.417 25.6766 13.417 25.6769 13.417 25.6771C13.417 25.6773 13.417 25.6775 13.417 25.6778C13.417 25.678 13.417 25.6783 13.417 25.6785C13.417 25.6787 13.417 25.679 13.417 25.6792C13.417 25.6795 13.417 25.6797 13.417 25.68C13.417 25.6802 13.417 25.6805 13.417 25.6808C13.417 25.681 13.417 25.6813 13.417 25.6815C13.417 25.6818 13.417 25.6821 13.417 25.6824C13.417 25.6826 13.417 25.6829 13.417 25.6832C13.417 25.6835 13.417 25.6838 13.417 25.6841C13.417 25.6843 13.417 25.6846 13.417 25.6849C13.417 25.6852 13.417 25.6855 13.417 25.6858C13.417 25.6861 13.417 25.6864 13.417 25.6867C13.417 25.687 13.417 25.6874 13.417 25.6877C13.417 25.688 13.417 25.6883 13.417 25.6886C13.417 25.6889 13.417 25.6893 13.417 25.6896C13.417 25.6899 13.417 25.6903 13.417 25.6906C13.417 25.6909 13.417 25.6913 13.417 25.6916C13.417 25.6919 13.417 25.6923 13.417 25.6926C13.417 25.693 13.417 25.6933 13.417 25.6937C13.417 25.694 13.417 25.6944 13.417 25.6948C13.417 25.6951 13.417 25.6955 13.417 25.6958C13.417 25.6962 13.417 25.6966 13.417 25.697C13.417 25.6973 13.417 25.6977 13.417 25.6981C13.417 25.6985 13.417 25.6988 13.417 25.6992C13.417 25.6996 13.417 25.7 13.417 25.7004C13.417 25.7008 13.417 25.7012 13.417 25.7016C13.417 25.702 13.417 25.7024 13.417 25.7028C13.417 25.7032 13.417 25.7036 13.417 25.704C13.417 25.7044 13.417 25.7048 13.417 25.7052C13.417 25.7057 13.417 25.7061 13.417 25.7065C13.417 25.7069 13.417 25.7073 13.417 25.7078C13.417 25.7082 13.417 25.7086 13.417 25.7091C13.417 25.7095 13.417 25.7099 13.417 25.7104C13.417 25.7108 13.417 25.7113 13.417 25.7117C13.417 25.7122 13.417 25.7126 13.417 25.7131C13.417 25.7135 13.417 25.714 13.417 25.7144C13.417 25.7149 13.417 25.7154 13.417 25.7158C13.417 25.7163 13.417 25.7168 13.417 25.7172C13.417 25.7177 13.417 25.7182 13.417 25.7187C13.417 25.7191 13.417 25.7196 13.417 25.7201C13.417 25.7206 13.417 25.7211 13.417 25.7216C13.417 25.7221 13.417 25.7226 13.417 25.723C13.417 25.7235 13.417 25.724 13.417 25.7245C13.417 25.725 13.417 25.7256 13.417 25.7261C13.417 25.7266 13.417 25.7271 13.417 25.7276C13.417 25.7281 13.417 25.7286 13.417 25.7291C13.417 25.7297 13.417 25.7302 13.417 25.7307C13.417 25.7312 13.417 25.7318 13.417 25.7323C13.417 25.7328 13.417 25.7334 13.417 25.7339C13.417 25.7344 13.417 25.735 13.417 25.7355C13.417 25.7361 13.417 25.7366 13.417 25.7372C13.417 25.7377 13.417 25.7383 13.417 25.7388C13.417 25.7394 13.417 25.7399 13.417 25.7405C13.417 25.7411 13.417 25.7416 13.417 25.7422C13.417 25.7427 13.417 25.7433 13.417 25.7439C13.417 25.7445 13.417 25.745 13.417 25.7456C13.417 25.7462 13.417 25.7468 13.417 25.7474C13.417 25.7479 13.417 25.7485 13.417 25.7491C13.417 25.7497 13.417 25.7503 13.417 25.7509C13.417 25.7515 13.417 25.7521 13.417 25.7527C13.417 25.7533 13.417 25.7539 13.417 25.7545C13.417 25.7551 13.417 25.7557 13.417 25.7563C13.417 25.7569 13.417 25.7575 13.417 25.7582C13.417 25.7588 13.417 25.7594 13.417 25.76C13.417 25.7606 13.417 25.7613 13.417 25.7619C13.417 25.7625 13.417 25.7632 13.417 25.7638C13.417 25.7644 13.417 25.7651 13.417 25.7657C13.417 25.7663 13.417 25.767 13.417 25.7676C13.417 25.7683 13.417 25.7689 13.417 25.7696C13.417 25.7702 13.417 25.7709 13.417 25.7715C13.417 25.7722 13.417 25.7728 13.417 25.7735C13.417 25.7742 13.417 25.7748 13.417 25.7755C13.417 25.7762 13.417 25.7768 13.417 25.7775C13.417 25.7782 13.417 25.7788 13.417 25.7795C13.417 25.7802 13.417 25.7809 13.417 25.7816C13.417 25.7822 13.417 25.7829 13.417 25.7836C13.417 25.7843 13.417 25.785 13.417 25.7857C13.417 25.7864 13.417 25.7871 13.417 25.7878C13.417 25.7885 13.417 25.7892 13.417 25.7899C13.417 25.7906 13.417 25.7913 13.417 25.792C13.417 25.7927 13.417 25.7934 13.417 25.7941C13.417 25.7948 13.417 25.7956 13.417 25.7963C13.417 25.797 13.417 25.7977 13.417 25.7984C13.417 25.7992 13.417 25.7999 13.417 25.8006C13.417 25.8014 13.417 25.8021 13.417 25.8028C13.417 25.8036 13.417 25.8043 13.417 25.805C13.417 25.8058 13.417 25.8065 13.417 25.8073C13.417 25.808 13.417 25.8088 13.417 25.8095C13.417 25.8103 13.417 25.811 13.417 25.8118C13.417 25.8125 13.417 25.8133 13.417 25.814C13.417 25.8148 13.417 25.8156 13.417 25.8163C13.417 25.8171 13.417 25.8179 13.417 25.8186C13.417 25.8194 13.417 25.8202 13.417 25.8209C13.417 25.8217 13.417 25.8225 13.417 25.8233C13.417 25.8241 13.417 25.8248 13.417 25.8256C13.417 25.8264 13.417 25.8272 13.417 25.828C13.417 25.8288 13.417 25.8296 13.417 25.8304C13.417 25.8312 13.417 25.832 13.417 25.8328C13.417 25.8335 13.417 25.8344 13.417 25.8352C13.417 25.836 13.417 25.8368 13.417 25.8376C13.417 25.8384 13.417 25.8392 13.417 25.84C13.417 25.8408 13.417 25.8416 13.417 25.8425C13.417 25.8433 13.417 25.8441 13.417 25.8449C13.417 25.8457 13.417 25.8466 13.417 25.8474C13.417 25.8482 13.417 25.8491 13.417 25.8499C13.417 25.8507 13.417 25.8516 13.417 25.8524C13.417 25.8532 13.417 25.8541 13.417 25.8549C13.417 25.8558 13.417 25.8566 13.417 25.8575C13.417 25.8583 13.417 25.8592 13.417 25.86C13.417 25.8609 13.417 25.8617 13.417 25.8626C13.417 25.8634 13.417 25.8643 13.417 25.8651C13.417 25.866 13.417 25.8669 13.417 25.8677C13.417 25.8686 13.417 25.8695 13.417 25.8703C13.417 25.8712 13.417 25.8721 13.417 25.873C13.417 25.8738 13.417 25.8747 13.417 25.8756C13.417 25.8765 13.417 25.8774 13.417 25.8782C13.417 25.8791 13.417 25.88 13.417 25.8809C13.417 25.8818 13.417 25.8827 13.417 25.8836C13.417 25.8845 13.417 25.8854 13.417 25.8863C13.417 25.8872 13.417 25.8881 13.417 25.889C13.417 25.8899 13.417 25.8908 13.417 25.8917C13.417 25.8926 13.417 25.8935 13.417 25.8944C13.417 25.8953 13.417 25.8962 13.417 25.8971C13.417 25.898 13.417 25.899 13.417 25.8999C13.417 25.9008 13.417 25.9017 13.417 25.9026C13.417 25.9036 13.417 25.9045 13.417 25.9054C13.417 25.9064 13.417 25.9073 13.417 25.9082C13.417 25.9091 13.417 25.9101 13.417 25.911C13.417 25.912 13.417 25.9129 13.417 25.9138C13.417 25.9148 13.417 25.9157 13.417 25.9167C13.417 25.9176 13.417 25.9186 13.417 25.9195C13.417 25.9205 13.417 25.9214 13.417 25.9224C13.417 25.9233 13.417 25.9243 13.417 25.9252C13.417 25.9262 13.417 25.9271 13.417 25.9281C13.417 25.9291 13.417 25.93 13.417 25.931C13.417 25.932 13.417 25.9329 13.417 25.9339C13.417 25.9349 13.417 25.9359 13.417 25.9368C13.417 25.9378 13.417 25.9388 13.417 25.9398C13.417 25.9407 13.417 25.9417 13.417 25.9427C13.417 25.9437 13.417 25.9447 13.417 25.9456C13.417 25.9466 13.417 25.9476 13.417 25.9486C13.417 25.9496 13.417 25.9506 13.417 25.9516C13.417 25.9526 13.417 25.9536 13.417 25.9546C13.417 25.9556 13.417 25.9566 13.417 25.9576C13.417 25.9586 13.417 25.9596 13.417 25.9606C13.417 25.9616 13.417 25.9626 13.417 25.9636C13.417 25.9646 13.417 25.9656 13.417 25.9667C13.417 25.9677 13.417 25.9687 13.417 25.9697C13.417 25.9707 13.417 25.9718 13.417 25.9728C13.417 25.9738 13.417 25.9748 13.417 25.9758C13.417 25.9769 13.417 25.9779 13.417 25.9789C13.417 25.98 13.417 25.981 13.417 25.982C13.417 25.9831 13.417 25.9841 13.417 25.9851C13.417 25.9862 13.417 25.9872 13.417 25.9882C13.417 25.9893 13.417 25.9903 13.417 25.9914C13.417 25.9924 13.417 25.9935 13.417 25.9945C13.417 25.9956 13.417 25.9966 13.417 25.9977C13.417 25.9987 13.417 25.9998 13.417 26.0008C13.417 26.0019 13.417 26.0029 13.417 26.004C13.417 26.0051 13.417 26.0061 13.417 26.0072C13.417 26.0083 13.417 26.0093 13.417 26.0104C13.417 26.0115 13.417 26.0125 13.417 26.0136C13.417 26.0147 13.417 26.0157 13.417 26.0168C13.417 26.0179 13.417 26.019 13.417 26.02C13.417 26.0211 13.417 26.0222 13.417 26.0233C13.417 26.0244 13.417 26.0254 13.417 26.0265C13.417 26.0276 13.417 26.0287 13.417 26.0298C13.417 26.0309 13.417 26.032 13.417 26.0331C13.417 26.0342 13.417 26.0352 13.417 26.0363C13.417 26.0374 13.417 26.0385 13.417 26.0396C13.417 26.0407 13.417 26.0418 13.417 26.0429C13.417 26.044 13.417 26.0451 13.417 26.0462C13.417 26.0474 13.417 26.0485 13.417 26.0496C13.417 26.0507 13.417 26.0518 13.417 26.0529C13.417 26.054 13.417 26.0551 13.417 26.0562C13.417 26.0574 13.417 26.0585 13.417 26.0596C13.417 26.0607 13.417 26.0618 13.417 26.063C13.417 26.0641 13.417 26.0652 13.417 26.0663C13.417 26.0675 13.417 26.0686 13.417 26.0697C13.417 26.0708 13.417 26.072 13.417 26.0731C13.417 26.0742 13.417 26.0754 13.417 26.0765C13.417 26.0776 13.417 26.0788 13.417 26.0799C13.417 26.0811 13.417 26.0822 13.417 26.0833C13.417 26.0845 13.417 26.0856 13.417 26.0868C13.417 26.0879 13.417 26.0891 13.417 26.0902C13.417 26.0914 13.417 26.0925 13.417 26.0937C13.417 26.0948 13.417 26.096 13.417 26.0971C13.417 26.0983 13.417 26.0994 13.417 26.1006C13.417 26.1018 13.417 26.1029 13.417 26.1041C13.417 26.1052 13.417 26.1064 13.417 26.1076C13.417 26.1087 13.417 26.1099 13.417 26.1111C13.417 26.1122 13.417 26.1134 13.417 26.1146C13.417 26.1157 13.417 26.1169 13.417 26.1181C13.417 26.1192 13.417 26.1204 13.417 26.1216C13.417 26.1228 13.417 26.124 13.417 26.1251C13.417 26.1263 13.417 26.1275 13.417 26.1287C13.417 26.1299 13.417 26.131 13.417 26.1322C13.417 26.1334 13.417 26.1346 13.417 26.1358C13.417 26.137 13.417 26.1382 13.417 26.1393C13.417 26.1405 13.417 26.1417 13.417 26.1429C13.417 26.1441 13.417 26.1453 13.417 26.1465C13.417 26.1477 13.417 26.1489 13.417 26.1501C13.417 26.1513 13.417 26.1525 13.417 26.1537C13.417 26.1549 13.417 26.1561 13.417 26.1573C13.417 26.1585 13.417 26.1597 13.417 26.1609C13.417 26.1621 13.417 26.1634 13.417 26.1646C13.417 26.1658 13.417 26.167 13.417 26.1682C13.417 26.1694 13.417 26.1706 13.417 26.1718C13.417 26.1731 13.417 26.1743 13.417 26.1755C13.417 26.1767 13.417 26.1779 13.417 26.1791C13.417 26.1804 13.417 26.1816 13.417 26.1828C13.417 26.184 13.417 26.1853 13.417 26.1865C13.417 26.1877 13.417 26.1889 13.417 26.1902C13.417 26.1914 13.417 26.1926 13.417 26.1939C13.417 26.1951 13.417 26.1963 13.417 26.1976C13.417 26.1988 13.417 26.2 13.417 26.2013C13.417 26.2025 13.417 26.2037 13.417 26.205C13.417 26.2062 13.417 26.2075 13.417 26.2087C13.417 26.2099 13.417 26.2112 13.417 26.2124C13.417 26.2137 13.417 26.2149 13.417 26.2162C13.417 26.2174 13.417 26.2187 13.417 26.2199C13.417 26.2212 13.417 26.2224 13.417 26.2237C13.417 26.2249 13.417 26.2262 13.417 26.2274C13.417 26.2287 13.417 26.2299 13.417 26.2312C13.417 26.2324 13.417 26.2337 13.417 26.235C13.417 26.2362 13.417 26.2375 13.417 26.2387C13.417 26.24 13.417 26.2413 13.417 26.2425C13.417 26.2438 13.417 26.2451 13.417 26.2463C13.417 26.2476 13.417 26.2489 13.417 26.2501C13.417 26.2514 13.417 26.2527 13.417 26.2539C13.417 26.2552 13.417 26.2565 13.417 26.2577C13.417 26.259 13.417 26.2603 13.417 26.2616C13.417 26.2628 13.417 26.2641 13.417 26.2654C13.417 26.2667 13.417 26.2679 13.417 26.2692C13.417 26.2705 13.417 26.2718 13.417 26.2731C13.417 26.2743 13.417 26.2756 13.417 26.2769C13.417 26.2782 13.417 26.2795 13.417 26.2808C13.417 26.2821 13.417 26.2833 13.417 26.2846C13.417 26.2859 13.417 26.2872 13.417 26.2885C13.417 26.2898 13.417 26.2911 13.417 26.2924C13.417 26.2937 13.417 26.2949 13.417 26.2962C13.417 26.2975 13.417 26.2988 13.417 26.3001C13.417 26.3014 13.417 26.3027 13.417 26.304C13.417 26.3053 13.417 26.3066 13.417 26.3079C13.417 26.3092 13.417 26.3105 13.417 26.3118C13.417 26.3131 13.417 26.3144 13.417 26.3157C13.417 26.317 13.417 26.3183 13.417 26.3196C13.417 26.3209 13.417 26.3223 13.417 26.3236C13.417 26.3249 13.417 26.3262 13.417 26.3275C13.417 26.3288 13.417 26.3301 13.417 26.3314C13.417 26.3327 13.417 26.334 13.417 26.3354C13.417 26.3367 13.417 26.338 13.417 26.3393C13.417 26.3406 13.417 26.3419 13.417 26.3433C13.417 26.3446 13.417 26.3459 13.417 26.3472C13.417 26.3485 13.417 26.3498 13.417 26.3512C13.417 26.3525 13.417 26.3538 13.417 26.3551C13.417 26.3565 13.417 26.3578 13.417 26.3591C13.417 26.3604 13.417 26.3617 13.417 26.3631C13.417 26.3644 13.417 26.3657 13.417 26.3671C13.417 26.3684 13.417 26.3697 13.417 26.371C13.417 26.3724 13.417 26.3737 13.417 26.375C13.417 26.3764 13.417 26.3777 13.417 26.379C13.417 26.3804 13.417 26.3817 13.417 26.383C13.417 26.3844 13.417 26.3857 13.417 26.387C13.417 26.3884 13.417 26.3897 13.417 26.391C13.417 26.3924 13.417 26.3937 13.417 26.3951C13.417 26.3964 13.417 26.3977 13.417 26.3991C13.417 26.4004 13.417 26.4018 13.417 26.4031C13.417 26.4044 13.417 26.4058 13.417 26.4071C13.417 26.4085 13.417 26.4098 13.417 26.4112C13.417 26.4125 13.417 26.4138 13.417 26.4152C13.417 26.4165 13.417 26.4179 13.417 26.4192C13.417 26.4206 13.417 26.4219 13.417 26.4233C13.417 26.4246 13.417 26.426 13.417 26.4273C13.417 26.4287 13.417 26.43 13.417 26.4314C13.417 26.4327 13.417 26.4341 13.417 26.4354C13.417 26.4368 13.417 26.4382 13.417 26.4395C13.417 26.4409 13.417 26.4422 13.417 26.4436C13.417 26.4449 13.417 26.4463 13.417 26.4476C13.417 26.449 13.417 26.4504 13.417 26.4517C13.417 26.4531 13.417 26.4544 13.417 26.4558C13.417 26.4572 13.417 26.4585 13.417 26.4599C13.417 26.4612 13.417 26.4626 13.417 26.464C13.417 26.4653 13.417 26.4667 13.417 26.4681C13.417 26.4694 13.417 26.4708 13.417 26.4721C13.417 26.4735 13.417 26.4749 13.417 26.4762C13.417 26.4776 13.417 26.479 13.417 26.4803C13.417 26.4817 13.417 26.4831 13.417 26.4844C13.417 26.4858 13.417 26.4872 13.417 26.4886C13.417 26.4899 13.417 26.4913 13.417 26.4927C13.417 26.494 13.417 26.4954 13.417 26.4968C13.417 26.4981 13.417 26.4995 13.417 26.5009C13.417 26.5023 13.417 26.5036 13.417 26.505C13.417 26.5064 13.417 26.5078 13.417 26.5091C13.417 26.5105 13.417 26.5119 13.417 26.5133C13.417 26.5146 13.417 26.516 13.417 26.5174C13.417 26.5188 13.417 26.5201 13.417 26.5215C13.417 26.5229 13.417 26.5243 13.417 26.5257C13.417 26.527 13.417 26.5284 13.417 26.5298C13.417 26.5312 13.417 26.5325 13.417 26.5339C13.417 26.5353 13.417 26.5367 13.417 26.5381C13.417 26.5395 13.417 26.5408 13.417 26.5422C13.417 26.5436 13.417 26.545 13.417 26.5464C13.417 26.5477 13.417 26.5491 13.417 26.5505C13.417 26.5519 13.417 26.5533 13.417 26.5547C13.417 26.556 13.417 26.5574 13.417 26.5588C13.417 26.5602 13.417 26.5616 13.417 26.563C13.417 26.5644 13.417 26.5658 13.417 26.5671C13.417 26.5685 13.417 26.5699 13.417 26.5713C13.417 26.5727 13.417 26.5741 13.417 26.5755C13.417 26.5768 13.417 26.5782 13.417 26.5796C13.417 26.581 13.417 26.5824 13.417 26.5838C13.417 26.5852 13.417 26.5866 13.417 26.588C13.417 26.5894 13.417 26.5907 13.417 26.5921C13.417 26.5935 13.417 26.5949 13.417 26.5963C13.417 26.5977 13.417 26.5991 13.417 26.6005C13.417 26.6019 13.417 26.6033 13.417 26.6047C13.417 26.6061 13.417 26.6074 13.417 26.6088C13.417 26.6102 13.417 26.6116 13.417 26.613C13.417 26.6144 13.417 26.6158 13.417 26.6172C13.417 26.6186 13.417 26.62 13.417 26.6214C13.417 26.6228 13.417 26.6242 13.417 26.6256C13.417 26.627 13.417 26.6284 13.417 26.6298C13.417 26.6311 13.417 26.6325 13.417 26.6339C13.417 26.6353 13.417 26.6367 13.417 26.6381C13.417 26.6395 13.417 26.6409 13.417 26.6423C13.417 26.6437 13.417 26.6451 13.417 26.6465C13.417 26.6479 13.417 26.6493 13.417 26.6507C13.417 26.6521 13.417 26.6535 13.417 26.6549C13.417 26.6563 13.417 26.6577 13.417 26.6591C13.417 26.6605 13.417 26.6619 13.417 26.6633C13.417 26.6647 13.417 26.6661 13.417 26.6675C13.417 26.6689 13.417 26.6703 13.417 26.6717C13.417 26.6731 13.417 26.6745 13.417 26.6759C13.417 26.6773 13.417 26.6787 13.417 26.6801C13.417 26.6815 13.417 26.6829 13.417 26.6843C13.417 26.6857 13.417 26.6871 13.417 26.6885C13.417 26.6899 13.417 26.6913 13.417 26.6927C13.417 26.6941 13.417 26.6955 13.417 26.6969C13.417 26.6983 13.417 26.6997 13.417 26.7011C13.417 26.7025 13.417 26.7039 13.417 26.7053C13.417 26.7067 13.417 26.7081 13.417 26.7095C13.417 26.7109 13.417 26.7123 13.417 26.7137C13.417 26.7151 13.417 26.7165 13.417 26.7179C13.417 26.7193 13.417 26.7207 13.417 26.7221C13.417 26.7235 13.417 26.7249 13.417 26.7263C13.417 26.7277 13.417 26.7291 13.417 26.7305C13.417 26.7319 13.417 26.7333 13.417 26.7347C13.417 26.7361 13.417 26.7375 13.417 26.7389C13.417 26.7402 13.417 26.7416 13.417 26.743C13.417 26.7444 13.417 26.7458 13.417 26.7472C13.417 26.7486 13.417 26.75 13.417 26.7514C13.417 26.7528 13.417 26.7542 13.417 26.7556C13.417 26.757 13.417 26.7584 13.417 26.7598C13.417 26.7612 13.417 26.7626 13.417 26.764C13.417 26.7654 13.417 26.7668 13.417 26.7682C13.417 26.7696 13.417 26.771 13.417 26.7724C13.417 26.7738 13.417 26.7752 13.417 26.7766C13.417 26.778 13.417 26.7794 13.417 26.7808C13.417 26.7822 13.417 26.7836 13.417 26.785C13.417 26.7864 13.417 26.7878 13.417 26.7892C13.417 26.7906 13.417 26.792 13.417 26.7934C13.417 26.7948 13.417 26.7962 13.417 26.7976C13.417 26.799 13.417 26.8004 13.417 26.8018C13.417 26.8032 13.417 26.8046 13.417 26.806C13.417 26.8074 13.417 26.8088 13.417 26.8102C13.417 26.8116 13.417 26.8129 13.417 26.8143C13.417 26.8157 13.417 26.8171 13.417 26.8185C13.417 26.8199 13.417 26.8213 13.417 26.8227C13.417 26.8241 13.417 26.8255 13.417 26.8269C13.417 26.8283 13.417 26.8297 13.417 26.8311C13.417 26.8325 13.417 26.8339 13.417 26.8353C13.417 26.8366 13.417 26.838 13.417 26.8394C13.417 26.8408 13.417 26.8422 13.417 26.8436C13.417 26.845 13.417 26.8464 13.417 26.8478C13.417 26.8492 13.417 26.8506 13.417 26.8519C13.417 26.8533 13.417 26.8547 13.417 26.8561C13.417 26.8575 13.417 26.8589 13.417 26.8603C13.417 26.8617 13.417 26.8631 13.417 26.8645C13.417 26.8658 13.417 26.8672 13.417 26.8686C13.417 26.87 13.417 26.8714 13.417 26.8728C13.417 26.8742 13.417 26.8756 13.417 26.8769C13.417 26.8783 13.417 26.8797 13.417 26.8811C13.417 26.8825 13.417 26.8839 13.417 26.8853C13.417 26.8866 13.417 26.888 13.417 26.8894C13.417 26.8908 13.417 26.8922 13.417 26.8936C13.417 26.8949 13.417 26.8963 13.417 26.8977C13.417 26.8991 13.417 26.9005 13.417 26.9019C13.417 26.9032 13.417 26.9046 13.417 26.906C13.417 26.9074 13.417 26.9088 13.417 26.9101C13.417 26.9115 13.417 26.9129 13.417 26.9143C13.417 26.9157 13.417 26.917 13.417 26.9184C13.417 26.9198 13.417 26.9212 13.417 26.9225C13.417 26.9239 13.417 26.9253 13.417 26.9267C13.417 26.928 13.417 26.9294 13.417 26.9308C13.417 26.9322 13.417 26.9335 13.417 26.9349C13.417 26.9363 13.417 26.9377 13.417 26.939C13.417 26.9404 13.417 26.9418 13.417 26.9432C13.417 26.9445 13.417 26.9459 13.417 26.9473C13.417 26.9486 13.417 26.95 13.417 26.9514C13.417 26.9528 13.417 26.9541 13.417 26.9555C13.417 26.9569 13.417 26.9582 13.417 26.9596C13.417 26.961 13.417 26.9623 13.417 26.9637C13.417 26.9651 13.417 26.9664 13.417 26.9678C13.417 26.9692 13.417 26.9705 13.417 26.9719C13.417 26.9733 13.417 26.9746 13.417 26.976C13.417 26.9773 13.417 26.9787 13.417 26.9801C13.417 26.9814 13.417 26.9828 13.417 26.9841C13.417 26.9855 13.417 26.9869 13.417 26.9882C13.417 26.9896 13.417 26.9909 13.417 26.9923C13.417 26.9937 13.417 26.995 13.417 26.9964C13.417 26.9977 13.417 26.9991 13.417 27.0004C13.417 27.0018 13.417 27.0032 13.417 27.0045C13.417 27.0059 13.417 27.0072 13.417 27.0086C13.417 27.0099 13.417 27.0113 13.417 27.0126C13.417 27.014 13.417 27.0153 13.417 27.0167C13.417 27.018 13.417 27.0194 13.417 27.0207C13.417 27.0221 13.417 27.0234 13.417 27.0248C13.417 27.0261 13.417 27.0275 13.417 27.0288C13.417 27.0301 13.417 27.0315 13.417 27.0328C13.417 27.0342 13.417 27.0355 13.417 27.0369C13.417 27.0382 13.417 27.0396 13.417 27.0409C13.417 27.0422 13.417 27.0436 13.417 27.0449C13.417 27.0463 13.417 27.0476 13.417 27.0489C13.417 27.0503 13.417 27.0516 13.417 27.0529C13.417 27.0543 13.417 27.0556 13.417 27.0569C13.417 27.0583 13.417 27.0596 13.417 27.061C13.417 27.0623 13.417 27.0636 13.417 27.0649C13.417 27.0663 13.417 27.0676 13.417 27.0689C13.417 27.0703 13.417 27.0716 13.417 27.0729C13.417 27.0743 13.417 27.0756 13.417 27.0769C13.417 27.0782 13.417 27.0796 13.417 27.0809C13.417 27.0822 13.417 27.0835 13.417 27.0849C13.417 27.0862 13.417 27.0875 13.417 27.0888C13.417 27.0901 13.417 27.0915 13.417 27.0928C13.417 27.0941 13.417 27.0954 13.417 27.0967C13.417 27.0981 13.417 27.0994 13.417 27.1007C13.417 27.102 13.417 27.1033 13.417 27.1046C13.417 27.106 13.417 27.1073 13.417 27.1086C13.417 27.1099 13.417 27.1112 13.417 27.1125C13.417 27.1138 13.417 27.1151 13.417 27.1164C13.417 27.1177 13.417 27.1191 13.417 27.1204C13.417 27.1217 13.417 27.123 13.417 27.1243C13.417 27.1256 13.417 27.1269 13.417 27.1282C13.417 27.1295 13.417 27.1308 13.417 27.1321C13.417 27.1334 13.417 27.1347 13.417 27.136C13.417 27.1373 13.417 27.1386 13.417 27.1399C13.417 27.1412 13.417 27.1425 13.417 27.1438C13.417 27.1451 13.417 27.1464 13.417 27.1477C13.417 27.1489 13.417 27.1502 13.417 27.1515C13.417 27.1528 13.417 27.1541 13.417 27.1554C13.417 27.1567 13.417 27.158 13.417 27.1593C13.417 27.1605 13.417 27.1618 13.417 27.1631C13.417 27.1644 13.417 27.1657 13.417 27.167C13.417 27.1682 13.417 27.1695 13.417 27.1708C13.417 27.1721 13.417 27.1734 13.417 27.1746C13.417 27.1759 13.417 27.1772 13.417 27.1785C13.417 27.1798 13.417 27.181 13.417 27.1823C13.417 27.1836 13.417 27.1848 13.417 27.1861C13.417 27.1874 13.417 27.1887 13.417 27.1899C13.417 27.1912 13.417 27.1925 13.417 27.1937C13.417 27.195 13.417 27.1963 13.417 27.1975C13.417 27.1988 13.417 27.2001 13.417 27.2013C13.417 27.2026 13.417 27.2038 13.417 27.2051C13.417 27.2064 13.417 27.2076 13.417 27.2089C13.417 27.2101 13.417 27.2114 13.417 27.2126C13.417 27.2139 13.417 27.2151 13.417 27.2164C13.417 27.2177 13.417 27.2189 13.417 27.2202C13.417 27.2214 13.417 27.2227 13.417 27.2239C13.417 27.2251 13.417 27.2264 13.417 27.2276C13.417 27.2289 13.417 27.2301 13.417 27.2314C13.417 27.2326 13.417 27.2339 13.417 27.2351C13.417 27.2363 13.417 27.2376 13.417 27.2388C13.417 27.24 13.417 27.2413 13.417 27.2425C13.417 27.2438 13.417 27.245 13.417 27.2462C13.417 27.2475 13.417 27.2487 13.417 27.2499C13.417 27.2511 13.417 27.2524 13.417 27.2536C13.417 27.2548 13.417 27.2561 13.417 27.2573C13.417 27.2585 13.417 27.2597 13.417 27.2609C13.417 27.2622 13.417 27.2634 13.417 27.2646H15.008C15.008 27.2634 15.008 27.2622 15.008 27.2609C15.008 27.2597 15.008 27.2585 15.008 27.2573C15.008 27.2561 15.008 27.2548 15.008 27.2536C15.008 27.2524 15.008 27.2511 15.008 27.2499C15.008 27.2487 15.008 27.2475 15.008 27.2462C15.008 27.245 15.008 27.2438 15.008 27.2425C15.008 27.2413 15.008 27.24 15.008 27.2388C15.008 27.2376 15.008 27.2363 15.008 27.2351C15.008 27.2339 15.008 27.2326 15.008 27.2314C15.008 27.2301 15.008 27.2289 15.008 27.2276C15.008 27.2264 15.008 27.2251 15.008 27.2239C15.008 27.2227 15.008 27.2214 15.008 27.2202C15.008 27.2189 15.008 27.2177 15.008 27.2164C15.008 27.2151 15.008 27.2139 15.008 27.2126C15.008 27.2114 15.008 27.2101 15.008 27.2089C15.008 27.2076 15.008 27.2064 15.008 27.2051C15.008 27.2038 15.008 27.2026 15.008 27.2013C15.008 27.2001 15.008 27.1988 15.008 27.1975C15.008 27.1963 15.008 27.195 15.008 27.1937C15.008 27.1925 15.008 27.1912 15.008 27.1899C15.008 27.1887 15.008 27.1874 15.008 27.1861C15.008 27.1848 15.008 27.1836 15.008 27.1823C15.008 27.181 15.008 27.1798 15.008 27.1785C15.008 27.1772 15.008 27.1759 15.008 27.1746C15.008 27.1734 15.008 27.1721 15.008 27.1708C15.008 27.1695 15.008 27.1682 15.008 27.167C15.008 27.1657 15.008 27.1644 15.008 27.1631C15.008 27.1618 15.008 27.1605 15.008 27.1593C15.008 27.158 15.008 27.1567 15.008 27.1554C15.008 27.1541 15.008 27.1528 15.008 27.1515C15.008 27.1502 15.008 27.1489 15.008 27.1477C15.008 27.1464 15.008 27.1451 15.008 27.1438C15.008 27.1425 15.008 27.1412 15.008 27.1399C15.008 27.1386 15.008 27.1373 15.008 27.136C15.008 27.1347 15.008 27.1334 15.008 27.1321C15.008 27.1308 15.008 27.1295 15.008 27.1282C15.008 27.1269 15.008 27.1256 15.008 27.1243C15.008 27.123 15.008 27.1217 15.008 27.1204C15.008 27.1191 15.008 27.1177 15.008 27.1164C15.008 27.1151 15.008 27.1138 15.008 27.1125C15.008 27.1112 15.008 27.1099 15.008 27.1086C15.008 27.1073 15.008 27.106 15.008 27.1046C15.008 27.1033 15.008 27.102 15.008 27.1007C15.008 27.0994 15.008 27.0981 15.008 27.0967C15.008 27.0954 15.008 27.0941 15.008 27.0928C15.008 27.0915 15.008 27.0901 15.008 27.0888C15.008 27.0875 15.008 27.0862 15.008 27.0849C15.008 27.0835 15.008 27.0822 15.008 27.0809C15.008 27.0796 15.008 27.0782 15.008 27.0769C15.008 27.0756 15.008 27.0743 15.008 27.0729C15.008 27.0716 15.008 27.0703 15.008 27.0689C15.008 27.0676 15.008 27.0663 15.008 27.0649C15.008 27.0636 15.008 27.0623 15.008 27.061C15.008 27.0596 15.008 27.0583 15.008 27.0569C15.008 27.0556 15.008 27.0543 15.008 27.0529C15.008 27.0516 15.008 27.0503 15.008 27.0489C15.008 27.0476 15.008 27.0463 15.008 27.0449C15.008 27.0436 15.008 27.0422 15.008 27.0409C15.008 27.0396 15.008 27.0382 15.008 27.0369C15.008 27.0355 15.008 27.0342 15.008 27.0328C15.008 27.0315 15.008 27.0301 15.008 27.0288C15.008 27.0275 15.008 27.0261 15.008 27.0248C15.008 27.0234 15.008 27.0221 15.008 27.0207C15.008 27.0194 15.008 27.018 15.008 27.0167C15.008 27.0153 15.008 27.014 15.008 27.0126C15.008 27.0113 15.008 27.0099 15.008 27.0086C15.008 27.0072 15.008 27.0059 15.008 27.0045C15.008 27.0032 15.008 27.0018 15.008 27.0004C15.008 26.9991 15.008 26.9977 15.008 26.9964C15.008 26.995 15.008 26.9937 15.008 26.9923C15.008 26.9909 15.008 26.9896 15.008 26.9882C15.008 26.9869 15.008 26.9855 15.008 26.9841C15.008 26.9828 15.008 26.9814 15.008 26.9801C15.008 26.9787 15.008 26.9773 15.008 26.976C15.008 26.9746 15.008 26.9733 15.008 26.9719C15.008 26.9705 15.008 26.9692 15.008 26.9678C15.008 26.9664 15.008 26.9651 15.008 26.9637C15.008 26.9623 15.008 26.961 15.008 26.9596C15.008 26.9582 15.008 26.9569 15.008 26.9555C15.008 26.9541 15.008 26.9528 15.008 26.9514C15.008 26.95 15.008 26.9486 15.008 26.9473C15.008 26.9459 15.008 26.9445 15.008 26.9432C15.008 26.9418 15.008 26.9404 15.008 26.939C15.008 26.9377 15.008 26.9363 15.008 26.9349C15.008 26.9335 15.008 26.9322 15.008 26.9308C15.008 26.9294 15.008 26.928 15.008 26.9267C15.008 26.9253 15.008 26.9239 15.008 26.9225C15.008 26.9212 15.008 26.9198 15.008 26.9184C15.008 26.917 15.008 26.9157 15.008 26.9143C15.008 26.9129 15.008 26.9115 15.008 26.9101C15.008 26.9088 15.008 26.9074 15.008 26.906C15.008 26.9046 15.008 26.9032 15.008 26.9019C15.008 26.9005 15.008 26.8991 15.008 26.8977C15.008 26.8963 15.008 26.8949 15.008 26.8936C15.008 26.8922 15.008 26.8908 15.008 26.8894C15.008 26.888 15.008 26.8866 15.008 26.8853C15.008 26.8839 15.008 26.8825 15.008 26.8811C15.008 26.8797 15.008 26.8783 15.008 26.8769C15.008 26.8756 15.008 26.8742 15.008 26.8728C15.008 26.8714 15.008 26.87 15.008 26.8686C15.008 26.8672 15.008 26.8658 15.008 26.8645C15.008 26.8631 15.008 26.8617 15.008 26.8603C15.008 26.8589 15.008 26.8575 15.008 26.8561C15.008 26.8547 15.008 26.8533 15.008 26.8519C15.008 26.8506 15.008 26.8492 15.008 26.8478C15.008 26.8464 15.008 26.845 15.008 26.8436C15.008 26.8422 15.008 26.8408 15.008 26.8394C15.008 26.838 15.008 26.8366 15.008 26.8353C15.008 26.8339 15.008 26.8325 15.008 26.8311C15.008 26.8297 15.008 26.8283 15.008 26.8269C15.008 26.8255 15.008 26.8241 15.008 26.8227C15.008 26.8213 15.008 26.8199 15.008 26.8185C15.008 26.8171 15.008 26.8157 15.008 26.8143C15.008 26.8129 15.008 26.8116 15.008 26.8102C15.008 26.8088 15.008 26.8074 15.008 26.806C15.008 26.8046 15.008 26.8032 15.008 26.8018C15.008 26.8004 15.008 26.799 15.008 26.7976C15.008 26.7962 15.008 26.7948 15.008 26.7934C15.008 26.792 15.008 26.7906 15.008 26.7892C15.008 26.7878 15.008 26.7864 15.008 26.785C15.008 26.7836 15.008 26.7822 15.008 26.7808C15.008 26.7794 15.008 26.778 15.008 26.7766C15.008 26.7752 15.008 26.7738 15.008 26.7724C15.008 26.771 15.008 26.7696 15.008 26.7682C15.008 26.7668 15.008 26.7654 15.008 26.764C15.008 26.7626 15.008 26.7612 15.008 26.7598C15.008 26.7584 15.008 26.757 15.008 26.7556C15.008 26.7542 15.008 26.7528 15.008 26.7514C15.008 26.75 15.008 26.7486 15.008 26.7472C15.008 26.7458 15.008 26.7444 15.008 26.743C15.008 26.7416 15.008 26.7402 15.008 26.7389C15.008 26.7375 15.008 26.7361 15.008 26.7347C15.008 26.7333 15.008 26.7319 15.008 26.7305C15.008 26.7291 15.008 26.7277 15.008 26.7263C15.008 26.7249 15.008 26.7235 15.008 26.7221C15.008 26.7207 15.008 26.7193 15.008 26.7179C15.008 26.7165 15.008 26.7151 15.008 26.7137C15.008 26.7123 15.008 26.7109 15.008 26.7095C15.008 26.7081 15.008 26.7067 15.008 26.7053C15.008 26.7039 15.008 26.7025 15.008 26.7011C15.008 26.6997 15.008 26.6983 15.008 26.6969C15.008 26.6955 15.008 26.6941 15.008 26.6927C15.008 26.6913 15.008 26.6899 15.008 26.6885C15.008 26.6871 15.008 26.6857 15.008 26.6843C15.008 26.6829 15.008 26.6815 15.008 26.6801C15.008 26.6787 15.008 26.6773 15.008 26.6759C15.008 26.6745 15.008 26.6731 15.008 26.6717C15.008 26.6703 15.008 26.6689 15.008 26.6675C15.008 26.6661 15.008 26.6647 15.008 26.6633C15.008 26.6619 15.008 26.6605 15.008 26.6591C15.008 26.6577 15.008 26.6563 15.008 26.6549C15.008 26.6535 15.008 26.6521 15.008 26.6507C15.008 26.6493 15.008 26.6479 15.008 26.6465C15.008 26.6451 15.008 26.6437 15.008 26.6423C15.008 26.6409 15.008 26.6395 15.008 26.6381C15.008 26.6367 15.008 26.6353 15.008 26.6339C15.008 26.6325 15.008 26.6311 15.008 26.6298C15.008 26.6284 15.008 26.627 15.008 26.6256C15.008 26.6242 15.008 26.6228 15.008 26.6214C15.008 26.62 15.008 26.6186 15.008 26.6172C15.008 26.6158 15.008 26.6144 15.008 26.613C15.008 26.6116 15.008 26.6102 15.008 26.6088C15.008 26.6074 15.008 26.6061 15.008 26.6047C15.008 26.6033 15.008 26.6019 15.008 26.6005C15.008 26.5991 15.008 26.5977 15.008 26.5963C15.008 26.5949 15.008 26.5935 15.008 26.5921C15.008 26.5907 15.008 26.5894 15.008 26.588C15.008 26.5866 15.008 26.5852 15.008 26.5838C15.008 26.5824 15.008 26.581 15.008 26.5796C15.008 26.5782 15.008 26.5768 15.008 26.5755C15.008 26.5741 15.008 26.5727 15.008 26.5713C15.008 26.5699 15.008 26.5685 15.008 26.5671C15.008 26.5658 15.008 26.5644 15.008 26.563C15.008 26.5616 15.008 26.5602 15.008 26.5588C15.008 26.5574 15.008 26.556 15.008 26.5547C15.008 26.5533 15.008 26.5519 15.008 26.5505C15.008 26.5491 15.008 26.5477 15.008 26.5464C15.008 26.545 15.008 26.5436 15.008 26.5422C15.008 26.5408 15.008 26.5395 15.008 26.5381C15.008 26.5367 15.008 26.5353 15.008 26.5339C15.008 26.5325 15.008 26.5312 15.008 26.5298C15.008 26.5284 15.008 26.527 15.008 26.5257C15.008 26.5243 15.008 26.5229 15.008 26.5215C15.008 26.5201 15.008 26.5188 15.008 26.5174C15.008 26.516 15.008 26.5146 15.008 26.5133C15.008 26.5119 15.008 26.5105 15.008 26.5091C15.008 26.5078 15.008 26.5064 15.008 26.505C15.008 26.5036 15.008 26.5023 15.008 26.5009C15.008 26.4995 15.008 26.4981 15.008 26.4968C15.008 26.4954 15.008 26.494 15.008 26.4927C15.008 26.4913 15.008 26.4899 15.008 26.4886C15.008 26.4872 15.008 26.4858 15.008 26.4844C15.008 26.4831 15.008 26.4817 15.008 26.4803C15.008 26.479 15.008 26.4776 15.008 26.4762C15.008 26.4749 15.008 26.4735 15.008 26.4721C15.008 26.4708 15.008 26.4694 15.008 26.4681C15.008 26.4667 15.008 26.4653 15.008 26.464C15.008 26.4626 15.008 26.4612 15.008 26.4599C15.008 26.4585 15.008 26.4572 15.008 26.4558C15.008 26.4544 15.008 26.4531 15.008 26.4517C15.008 26.4504 15.008 26.449 15.008 26.4476C15.008 26.4463 15.008 26.4449 15.008 26.4436C15.008 26.4422 15.008 26.4409 15.008 26.4395C15.008 26.4382 15.008 26.4368 15.008 26.4354C15.008 26.4341 15.008 26.4327 15.008 26.4314C15.008 26.43 15.008 26.4287 15.008 26.4273C15.008 26.426 15.008 26.4246 15.008 26.4233C15.008 26.4219 15.008 26.4206 15.008 26.4192C15.008 26.4179 15.008 26.4165 15.008 26.4152C15.008 26.4138 15.008 26.4125 15.008 26.4112C15.008 26.4098 15.008 26.4085 15.008 26.4071C15.008 26.4058 15.008 26.4044 15.008 26.4031C15.008 26.4018 15.008 26.4004 15.008 26.3991C15.008 26.3977 15.008 26.3964 15.008 26.3951C15.008 26.3937 15.008 26.3924 15.008 26.391C15.008 26.3897 15.008 26.3884 15.008 26.387C15.008 26.3857 15.008 26.3844 15.008 26.383C15.008 26.3817 15.008 26.3804 15.008 26.379C15.008 26.3777 15.008 26.3764 15.008 26.375C15.008 26.3737 15.008 26.3724 15.008 26.371C15.008 26.3697 15.008 26.3684 15.008 26.3671C15.008 26.3657 15.008 26.3644 15.008 26.3631C15.008 26.3617 15.008 26.3604 15.008 26.3591C15.008 26.3578 15.008 26.3565 15.008 26.3551C15.008 26.3538 15.008 26.3525 15.008 26.3512C15.008 26.3498 15.008 26.3485 15.008 26.3472C15.008 26.3459 15.008 26.3446 15.008 26.3433C15.008 26.3419 15.008 26.3406 15.008 26.3393C15.008 26.338 15.008 26.3367 15.008 26.3354C15.008 26.334 15.008 26.3327 15.008 26.3314C15.008 26.3301 15.008 26.3288 15.008 26.3275C15.008 26.3262 15.008 26.3249 15.008 26.3236C15.008 26.3223 15.008 26.3209 15.008 26.3196C15.008 26.3183 15.008 26.317 15.008 26.3157C15.008 26.3144 15.008 26.3131 15.008 26.3118C15.008 26.3105 15.008 26.3092 15.008 26.3079C15.008 26.3066 15.008 26.3053 15.008 26.304C15.008 26.3027 15.008 26.3014 15.008 26.3001C15.008 26.2988 15.008 26.2975 15.008 26.2962C15.008 26.2949 15.008 26.2937 15.008 26.2924C15.008 26.2911 15.008 26.2898 15.008 26.2885C15.008 26.2872 15.008 26.2859 15.008 26.2846C15.008 26.2833 15.008 26.2821 15.008 26.2808C15.008 26.2795 15.008 26.2782 15.008 26.2769C15.008 26.2756 15.008 26.2743 15.008 26.2731C15.008 26.2718 15.008 26.2705 15.008 26.2692C15.008 26.2679 15.008 26.2667 15.008 26.2654C15.008 26.2641 15.008 26.2628 15.008 26.2616C15.008 26.2603 15.008 26.259 15.008 26.2577C15.008 26.2565 15.008 26.2552 15.008 26.2539C15.008 26.2527 15.008 26.2514 15.008 26.2501C15.008 26.2489 15.008 26.2476 15.008 26.2463C15.008 26.2451 15.008 26.2438 15.008 26.2425C15.008 26.2413 15.008 26.24 15.008 26.2387C15.008 26.2375 15.008 26.2362 15.008 26.235C15.008 26.2337 15.008 26.2324 15.008 26.2312C15.008 26.2299 15.008 26.2287 15.008 26.2274C15.008 26.2262 15.008 26.2249 15.008 26.2237C15.008 26.2224 15.008 26.2212 15.008 26.2199C15.008 26.2187 15.008 26.2174 15.008 26.2162C15.008 26.2149 15.008 26.2137 15.008 26.2124C15.008 26.2112 15.008 26.2099 15.008 26.2087C15.008 26.2075 15.008 26.2062 15.008 26.205C15.008 26.2037 15.008 26.2025 15.008 26.2013C15.008 26.2 15.008 26.1988 15.008 26.1976C15.008 26.1963 15.008 26.1951 15.008 26.1939C15.008 26.1926 15.008 26.1914 15.008 26.1902C15.008 26.1889 15.008 26.1877 15.008 26.1865C15.008 26.1853 15.008 26.184 15.008 26.1828C15.008 26.1816 15.008 26.1804 15.008 26.1791C15.008 26.1779 15.008 26.1767 15.008 26.1755C15.008 26.1743 15.008 26.1731 15.008 26.1718C15.008 26.1706 15.008 26.1694 15.008 26.1682C15.008 26.167 15.008 26.1658 15.008 26.1646C15.008 26.1634 15.008 26.1621 15.008 26.1609C15.008 26.1597 15.008 26.1585 15.008 26.1573C15.008 26.1561 15.008 26.1549 15.008 26.1537C15.008 26.1525 15.008 26.1513 15.008 26.1501C15.008 26.1489 15.008 26.1477 15.008 26.1465C15.008 26.1453 15.008 26.1441 15.008 26.1429C15.008 26.1417 15.008 26.1405 15.008 26.1393C15.008 26.1382 15.008 26.137 15.008 26.1358C15.008 26.1346 15.008 26.1334 15.008 26.1322C15.008 26.131 15.008 26.1299 15.008 26.1287C15.008 26.1275 15.008 26.1263 15.008 26.1251C15.008 26.124 15.008 26.1228 15.008 26.1216C15.008 26.1204 15.008 26.1192 15.008 26.1181C15.008 26.1169 15.008 26.1157 15.008 26.1146C15.008 26.1134 15.008 26.1122 15.008 26.1111C15.008 26.1099 15.008 26.1087 15.008 26.1076C15.008 26.1064 15.008 26.1052 15.008 26.1041C15.008 26.1029 15.008 26.1018 15.008 26.1006C15.008 26.0994 15.008 26.0983 15.008 26.0971C15.008 26.096 15.008 26.0948 15.008 26.0937C15.008 26.0925 15.008 26.0914 15.008 26.0902C15.008 26.0891 15.008 26.0879 15.008 26.0868C15.008 26.0856 15.008 26.0845 15.008 26.0833C15.008 26.0822 15.008 26.0811 15.008 26.0799C15.008 26.0788 15.008 26.0776 15.008 26.0765C15.008 26.0754 15.008 26.0742 15.008 26.0731C15.008 26.072 15.008 26.0708 15.008 26.0697C15.008 26.0686 15.008 26.0675 15.008 26.0663C15.008 26.0652 15.008 26.0641 15.008 26.063C15.008 26.0618 15.008 26.0607 15.008 26.0596C15.008 26.0585 15.008 26.0574 15.008 26.0562C15.008 26.0551 15.008 26.054 15.008 26.0529C15.008 26.0518 15.008 26.0507 15.008 26.0496C15.008 26.0485 15.008 26.0474 15.008 26.0462C15.008 26.0451 15.008 26.044 15.008 26.0429C15.008 26.0418 15.008 26.0407 15.008 26.0396C15.008 26.0385 15.008 26.0374 15.008 26.0363C15.008 26.0352 15.008 26.0342 15.008 26.0331C15.008 26.032 15.008 26.0309 15.008 26.0298C15.008 26.0287 15.008 26.0276 15.008 26.0265C15.008 26.0254 15.008 26.0244 15.008 26.0233C15.008 26.0222 15.008 26.0211 15.008 26.02C15.008 26.019 15.008 26.0179 15.008 26.0168C15.008 26.0157 15.008 26.0147 15.008 26.0136C15.008 26.0125 15.008 26.0115 15.008 26.0104C15.008 26.0093 15.008 26.0083 15.008 26.0072C15.008 26.0061 15.008 26.0051 15.008 26.004C15.008 26.0029 15.008 26.0019 15.008 26.0008C15.008 25.9998 15.008 25.9987 15.008 25.9977C15.008 25.9966 15.008 25.9956 15.008 25.9945C15.008 25.9935 15.008 25.9924 15.008 25.9914C15.008 25.9903 15.008 25.9893 15.008 25.9882C15.008 25.9872 15.008 25.9862 15.008 25.9851C15.008 25.9841 15.008 25.9831 15.008 25.982C15.008 25.981 15.008 25.98 15.008 25.9789C15.008 25.9779 15.008 25.9769 15.008 25.9758C15.008 25.9748 15.008 25.9738 15.008 25.9728C15.008 25.9718 15.008 25.9707 15.008 25.9697C15.008 25.9687 15.008 25.9677 15.008 25.9667C15.008 25.9656 15.008 25.9646 15.008 25.9636C15.008 25.9626 15.008 25.9616 15.008 25.9606C15.008 25.9596 15.008 25.9586 15.008 25.9576C15.008 25.9566 15.008 25.9556 15.008 25.9546C15.008 25.9536 15.008 25.9526 15.008 25.9516C15.008 25.9506 15.008 25.9496 15.008 25.9486C15.008 25.9476 15.008 25.9466 15.008 25.9456C15.008 25.9447 15.008 25.9437 15.008 25.9427C15.008 25.9417 15.008 25.9407 15.008 25.9398C15.008 25.9388 15.008 25.9378 15.008 25.9368C15.008 25.9359 15.008 25.9349 15.008 25.9339C15.008 25.9329 15.008 25.932 15.008 25.931C15.008 25.93 15.008 25.9291 15.008 25.9281C15.008 25.9271 15.008 25.9262 15.008 25.9252C15.008 25.9243 15.008 25.9233 15.008 25.9224C15.008 25.9214 15.008 25.9205 15.008 25.9195C15.008 25.9186 15.008 25.9176 15.008 25.9167C15.008 25.9157 15.008 25.9148 15.008 25.9138C15.008 25.9129 15.008 25.912 15.008 25.911C15.008 25.9101 15.008 25.9091 15.008 25.9082C15.008 25.9073 15.008 25.9064 15.008 25.9054C15.008 25.9045 15.008 25.9036 15.008 25.9026C15.008 25.9017 15.008 25.9008 15.008 25.8999C15.008 25.899 15.008 25.898 15.008 25.8971C15.008 25.8962 15.008 25.8953 15.008 25.8944C15.008 25.8935 15.008 25.8926 15.008 25.8917C15.008 25.8908 15.008 25.8899 15.008 25.889C15.008 25.8881 15.008 25.8872 15.008 25.8863C15.008 25.8854 15.008 25.8845 15.008 25.8836C15.008 25.8827 15.008 25.8818 15.008 25.8809C15.008 25.88 15.008 25.8791 15.008 25.8782C15.008 25.8774 15.008 25.8765 15.008 25.8756C15.008 25.8747 15.008 25.8738 15.008 25.873C15.008 25.8721 15.008 25.8712 15.008 25.8703C15.008 25.8695 15.008 25.8686 15.008 25.8677C15.008 25.8669 15.008 25.866 15.008 25.8651C15.008 25.8643 15.008 25.8634 15.008 25.8626C15.008 25.8617 15.008 25.8609 15.008 25.86C15.008 25.8592 15.008 25.8583 15.008 25.8575C15.008 25.8566 15.008 25.8558 15.008 25.8549C15.008 25.8541 15.008 25.8532 15.008 25.8524C15.008 25.8516 15.008 25.8507 15.008 25.8499C15.008 25.8491 15.008 25.8482 15.008 25.8474C15.008 25.8466 15.008 25.8457 15.008 25.8449C15.008 25.8441 15.008 25.8433 15.008 25.8425C15.008 25.8416 15.008 25.8408 15.008 25.84C15.008 25.8392 15.008 25.8384 15.008 25.8376C15.008 25.8368 15.008 25.836 15.008 25.8352C15.008 25.8344 15.008 25.8335 15.008 25.8328C15.008 25.832 15.008 25.8312 15.008 25.8304C15.008 25.8296 15.008 25.8288 15.008 25.828C15.008 25.8272 15.008 25.8264 15.008 25.8256C15.008 25.8248 15.008 25.8241 15.008 25.8233C15.008 25.8225 15.008 25.8217 15.008 25.8209C15.008 25.8202 15.008 25.8194 15.008 25.8186C15.008 25.8179 15.008 25.8171 15.008 25.8163C15.008 25.8156 15.008 25.8148 15.008 25.814C15.008 25.8133 15.008 25.8125 15.008 25.8118C15.008 25.811 15.008 25.8103 15.008 25.8095C15.008 25.8088 15.008 25.808 15.008 25.8073C15.008 25.8065 15.008 25.8058 15.008 25.805C15.008 25.8043 15.008 25.8036 15.008 25.8028C15.008 25.8021 15.008 25.8014 15.008 25.8006C15.008 25.7999 15.008 25.7992 15.008 25.7984C15.008 25.7977 15.008 25.797 15.008 25.7963C15.008 25.7956 15.008 25.7948 15.008 25.7941C15.008 25.7934 15.008 25.7927 15.008 25.792C15.008 25.7913 15.008 25.7906 15.008 25.7899C15.008 25.7892 15.008 25.7885 15.008 25.7878C15.008 25.7871 15.008 25.7864 15.008 25.7857C15.008 25.785 15.008 25.7843 15.008 25.7836C15.008 25.7829 15.008 25.7822 15.008 25.7816C15.008 25.7809 15.008 25.7802 15.008 25.7795C15.008 25.7788 15.008 25.7782 15.008 25.7775C15.008 25.7768 15.008 25.7762 15.008 25.7755C15.008 25.7748 15.008 25.7742 15.008 25.7735C15.008 25.7728 15.008 25.7722 15.008 25.7715C15.008 25.7709 15.008 25.7702 15.008 25.7696C15.008 25.7689 15.008 25.7683 15.008 25.7676C15.008 25.767 15.008 25.7663 15.008 25.7657C15.008 25.7651 15.008 25.7644 15.008 25.7638C15.008 25.7632 15.008 25.7625 15.008 25.7619C15.008 25.7613 15.008 25.7606 15.008 25.76C15.008 25.7594 15.008 25.7588 15.008 25.7582C15.008 25.7575 15.008 25.7569 15.008 25.7563C15.008 25.7557 15.008 25.7551 15.008 25.7545C15.008 25.7539 15.008 25.7533 15.008 25.7527C15.008 25.7521 15.008 25.7515 15.008 25.7509C15.008 25.7503 15.008 25.7497 15.008 25.7491C15.008 25.7485 15.008 25.7479 15.008 25.7474C15.008 25.7468 15.008 25.7462 15.008 25.7456C15.008 25.745 15.008 25.7445 15.008 25.7439C15.008 25.7433 15.008 25.7427 15.008 25.7422C15.008 25.7416 15.008 25.7411 15.008 25.7405C15.008 25.7399 15.008 25.7394 15.008 25.7388C15.008 25.7383 15.008 25.7377 15.008 25.7372C15.008 25.7366 15.008 25.7361 15.008 25.7355C15.008 25.735 15.008 25.7344 15.008 25.7339C15.008 25.7334 15.008 25.7328 15.008 25.7323C15.008 25.7318 15.008 25.7312 15.008 25.7307C15.008 25.7302 15.008 25.7297 15.008 25.7291C15.008 25.7286 15.008 25.7281 15.008 25.7276C15.008 25.7271 15.008 25.7266 15.008 25.7261C15.008 25.7256 15.008 25.725 15.008 25.7245C15.008 25.724 15.008 25.7235 15.008 25.723C15.008 25.7226 15.008 25.7221 15.008 25.7216C15.008 25.7211 15.008 25.7206 15.008 25.7201C15.008 25.7196 15.008 25.7191 15.008 25.7187C15.008 25.7182 15.008 25.7177 15.008 25.7172C15.008 25.7168 15.008 25.7163 15.008 25.7158C15.008 25.7154 15.008 25.7149 15.008 25.7144C15.008 25.714 15.008 25.7135 15.008 25.7131C15.008 25.7126 15.008 25.7122 15.008 25.7117C15.008 25.7113 15.008 25.7108 15.008 25.7104C15.008 25.7099 15.008 25.7095 15.008 25.7091C15.008 25.7086 15.008 25.7082 15.008 25.7078C15.008 25.7073 15.008 25.7069 15.008 25.7065C15.008 25.7061 15.008 25.7057 15.008 25.7052C15.008 25.7048 15.008 25.7044 15.008 25.704C15.008 25.7036 15.008 25.7032 15.008 25.7028C15.008 25.7024 15.008 25.702 15.008 25.7016C15.008 25.7012 15.008 25.7008 15.008 25.7004C15.008 25.7 15.008 25.6996 15.008 25.6992C15.008 25.6988 15.008 25.6985 15.008 25.6981C15.008 25.6977 15.008 25.6973 15.008 25.697C15.008 25.6966 15.008 25.6962 15.008 25.6958C15.008 25.6955 15.008 25.6951 15.008 25.6948C15.008 25.6944 15.008 25.694 15.008 25.6937C15.008 25.6933 15.008 25.693 15.008 25.6926C15.008 25.6923 15.008 25.6919 15.008 25.6916C15.008 25.6913 15.008 25.6909 15.008 25.6906C15.008 25.6903 15.008 25.6899 15.008 25.6896C15.008 25.6893 15.008 25.6889 15.008 25.6886C15.008 25.6883 15.008 25.688 15.008 25.6877C15.008 25.6874 15.008 25.687 15.008 25.6867C15.008 25.6864 15.008 25.6861 15.008 25.6858C15.008 25.6855 15.008 25.6852 15.008 25.6849C15.008 25.6846 15.008 25.6843 15.008 25.6841C15.008 25.6838 15.008 25.6835 15.008 25.6832C15.008 25.6829 15.008 25.6826 15.008 25.6824C15.008 25.6821 15.008 25.6818 15.008 25.6815C15.008 25.6813 15.008 25.681 15.008 25.6808C15.008 25.6805 15.008 25.6802 15.008 25.68C15.008 25.6797 15.008 25.6795 15.008 25.6792C15.008 25.679 15.008 25.6787 15.008 25.6785C15.008 25.6783 15.008 25.678 15.008 25.6778C15.008 25.6775 15.008 25.6773 15.008 25.6771C15.008 25.6769 15.008 25.6766 15.008 25.6764C15.008 25.6762 15.008 25.676 15.008 25.6758C15.008 25.6755 15.008 25.6753 15.008 25.6751C15.008 25.6749 15.008 25.6747 15.008 25.6745C15.008 25.6743 15.008 25.6741 15.008 25.6739C15.008 25.6737 15.008 25.6735 15.008 25.6734C15.008 25.6732 15.008 25.673 15.008 25.6728C15.008 25.6726 15.008 25.6724 15.008 25.6723C15.008 25.6721 15.008 25.6719 15.008 25.6718C15.008 25.6716 15.008 25.6714 15.008 25.6713C15.008 25.6711 15.008 25.671 15.008 25.6708C15.008 25.6707 15.008 25.6705 15.008 25.6704C15.008 25.6702 15.008 25.6701 15.008 25.6699C15.008 25.6698 15.008 25.6697 15.008 25.6695C15.008 25.6694 15.008 25.6693 15.008 25.6692C15.008 25.669 15.008 25.6689 15.008 25.6688C15.008 25.6687 15.008 25.6686 15.008 25.6685C15.008 25.6684 15.008 25.6683 15.008 25.6681C15.008 25.668 15.008 25.6679 15.008 25.6679C15.008 25.6678 15.008 25.6677 15.008 25.6676C15.008 25.6675 15.008 25.6674 15.008 25.6673C15.008 25.6672 15.008 25.6672 15.008 25.6671C15.008 25.667 15.008 25.667 15.008 25.6669C15.008 25.6668 15.008 25.6668 15.008 25.6667C15.008 25.6666 15.008 25.6666 15.008 25.6665C15.008 25.6665 15.008 25.6664 15.008 25.6664C15.008 25.6663 15.008 25.6663 15.008 25.6663C15.008 25.6662 15.008 25.6662 15.008 25.6662C15.008 25.6661 15.008 25.6661 15.008 25.6661C15.008 25.6661 15.008 25.666 15.008 25.666C15.008 25.666 15.008 25.666 15.008 25.666C15.008 25.666 15.008 25.666 14.2125 25.666ZM15.3483 32.6136H19.7321V31.0227H15.3483V32.6136ZM14.2125 30.3853H20.7882V28.7944H14.2125V30.3853ZM18.2958 27.2646C18.2958 27.2581 18.2958 27.2516 18.2958 27.2451C18.2958 27.2386 18.2958 27.2321 18.2958 27.2257C18.2958 27.2192 18.2958 27.2127 18.2958 27.2062C18.2958 27.1998 18.2958 27.1933 18.2958 27.1868C18.2958 27.1804 18.2958 27.1739 18.2958 27.1675C18.2958 27.161 18.2958 27.1546 18.2958 27.1481C18.2958 27.1417 18.2958 27.1353 18.2958 27.1289C18.2958 27.1224 18.2958 27.116 18.2958 27.1096C18.2958 27.1032 18.2958 27.0968 18.2958 27.0904C18.2958 27.084 18.2958 27.0776 18.2958 27.0712C18.2958 27.0648 18.2958 27.0584 18.2958 27.052C18.2958 27.0456 18.2958 27.0392 18.2958 27.0329C18.2958 27.0265 18.2958 27.0201 18.2958 27.0138C18.2958 27.0074 18.2958 27.001 18.2958 26.9947C18.2958 26.9883 18.2958 26.982 18.2958 26.9757C18.2958 26.9693 18.2958 26.963 18.2958 26.9567C18.2958 26.9503 18.2958 26.944 18.2958 26.9377C18.2958 26.9314 18.2958 26.925 18.2958 26.9187C18.2958 26.9124 18.2958 26.9061 18.2958 26.8998C18.2958 26.8935 18.2958 26.8872 18.2958 26.8809C18.2958 26.8747 18.2958 26.8684 18.2958 26.8621C18.2958 26.8558 18.2958 26.8495 18.2958 26.8433C18.2958 26.837 18.2958 26.8307 18.2958 26.8245C18.2958 26.8182 18.2958 26.812 18.2958 26.8057C18.2958 26.7995 18.2958 26.7932 18.2958 26.787C18.2958 26.7808 18.2958 26.7745 18.2958 26.7683C18.2958 26.7621 18.2958 26.7558 18.2958 26.7496C18.2958 26.7434 18.2958 26.7372 18.2958 26.731C18.2958 26.7248 18.2958 26.7186 18.2958 26.7124C18.2958 26.7062 18.2958 26.7 18.2958 26.6938C18.2958 26.6876 18.2958 26.6814 18.2958 26.6753C18.2958 26.6691 18.2958 26.6629 18.2958 26.6567C18.2958 26.6506 18.2958 26.6444 18.2958 26.6382C18.2958 26.6321 18.2958 26.6259 18.2958 26.6198C18.2958 26.6136 18.2958 26.6075 18.2958 26.6014C18.2958 26.5952 18.2958 26.5891 18.2958 26.583C18.2958 26.5768 18.2958 26.5707 18.2958 26.5646C18.2958 26.5585 18.2958 26.5523 18.2958 26.5462C18.2958 26.5401 18.2958 26.534 18.2958 26.5279C18.2958 26.5218 18.2958 26.5157 18.2958 26.5096C18.2958 26.5035 18.2958 26.4974 18.2958 26.4914C18.2958 26.4853 18.2958 26.4792 18.2958 26.4731C18.2958 26.4671 18.2958 26.461 18.2958 26.4549C18.2958 26.4489 18.2958 26.4428 18.2958 26.4368C18.2958 26.4307 18.2958 26.4246 18.2958 26.4186C18.2958 26.4126 18.2958 26.4065 18.2958 26.4005C18.2958 26.3944 18.2958 26.3884 18.2958 26.3824C18.2958 26.3764 18.2958 26.3703 18.2958 26.3643C18.2958 26.3583 18.2958 26.3523 18.2958 26.3463C18.2958 26.3403 18.2958 26.3343 18.2958 26.3283C18.2958 26.3223 18.2958 26.3163 18.2958 26.3103C18.2958 26.3043 18.2958 26.2983 18.2958 26.2923C18.2958 26.2863 18.2958 26.2804 18.2958 26.2744C18.2958 26.2684 18.2958 26.2625 18.2958 26.2565C18.2958 26.2505 18.2958 26.2446 18.2958 26.2386C18.2958 26.2327 18.2958 26.2267 18.2958 26.2208C18.2958 26.2148 18.2958 26.2089 18.2958 26.2029C18.2958 26.197 18.2958 26.1911 18.2958 26.1851C18.2958 26.1792 18.2958 26.1733 18.2958 26.1674C18.2958 26.1614 18.2958 26.1555 18.2958 26.1496C18.2958 26.1437 18.2958 26.1378 18.2958 26.1319C18.2958 26.126 18.2958 26.1201 18.2958 26.1142C18.2958 26.1083 18.2958 26.1024 18.2958 26.0965C18.2958 26.0906 18.2958 26.0847 18.2958 26.0789C18.2958 26.073 18.2958 26.0671 18.2958 26.0612C18.2958 26.0554 18.2958 26.0495 18.2958 26.0436C18.2958 26.0378 18.2958 26.0319 18.2958 26.0261C18.2958 26.0202 18.2958 26.0144 18.2958 26.0085C18.2958 26.0027 18.2958 25.9968 18.2958 25.991C18.2958 25.9852 18.2958 25.9793 18.2958 25.9735C18.2958 25.9677 18.2958 25.9619 18.2958 25.956C18.2958 25.9502 18.2958 25.9444 18.2958 25.9386C18.2958 25.9328 18.2958 25.927 18.2958 25.9212C18.2958 25.9154 18.2958 25.9096 18.2958 25.9038C18.2958 25.898 18.2958 25.8922 18.2958 25.8864C18.2958 25.8806 18.2958 25.8748 18.2958 25.869C18.2958 25.8632 18.2958 25.8575 18.2958 25.8517C18.2958 25.8459 18.2958 25.8402 18.2958 25.8344C18.2958 25.8286 18.2958 25.8229 18.2958 25.8171C18.2958 25.8113 18.2958 25.8056 18.2958 25.7998C18.2958 25.7941 18.2958 25.7883 18.2958 25.7826C18.2958 25.7769 18.2958 25.7711 18.2958 25.7654C18.2958 25.7597 18.2958 25.7539 18.2958 25.7482C18.2958 25.7425 18.2958 25.7367 18.2958 25.731C18.2958 25.7253 18.2958 25.7196 18.2958 25.7139C18.2958 25.7082 18.2958 25.7025 18.2958 25.6968C18.2958 25.691 18.2958 25.6853 18.2958 25.6797C18.2958 25.674 18.2958 25.6683 18.2958 25.6626C18.2958 25.6569 18.2958 25.6512 18.2958 25.6455C18.2958 25.6398 18.2958 25.6342 18.2958 25.6285C18.2958 25.6228 18.2958 25.6171 18.2958 25.6115C18.2958 25.6058 18.2958 25.6001 18.2958 25.5945C18.2958 25.5888 18.2958 25.5831 18.2958 25.5775C18.2958 25.5718 18.2958 25.5662 18.2958 25.5605C18.2958 25.5549 18.2958 25.5493 18.2958 25.5436C18.2958 25.538 18.2958 25.5323 18.2958 25.5267C18.2958 25.5211 18.2958 25.5154 18.2958 25.5098C18.2958 25.5042 18.2958 25.4986 18.2958 25.493C18.2958 25.4873 18.2958 25.4817 18.2958 25.4761C18.2958 25.4705 18.2958 25.4649 18.2958 25.4593C18.2958 25.4537 18.2958 25.4481 18.2958 25.4425C18.2958 25.4369 18.2958 25.4313 18.2958 25.4257C18.2958 25.4201 18.2958 25.4145 18.2958 25.4089C18.2958 25.4033 18.2958 25.3978 18.2958 25.3922C18.2958 25.3866 18.2958 25.381 18.2958 25.3755C18.2958 25.3699 18.2958 25.3643 18.2958 25.3588C18.2958 25.3532 18.2958 25.3476 18.2958 25.3421C18.2958 25.3365 18.2958 25.331 18.2958 25.3254C18.2958 25.3199 18.2958 25.3143 18.2958 25.3088C18.2958 25.3032 18.2958 25.2977 18.2958 25.2921C18.2958 25.2866 18.2958 25.2811 18.2958 25.2755C18.2958 25.27 18.2958 25.2645 18.2958 25.2589C18.2958 25.2534 18.2958 25.2479 18.2958 25.2424C18.2958 25.2368 18.2958 25.2313 18.2958 25.2258C18.2958 25.2203 18.2958 25.2148 18.2958 25.2093C18.2958 25.2038 18.2958 25.1983 18.2958 25.1928C18.2958 25.1873 18.2958 25.1818 18.2958 25.1763C18.2958 25.1708 18.2958 25.1653 18.2958 25.1598C18.2958 25.1543 18.2958 25.1488 18.2958 25.1433C18.2958 25.1378 18.2958 25.1324 18.2958 25.1269C18.2958 25.1214 18.2958 25.1159 18.2958 25.1105C18.2958 25.105 18.2958 25.0995 18.2958 25.0941C18.2958 25.0886 18.2958 25.0831 18.2958 25.0777C18.2958 25.0722 18.2958 25.0667 18.2958 25.0613C18.2958 25.0558 18.2958 25.0504 18.2958 25.0449C18.2958 25.0395 18.2958 25.034 18.2958 25.0286C18.2958 25.0232 18.2958 25.0177 18.2958 25.0123C18.2958 25.0068 18.2958 25.0014 18.2958 24.996C18.2958 24.9905 18.2958 24.9851 18.2958 24.9797C18.2958 24.9743 18.2958 24.9688 18.2958 24.9634C18.2958 24.958 18.2958 24.9526 18.2958 24.9472C18.2958 24.9418 18.2958 24.9363 18.2958 24.9309C18.2958 24.9255 18.2958 24.9201 18.2958 24.9147C18.2958 24.9093 18.2958 24.9039 18.2958 24.8985C18.2958 24.8931 18.2958 24.8877 18.2958 24.8823C18.2958 24.8769 18.2958 24.8715 18.2958 24.8661C18.2958 24.8608 18.2958 24.8554 18.2958 24.85C18.2958 24.8446 18.2958 24.8392 18.2958 24.8338C18.2958 24.8285 18.2958 24.8231 18.2958 24.8177C18.2958 24.8123 18.2958 24.807 18.2958 24.8016C18.2958 24.7962 18.2958 24.7909 18.2958 24.7855C18.2958 24.7801 18.2958 24.7748 18.2958 24.7694C18.2958 24.7641 18.2958 24.7587 18.2958 24.7534C18.2958 24.748 18.2958 24.7427 18.2958 24.7373C18.2958 24.732 18.2958 24.7266 18.2958 24.7213C18.2958 24.7159 18.2958 24.7106 18.2958 24.7052C18.2958 24.6999 18.2958 24.6946 18.2958 24.6892C18.2958 24.6839 18.2958 24.6786 18.2958 24.6732C18.2958 24.6679 18.2958 24.6626 18.2958 24.6573C18.2958 24.6519 18.2958 24.6466 18.2958 24.6413C18.2958 24.636 18.2958 24.6307 18.2958 24.6254C18.2958 24.62 18.2958 24.6147 18.2958 24.6094C18.2958 24.6041 18.2958 24.5988 18.2958 24.5935C18.2958 24.5882 18.2958 24.5829 18.2958 24.5776C18.2958 24.5723 18.2958 24.567 18.2958 24.5617C18.2958 24.5564 18.2958 24.5511 18.2958 24.5458C18.2958 24.5405 18.2958 24.5352 18.2958 24.5299C18.2958 24.5246 18.2958 24.5194 18.2958 24.5141C18.2958 24.5088 18.2958 24.5035 18.2958 24.4982C18.2958 24.4929 18.2958 24.4877 18.2958 24.4824C18.2958 24.4771 18.2958 24.4718 18.2958 24.4666C18.2958 24.4613 18.2958 24.456 18.2958 24.4508C18.2958 24.4455 18.2958 24.4402 18.2958 24.435C18.2958 24.4297 18.2958 24.4244 18.2958 24.4192C18.2958 24.4139 18.2958 24.4087 18.2958 24.4034C18.2958 24.3982 18.2958 24.3929 18.2958 24.3877C18.2958 24.3824 18.2958 24.3772 18.2958 24.3719C18.2958 24.3667 18.2958 24.3614 18.2958 24.3562C18.2958 24.3509 18.2958 24.3457 18.2958 24.3404C18.2958 24.3352 18.2958 24.33 18.2958 24.3247C18.2958 24.3195 18.2958 24.3143 18.2958 24.309C18.2958 24.3038 18.2958 24.2986 18.2958 24.2933C18.2958 24.2881 18.2958 24.2829 18.2958 24.2777C18.2958 24.2724 18.2958 24.2672 18.2958 24.262C18.2958 24.2568 18.2958 24.2516 18.2958 24.2463C18.2958 24.2411 18.2958 24.2359 18.2958 24.2307C18.2958 24.2255 18.2958 24.2203 18.2958 24.215C18.2958 24.2098 18.2958 24.2046 18.2958 24.1994C18.2958 24.1942 18.2958 24.189 18.2958 24.1838C18.2958 24.1786 18.2958 24.1734 18.2958 24.1682C18.2958 24.163 18.2958 24.1578 18.2958 24.1526C18.2958 24.1474 18.2958 24.1422 18.2958 24.137C18.2958 24.1318 18.2958 24.1266 18.2958 24.1214C18.2958 24.1162 18.2958 24.1111 18.2958 24.1059C18.2958 24.1007 18.2958 24.0955 18.2958 24.0903C18.2958 24.0851 18.2958 24.0799 18.2958 24.0748C18.2958 24.0696 18.2958 24.0644 18.2958 24.0592C18.2958 24.054 18.2958 24.0489 18.2958 24.0437C18.2958 24.0385 18.2958 24.0333 18.2958 24.0282C18.2958 24.023 18.2958 24.0178 18.2958 24.0127C18.2958 24.0075 18.2958 24.0023 18.2958 23.9972C18.2958 23.992 18.2958 23.9868 18.2958 23.9817C18.2958 23.9765 18.2958 23.9713 18.2958 23.9662C18.2958 23.961 18.2958 23.9559 18.2958 23.9507C18.2958 23.9455 18.2958 23.9404 18.2958 23.9352C18.2958 23.9301 18.2958 23.9249 18.2958 23.9198C18.2958 23.9146 18.2958 23.9095 18.2958 23.9043C18.2958 23.8992 18.2958 23.894 18.2958 23.8889C18.2958 23.8837 18.2958 23.8786 18.2958 23.8734C18.2958 23.8683 18.2958 23.8631 18.2958 23.858C18.2958 23.8528 18.2958 23.8477 18.2958 23.8426C18.2958 23.8374 18.2958 23.8323 18.2958 23.8271C18.2958 23.822 18.2958 23.8169 18.2958 23.8117C18.2958 23.8066 18.2958 23.8015 18.2958 23.7963C18.2958 23.7912 18.2958 23.7861 18.2958 23.7809C18.2958 23.7758 18.2958 23.7707 18.2958 23.7655C18.2958 23.7604 18.2958 23.7553 18.2958 23.7502C18.2958 23.745 18.2958 23.7399 18.2958 23.7348C18.2958 23.7297 18.2958 23.7245 18.2958 23.7194C18.2958 23.7143 18.2958 23.7092 18.2958 23.704C18.2958 23.6989 18.2958 23.6938 18.2958 23.6887C18.2958 23.6836 18.2958 23.6784 18.2958 23.6733C18.2958 23.6682 18.2958 23.6631 18.2958 23.658C18.2958 23.6529 18.2958 23.6478 18.2958 23.6426C18.2958 23.6375 18.2958 23.6324 18.2958 23.6273C18.2958 23.6222 18.2958 23.6171 18.2958 23.612C18.2958 23.6069 18.2958 23.6018 18.2958 23.5966C18.2958 23.5915 18.2958 23.5864 18.2958 23.5813C18.2958 23.5762 18.2958 23.5711 18.2958 23.566C18.2958 23.5609 18.2958 23.5558 18.2958 23.5507C18.2958 23.5456 18.2958 23.5405 18.2958 23.5354C18.2958 23.5303 18.2958 23.5252 18.2958 23.5201C18.2958 23.515 18.2958 23.5099 18.2958 23.5048C18.2958 23.4997 18.2958 23.4946 18.2958 23.4895C18.2958 23.4844 18.2958 23.4793 18.2958 23.4742C18.2958 23.4691 18.2958 23.464 18.2958 23.4589C18.2958 23.4538 18.2958 23.4487 18.2958 23.4436C18.2958 23.4386 18.2958 23.4335 18.2958 23.4284C18.2958 23.4233 18.2958 23.4182 18.2958 23.4131C18.2958 23.408 18.2958 23.4029 18.2958 23.3978C18.2958 23.3927 18.2958 23.3876 18.2958 23.3826C18.2958 23.3775 18.2958 23.3724 18.2958 23.3673C18.2958 23.3622 18.2958 23.3571 18.2958 23.352C18.2958 23.347 18.2958 23.3419 18.2958 23.3368C18.2958 23.3317 18.2958 23.3266 18.2958 23.3215C18.2958 23.3164 18.2958 23.3114 18.2958 23.3063C18.2958 23.3012 18.2958 23.2961 18.2958 23.291C18.2958 23.2859 18.2958 23.2809 18.2958 23.2758C18.2958 23.2707 18.2958 23.2656 18.2958 23.2605C18.2958 23.2555 18.2958 23.2504 18.2958 23.2453C18.2958 23.2402 18.2958 23.2351 18.2958 23.2301C18.2958 23.225 18.2958 23.2199 18.2958 23.2148C18.2958 23.2097 18.2958 23.2047 18.2958 23.1996C18.2958 23.1945 18.2958 23.1894 18.2958 23.1843C18.2958 23.1793 18.2958 23.1742 18.2958 23.1691C18.2958 23.164 18.2958 23.159 18.2958 23.1539C18.2958 23.1488 18.2958 23.1437 18.2958 23.1387C18.2958 23.1336 18.2958 23.1285 18.2958 23.1234C18.2958 23.1184 18.2958 23.1133 18.2958 23.1082C18.2958 23.1031 18.2958 23.098 18.2958 23.093C18.2958 23.0879 18.2958 23.0828 18.2958 23.0777C18.2958 23.0727 18.2958 23.0676 18.2958 23.0625C18.2958 23.0574 18.2958 23.0524 18.2958 23.0473C18.2958 23.0422 18.2958 23.0371 18.2958 23.0321C18.2958 23.027 18.2958 23.0219 18.2958 23.0169C18.2958 23.0118 18.2958 23.0067 18.2958 23.0016C18.2958 22.9966 18.2958 22.9915 18.2958 22.9864C18.2958 22.9813 18.2958 22.9763 18.2958 22.9712C18.2958 22.9661 18.2958 22.961 18.2958 22.956C18.2958 22.9509 18.2958 22.9458 18.2958 22.9407C18.2958 22.9357 18.2958 22.9306 18.2958 22.9255C18.2958 22.9204 18.2958 22.9154 18.2958 22.9103C18.2958 22.9052 18.2958 22.9001 18.2958 22.8951C18.2958 22.89 18.2958 22.8849 18.2958 22.8798C18.2958 22.8748 18.2958 22.8697 18.2958 22.8646C18.2958 22.8595 18.2958 22.8544 18.2958 22.8494C18.2958 22.8443 18.2958 22.8392 18.2958 22.8341C18.2958 22.8291 18.2958 22.824 18.2958 22.8189C18.2958 22.8138 18.2958 22.8088 18.2958 22.8037C18.2958 22.7986 18.2958 22.7935 18.2958 22.7884C18.2958 22.7834 18.2958 22.7783 18.2958 22.7732C18.2958 22.7681 18.2958 22.763 18.2958 22.758C18.2958 22.7529 18.2958 22.7478 18.2958 22.7427C18.2958 22.7376 18.2958 22.7326 18.2958 22.7275C18.2958 22.7224 18.2958 22.7173 18.2958 22.7122C18.2958 22.7071 18.2958 22.7021 18.2958 22.697C18.2958 22.6919 18.2958 22.6868 18.2958 22.6817C18.2958 22.6766 18.2958 22.6716 18.2958 22.6665C18.2958 22.6614 18.2958 22.6563 18.2958 22.6512C18.2958 22.6461 18.2958 22.641 18.2958 22.636C18.2958 22.6309 18.2958 22.6258 18.2958 22.6207C18.2958 22.6156 18.2958 22.6105 18.2958 22.6054C18.2958 22.6003 18.2958 22.5952 18.2958 22.5902C18.2958 22.5851 18.2958 22.58 18.2958 22.5749C18.2958 22.5698 18.2958 22.5647 18.2958 22.5596C18.2958 22.5545 18.2958 22.5494 18.2958 22.5443C18.2958 22.5392 18.2958 22.5341 18.2958 22.529C18.2958 22.5239 18.2958 22.5189 18.2958 22.5138C18.2958 22.5087 18.2958 22.5036 18.2958 22.4985C18.2958 22.4934 18.2958 22.4883 18.2958 22.4832C18.2958 22.4781 18.2958 22.473 18.2958 22.4679C18.2958 22.4628 18.2958 22.4577 18.2958 22.4526C18.2958 22.4475 18.2958 22.4424 18.2958 22.4372C18.2958 22.4321 18.2958 22.427 18.2958 22.4219C18.2958 22.4168 18.2958 22.4117 18.2958 22.4066C18.2958 22.4015 18.2958 22.3964 18.2958 22.3913C18.2958 22.3862 18.2958 22.3811 18.2958 22.376C18.2958 22.3708 18.2958 22.3657 18.2958 22.3606C18.2958 22.3555 18.2958 22.3504 18.2958 22.3453C18.2958 22.3402 18.2958 22.335 18.2958 22.3299C18.2958 22.3248 18.2958 22.3197 18.2958 22.3146C18.2958 22.3095 18.2958 22.3043 18.2958 22.2992C18.2958 22.2941 18.2958 22.289 18.2958 22.2838C18.2958 22.2787 18.2958 22.2736 18.2958 22.2685C18.2958 22.2634 18.2958 22.2582 18.2958 22.2531C18.2958 22.248 18.2958 22.2428 18.2958 22.2377C18.2958 22.2326 18.2958 22.2275 18.2958 22.2223C18.2958 22.2172 18.2958 22.2121 18.2958 22.2069C18.2958 22.2018 18.2958 22.1967 18.2958 22.1915C18.2958 22.1864 18.2958 22.1813 18.2958 22.1761C18.2958 22.171 18.2958 22.1658 18.2958 22.1607C18.2958 22.1556 18.2958 22.1504 18.2958 22.1453C18.2958 22.1401 18.2958 22.135 18.2958 22.1298C18.2958 22.1247 18.2958 22.1195 18.2958 22.1144C18.2958 22.1093 18.2958 22.1041 18.2958 22.099C18.2958 22.0938 18.2958 22.0886 18.2958 22.0835C18.2958 22.0783 18.2958 22.0732 18.2958 22.068C18.2958 22.0629 18.2958 22.0577 18.2958 22.0526C18.2958 22.0474 18.2958 22.0422 18.2958 22.0371C18.2958 22.0319 18.2958 22.0268 18.2958 22.0216C18.2958 22.0164 18.2958 22.0113 18.2958 22.0061C18.2958 22.0009 18.2958 21.9958 18.2958 21.9906C18.2958 21.9854 18.2958 21.9803 18.2958 21.9751C18.2958 21.9699 18.2958 21.9647 18.2958 21.9596C18.2958 21.9544 18.2958 21.9492 18.2958 21.944C18.2958 21.9389 18.2958 21.9337 18.2958 21.9285C18.2958 21.9233 18.2958 21.9181 18.2958 21.9129C18.2958 21.9078 18.2958 21.9026 18.2958 21.8974C18.2958 21.8922 18.2958 21.887 18.2958 21.8818C18.2958 21.8766 18.2958 21.8714 18.2958 21.8662C18.2958 21.861 18.2958 21.8558 18.2958 21.8507C18.2958 21.8455 18.2958 21.8403 18.2958 21.8351C18.2958 21.8299 18.2958 21.8247 18.2958 21.8194C18.2958 21.8142 18.2958 21.809 18.2958 21.8038C18.2958 21.7986 18.2958 21.7934 18.2958 21.7882C18.2958 21.783 18.2958 21.7778 18.2958 21.7726C18.2958 21.7674 18.2958 21.7621 18.2958 21.7569C18.2958 21.7517 18.2958 21.7465 18.2958 21.7413C18.2958 21.736 18.2958 21.7308 18.2958 21.7256C18.2958 21.7204 18.2958 21.7151 18.2958 21.7099C18.2958 21.7047 18.2958 21.6995 18.2958 21.6942C18.2958 21.689 18.2958 21.6838 18.2958 21.6785C18.2958 21.6733 18.2958 21.668 18.2958 21.6628C18.2958 21.6576 18.2958 21.6523 18.2958 21.6471C18.2958 21.6418 18.2958 21.6366 18.2958 21.6313C18.2958 21.6261 18.2958 21.6209 18.2958 21.6156C18.2958 21.6103 18.2958 21.6051 18.2958 21.5998C18.2958 21.5946 18.2958 21.5893 18.2958 21.5841C18.2958 21.5788 18.2958 21.5736 18.2958 21.5683C18.2958 21.563 18.2958 21.5578 18.2958 21.5525C18.2958 21.5472 18.2958 21.542 18.2958 21.5367C18.2958 21.5314 18.2958 21.5261 18.2958 21.5209C18.2958 21.5156 18.2958 21.5103 18.2958 21.505C18.2958 21.4998 18.2958 21.4945 18.2958 21.4892C18.2958 21.4839 18.2958 21.4786 18.2958 21.4733C18.2958 21.468 18.2958 21.4627 18.2958 21.4575C18.2958 21.4522 18.2958 21.4469 18.2958 21.4416C18.2958 21.4363 18.2958 21.431 18.2958 21.4257C18.2958 21.4204 18.2958 21.4151 18.2958 21.4098C18.2958 21.4045 18.2958 21.3992 18.2958 21.3938C18.2958 21.3885 18.2958 21.3832 18.2958 21.3779C18.2958 21.3726 18.2958 21.3673 18.2958 21.3619C18.2958 21.3566 18.2958 21.3513 18.2958 21.346C18.2958 21.3407 18.2958 21.3353 18.2958 21.33C18.2958 21.3247 18.2958 21.3193 18.2958 21.314C18.2958 21.3087 18.2958 21.3033 18.2958 21.298C18.2958 21.2927 18.2958 21.2873 18.2958 21.282C18.2958 21.2766 18.2958 21.2713 18.2958 21.2659C18.2958 21.2606 18.2958 21.2552 18.2958 21.2499C18.2958 21.2445 18.2958 21.2392 18.2958 21.2338C18.2958 21.2285 18.2958 21.2231 18.2958 21.2177C18.2958 21.2124 18.2958 21.207 18.2958 21.2017C18.2958 21.1963 18.2958 21.1909 18.2958 21.1855C18.2958 21.1802 18.2958 21.1748 18.2958 21.1694C18.2958 21.164 18.2958 21.1587 18.2958 21.1533C18.2958 21.1479 18.2958 21.1425 18.2958 21.1371C18.2958 21.1317 18.2958 21.1263 18.2958 21.1209C18.2958 21.1155 18.2958 21.1101 18.2958 21.1048C18.2958 21.0994 18.2958 21.094 18.2958 21.0885C18.2958 21.0831 18.2958 21.0777 18.2958 21.0723C18.2958 21.0669 18.2958 21.0615 18.2958 21.0561C18.2958 21.0507 18.2958 21.0453 18.2958 21.0398C18.2958 21.0344 18.2958 21.029 18.2958 21.0236C18.2958 21.0181 18.2958 21.0127 18.2958 21.0073C18.2958 21.0018 18.2958 20.9964 18.2958 20.991C18.2958 20.9855 18.2958 20.9801 18.2958 20.9747C18.2958 20.9692 18.2958 20.9638 18.2958 20.9583C18.2958 20.9529 18.2958 20.9474 18.2958 20.942C18.2958 20.9365 18.2958 20.931 18.2958 20.9256C18.2958 20.9201 18.2958 20.9147 18.2958 20.9092C18.2958 20.9037 18.2958 20.8983 18.2958 20.8928C18.2958 20.8873 18.2958 20.8818 18.2958 20.8764C18.2958 20.8709 18.2958 20.8654 18.2958 20.8599C18.2958 20.8544 18.2958 20.849 18.2958 20.8435C18.2958 20.838 18.2958 20.8325 18.2958 20.827C18.2958 20.8215 18.2958 20.816 18.2958 20.8105C18.2958 20.805 18.2958 20.7995 18.2958 20.794C18.2958 20.7885 18.2958 20.783 18.2958 20.7774C18.2958 20.7719 18.2958 20.7664 18.2958 20.7609C18.2958 20.7554 18.2958 20.7498 18.2958 20.7443C18.2958 20.7388 18.2958 20.7333 18.2958 20.7277C18.2958 20.7222 18.2958 20.7167 18.2958 20.7111C18.2958 20.7056 18.2958 20.7 18.2958 20.6945C18.2958 20.689 18.2958 20.6834 18.2958 20.6779C18.2958 20.6723 18.2958 20.6667 18.2958 20.6612C18.2958 20.6556 18.2958 20.6501 18.2958 20.6445C18.2958 20.6389 18.2958 20.6334 18.2958 20.6278C18.2958 20.6222 18.2958 20.6166 18.2958 20.6111C18.2958 20.6055 18.2958 20.5999 18.2958 20.5943C18.2958 20.5887 18.2958 20.5832 18.2958 20.5776C18.2958 20.572 18.2958 20.5664 18.2958 20.5608C18.2958 20.5552 18.2958 20.5496 18.2958 20.544C18.2958 20.5384 18.2958 20.5328 18.2958 20.5271C18.2958 20.5215 18.2958 20.5159 18.2958 20.5103C18.2958 20.5047 18.2958 20.4991 18.2958 20.4934C18.2958 20.4878 18.2958 20.4822 18.2958 20.4765C18.2958 20.4709 18.2958 20.4653 18.2958 20.4596C18.2958 20.454 18.2958 20.4484 18.2958 20.4427C18.2958 20.4371 18.2958 20.4314 18.2958 20.4258C18.2958 20.4201 18.2958 20.4144 18.2958 20.4088C18.2958 20.4031 18.2958 20.3975 18.2958 20.3918C18.2958 20.3861 18.2958 20.3805 18.2958 20.3748C18.2958 20.3691 18.2958 20.3634 18.2958 20.3577C18.2958 20.3521 18.2958 20.3464 18.2958 20.3407C18.2958 20.335 18.2958 20.3293 18.2958 20.3236C18.2958 20.3179 18.2958 20.3122 18.2958 20.3065C18.2958 20.3008 18.2958 20.2951 18.2958 20.2894C18.2958 20.2837 18.2958 20.2779 18.2958 20.2722C18.2958 20.2665 18.2958 20.2608 18.2958 20.2551C18.2958 20.2493 18.2958 20.2436 18.2958 20.2379C18.2958 20.2321 18.2958 20.2264 18.2958 20.2207C18.2958 20.2149 18.2958 20.2092 18.2958 20.2034C18.2958 20.1977 18.2958 20.1919 18.2958 20.1862C18.2958 20.1804 18.2958 20.1746 18.2958 20.1689C18.2958 20.1631 18.2958 20.1573 18.2958 20.1516C18.2958 20.1458 18.2958 20.14 18.2958 20.1342C18.2958 20.1285 18.2958 20.1227 18.2958 20.1169C18.2958 20.1111 18.2958 20.1053 18.2958 20.0995C18.2958 20.0937 18.2958 20.0879 18.2958 20.0821C18.2958 20.0763 18.2958 20.0705 18.2958 20.0647C18.2958 20.0589 18.2958 20.053 18.2958 20.0472C18.2958 20.0414 18.2958 20.0356 18.2958 20.0297C18.2958 20.0239 18.2958 20.0181 18.2958 20.0123C18.2958 20.0064 18.2958 20.0006 18.2958 19.9947C18.2958 19.9889 18.2958 19.983 18.2958 19.9772C18.2958 19.9713 18.2958 19.9655 18.2958 19.9596C18.2958 19.9537 18.2958 19.9479 18.2958 19.942C18.2958 19.9361 18.2958 19.9303 18.2958 19.9244C18.2958 19.9185 18.2958 19.9126 18.2958 19.9067C18.2958 19.9009 18.2958 19.895 18.2958 19.8891C18.2958 19.8832 18.2958 19.8773 18.2958 19.8714C18.2958 19.8655 18.2958 19.8596 18.2958 19.8536C18.2958 19.8477 18.2958 19.8418 18.2958 19.8359C18.2958 19.83 18.2958 19.8241 18.2958 19.8181C18.2958 19.8122 18.2958 19.8063 18.2958 19.8003C18.2958 19.7944 18.2958 19.7884 18.2958 19.7825C18.2958 19.7766 18.2958 19.7706 18.2958 19.7646C18.2958 19.7587 18.2958 19.7527 18.2958 19.7468C18.2958 19.7408 18.2958 19.7348 18.2958 19.7289C18.2958 19.7229 18.2958 19.7169 18.2958 19.7109C18.2958 19.7049 18.2958 19.699 18.2958 19.693C18.2958 19.687 18.2958 19.681 18.2958 19.675C18.2958 19.669 18.2958 19.663 18.2958 19.657C18.2958 19.651 18.2958 19.645 18.2958 19.6389C18.2958 19.6329 18.2958 19.6269 18.2958 19.6209C18.2958 19.6148 18.2958 19.6088 18.2958 19.6028C18.2958 19.5967 18.2958 19.5907 18.2958 19.5847C18.2958 19.5786 18.2958 19.5726 18.2958 19.5665C18.2958 19.5605 18.2958 19.5544 18.2958 19.5483C18.2958 19.5423 18.2958 19.5362 18.2958 19.5301C18.2958 19.5241 18.2958 19.518 18.2958 19.5119C18.2958 19.5058 18.2958 19.4997 18.2958 19.4936C18.2958 19.4875 18.2958 19.4814 18.2958 19.4753C18.2958 19.4692 18.2958 19.4631 18.2958 19.457C18.2958 19.4509 18.2958 19.4448 18.2958 19.4387C18.2958 19.4326 18.2958 19.4264 18.2958 19.4203C18.2958 19.4142 18.2958 19.408 18.2958 19.4019C18.2958 19.3958 18.2958 19.3896 18.2958 19.3835C18.2958 19.3773 18.2958 19.3712 18.2958 19.365C18.2958 19.3588 18.2958 19.3527 18.2958 19.3465C18.2958 19.3403 18.2958 19.3342 18.2958 19.328C18.2958 19.3218 18.2958 19.3156 18.2958 19.3094C18.2958 19.3033 18.2958 19.2971 18.2958 19.2909C18.2958 19.2847 18.2958 19.2785 18.2958 19.2723C18.2958 19.2661 18.2958 19.2598 18.2958 19.2536C18.2958 19.2474 18.2958 19.2412 18.2958 19.235C18.2958 19.2287 18.2958 19.2225 18.2958 19.2163C18.2958 19.21 18.2958 19.2038 18.2958 19.1975C18.2958 19.1913 18.2958 19.185 18.2958 19.1788C18.2958 19.1725 18.2958 19.1663 18.2958 19.16C18.2958 19.1537 18.2958 19.1474 18.2958 19.1412C18.2958 19.1349 18.2958 19.1286 18.2958 19.1223C18.2958 19.116 18.2958 19.1097 18.2958 19.1034C18.2958 19.0971 18.2958 19.0908 18.2958 19.0845C18.2958 19.0782 18.2958 19.0719 18.2958 19.0656C18.2958 19.0593 18.2958 19.0529 18.2958 19.0466C18.2958 19.0403 18.2958 19.0339 18.2958 19.0276C18.2958 19.0213 18.2958 19.0149 18.2958 19.0086C18.2958 19.0022 18.2958 18.9958 18.2958 18.9895C18.2958 18.9831 18.2958 18.9768 18.2958 18.9704C18.2958 18.964 18.2958 18.9576 18.2958 18.9513C18.2958 18.9449 18.2958 18.9385 18.2958 18.9321C18.2958 18.9257 18.2958 18.9193 18.2958 18.9129C18.2958 18.9065 18.2958 18.9001 18.2958 18.8937C18.2958 18.8872 18.2958 18.8808 18.2958 18.8744C18.2958 18.868 18.2958 18.8615 18.2958 18.8551C18.2958 18.8487 18.2958 18.8422 18.2958 18.8358C18.2958 18.8293 18.2958 18.8229 18.2958 18.8164C18.2958 18.81 18.2958 18.8035 18.2958 18.797C18.2958 18.7906 18.2958 18.7841 18.2958 18.7776C18.2958 18.7711 18.2958 18.7646 18.2958 18.7581C18.2958 18.7516 18.2958 18.7451 18.2958 18.7386H16.7049C16.7049 18.7451 16.7049 18.7516 16.7049 18.7581C16.7049 18.7646 16.7049 18.7711 16.7049 18.7776C16.7049 18.7841 16.7049 18.7906 16.7049 18.797C16.7049 18.8035 16.7049 18.81 16.7049 18.8164C16.7049 18.8229 16.7049 18.8293 16.7049 18.8358C16.7049 18.8422 16.7049 18.8487 16.7049 18.8551C16.7049 18.8615 16.7049 18.868 16.7049 18.8744C16.7049 18.8808 16.7049 18.8872 16.7049 18.8937C16.7049 18.9001 16.7049 18.9065 16.7049 18.9129C16.7049 18.9193 16.7049 18.9257 16.7049 18.9321C16.7049 18.9385 16.7049 18.9449 16.7049 18.9513C16.7049 18.9576 16.7049 18.964 16.7049 18.9704C16.7049 18.9768 16.7049 18.9831 16.7049 18.9895C16.7049 18.9958 16.7049 19.0022 16.7049 19.0086C16.7049 19.0149 16.7049 19.0213 16.7049 19.0276C16.7049 19.0339 16.7049 19.0403 16.7049 19.0466C16.7049 19.0529 16.7049 19.0593 16.7049 19.0656C16.7049 19.0719 16.7049 19.0782 16.7049 19.0845C16.7049 19.0908 16.7049 19.0971 16.7049 19.1034C16.7049 19.1097 16.7049 19.116 16.7049 19.1223C16.7049 19.1286 16.7049 19.1349 16.7049 19.1412C16.7049 19.1474 16.7049 19.1537 16.7049 19.16C16.7049 19.1663 16.7049 19.1725 16.7049 19.1788C16.7049 19.185 16.7049 19.1913 16.7049 19.1975C16.7049 19.2038 16.7049 19.21 16.7049 19.2163C16.7049 19.2225 16.7049 19.2287 16.7049 19.235C16.7049 19.2412 16.7049 19.2474 16.7049 19.2536C16.7049 19.2598 16.7049 19.2661 16.7049 19.2723C16.7049 19.2785 16.7049 19.2847 16.7049 19.2909C16.7049 19.2971 16.7049 19.3033 16.7049 19.3094C16.7049 19.3156 16.7049 19.3218 16.7049 19.328C16.7049 19.3342 16.7049 19.3403 16.7049 19.3465C16.7049 19.3527 16.7049 19.3588 16.7049 19.365C16.7049 19.3712 16.7049 19.3773 16.7049 19.3835C16.7049 19.3896 16.7049 19.3958 16.7049 19.4019C16.7049 19.408 16.7049 19.4142 16.7049 19.4203C16.7049 19.4264 16.7049 19.4326 16.7049 19.4387C16.7049 19.4448 16.7049 19.4509 16.7049 19.457C16.7049 19.4631 16.7049 19.4692 16.7049 19.4753C16.7049 19.4814 16.7049 19.4875 16.7049 19.4936C16.7049 19.4997 16.7049 19.5058 16.7049 19.5119C16.7049 19.518 16.7049 19.5241 16.7049 19.5301C16.7049 19.5362 16.7049 19.5423 16.7049 19.5483C16.7049 19.5544 16.7049 19.5605 16.7049 19.5665C16.7049 19.5726 16.7049 19.5786 16.7049 19.5847C16.7049 19.5907 16.7049 19.5967 16.7049 19.6028C16.7049 19.6088 16.7049 19.6148 16.7049 19.6209C16.7049 19.6269 16.7049 19.6329 16.7049 19.6389C16.7049 19.645 16.7049 19.651 16.7049 19.657C16.7049 19.663 16.7049 19.669 16.7049 19.675C16.7049 19.681 16.7049 19.687 16.7049 19.693C16.7049 19.699 16.7049 19.7049 16.7049 19.7109C16.7049 19.7169 16.7049 19.7229 16.7049 19.7289C16.7049 19.7348 16.7049 19.7408 16.7049 19.7468C16.7049 19.7527 16.7049 19.7587 16.7049 19.7646C16.7049 19.7706 16.7049 19.7766 16.7049 19.7825C16.7049 19.7884 16.7049 19.7944 16.7049 19.8003C16.7049 19.8063 16.7049 19.8122 16.7049 19.8181C16.7049 19.8241 16.7049 19.83 16.7049 19.8359C16.7049 19.8418 16.7049 19.8477 16.7049 19.8536C16.7049 19.8596 16.7049 19.8655 16.7049 19.8714C16.7049 19.8773 16.7049 19.8832 16.7049 19.8891C16.7049 19.895 16.7049 19.9009 16.7049 19.9067C16.7049 19.9126 16.7049 19.9185 16.7049 19.9244C16.7049 19.9303 16.7049 19.9361 16.7049 19.942C16.7049 19.9479 16.7049 19.9537 16.7049 19.9596C16.7049 19.9655 16.7049 19.9713 16.7049 19.9772C16.7049 19.983 16.7049 19.9889 16.7049 19.9947C16.7049 20.0006 16.7049 20.0064 16.7049 20.0123C16.7049 20.0181 16.7049 20.0239 16.7049 20.0297C16.7049 20.0356 16.7049 20.0414 16.7049 20.0472C16.7049 20.053 16.7049 20.0589 16.7049 20.0647C16.7049 20.0705 16.7049 20.0763 16.7049 20.0821C16.7049 20.0879 16.7049 20.0937 16.7049 20.0995C16.7049 20.1053 16.7049 20.1111 16.7049 20.1169C16.7049 20.1227 16.7049 20.1285 16.7049 20.1342C16.7049 20.14 16.7049 20.1458 16.7049 20.1516C16.7049 20.1573 16.7049 20.1631 16.7049 20.1689C16.7049 20.1746 16.7049 20.1804 16.7049 20.1862C16.7049 20.1919 16.7049 20.1977 16.7049 20.2034C16.7049 20.2092 16.7049 20.2149 16.7049 20.2207C16.7049 20.2264 16.7049 20.2321 16.7049 20.2379C16.7049 20.2436 16.7049 20.2493 16.7049 20.2551C16.7049 20.2608 16.7049 20.2665 16.7049 20.2722C16.7049 20.2779 16.7049 20.2837 16.7049 20.2894C16.7049 20.2951 16.7049 20.3008 16.7049 20.3065C16.7049 20.3122 16.7049 20.3179 16.7049 20.3236C16.7049 20.3293 16.7049 20.335 16.7049 20.3407C16.7049 20.3464 16.7049 20.3521 16.7049 20.3577C16.7049 20.3634 16.7049 20.3691 16.7049 20.3748C16.7049 20.3805 16.7049 20.3861 16.7049 20.3918C16.7049 20.3975 16.7049 20.4031 16.7049 20.4088C16.7049 20.4144 16.7049 20.4201 16.7049 20.4258C16.7049 20.4314 16.7049 20.4371 16.7049 20.4427C16.7049 20.4484 16.7049 20.454 16.7049 20.4596C16.7049 20.4653 16.7049 20.4709 16.7049 20.4765C16.7049 20.4822 16.7049 20.4878 16.7049 20.4934C16.7049 20.4991 16.7049 20.5047 16.7049 20.5103C16.7049 20.5159 16.7049 20.5215 16.7049 20.5271C16.7049 20.5328 16.7049 20.5384 16.7049 20.544C16.7049 20.5496 16.7049 20.5552 16.7049 20.5608C16.7049 20.5664 16.7049 20.572 16.7049 20.5776C16.7049 20.5832 16.7049 20.5887 16.7049 20.5943C16.7049 20.5999 16.7049 20.6055 16.7049 20.6111C16.7049 20.6166 16.7049 20.6222 16.7049 20.6278C16.7049 20.6334 16.7049 20.6389 16.7049 20.6445C16.7049 20.6501 16.7049 20.6556 16.7049 20.6612C16.7049 20.6667 16.7049 20.6723 16.7049 20.6779C16.7049 20.6834 16.7049 20.689 16.7049 20.6945C16.7049 20.7 16.7049 20.7056 16.7049 20.7111C16.7049 20.7167 16.7049 20.7222 16.7049 20.7277C16.7049 20.7333 16.7049 20.7388 16.7049 20.7443C16.7049 20.7498 16.7049 20.7554 16.7049 20.7609C16.7049 20.7664 16.7049 20.7719 16.7049 20.7774C16.7049 20.783 16.7049 20.7885 16.7049 20.794C16.7049 20.7995 16.7049 20.805 16.7049 20.8105C16.7049 20.816 16.7049 20.8215 16.7049 20.827C16.7049 20.8325 16.7049 20.838 16.7049 20.8435C16.7049 20.849 16.7049 20.8544 16.7049 20.8599C16.7049 20.8654 16.7049 20.8709 16.7049 20.8764C16.7049 20.8818 16.7049 20.8873 16.7049 20.8928C16.7049 20.8983 16.7049 20.9037 16.7049 20.9092C16.7049 20.9147 16.7049 20.9201 16.7049 20.9256C16.7049 20.931 16.7049 20.9365 16.7049 20.942C16.7049 20.9474 16.7049 20.9529 16.7049 20.9583C16.7049 20.9638 16.7049 20.9692 16.7049 20.9747C16.7049 20.9801 16.7049 20.9855 16.7049 20.991C16.7049 20.9964 16.7049 21.0018 16.7049 21.0073C16.7049 21.0127 16.7049 21.0181 16.7049 21.0236C16.7049 21.029 16.7049 21.0344 16.7049 21.0398C16.7049 21.0453 16.7049 21.0507 16.7049 21.0561C16.7049 21.0615 16.7049 21.0669 16.7049 21.0723C16.7049 21.0777 16.7049 21.0831 16.7049 21.0885C16.7049 21.094 16.7049 21.0994 16.7049 21.1048C16.7049 21.1101 16.7049 21.1155 16.7049 21.1209C16.7049 21.1263 16.7049 21.1317 16.7049 21.1371C16.7049 21.1425 16.7049 21.1479 16.7049 21.1533C16.7049 21.1587 16.7049 21.164 16.7049 21.1694C16.7049 21.1748 16.7049 21.1802 16.7049 21.1855C16.7049 21.1909 16.7049 21.1963 16.7049 21.2017C16.7049 21.207 16.7049 21.2124 16.7049 21.2177C16.7049 21.2231 16.7049 21.2285 16.7049 21.2338C16.7049 21.2392 16.7049 21.2445 16.7049 21.2499C16.7049 21.2552 16.7049 21.2606 16.7049 21.2659C16.7049 21.2713 16.7049 21.2766 16.7049 21.282C16.7049 21.2873 16.7049 21.2927 16.7049 21.298C16.7049 21.3033 16.7049 21.3087 16.7049 21.314C16.7049 21.3193 16.7049 21.3247 16.7049 21.33C16.7049 21.3353 16.7049 21.3407 16.7049 21.346C16.7049 21.3513 16.7049 21.3566 16.7049 21.3619C16.7049 21.3673 16.7049 21.3726 16.7049 21.3779C16.7049 21.3832 16.7049 21.3885 16.7049 21.3938C16.7049 21.3992 16.7049 21.4045 16.7049 21.4098C16.7049 21.4151 16.7049 21.4204 16.7049 21.4257C16.7049 21.431 16.7049 21.4363 16.7049 21.4416C16.7049 21.4469 16.7049 21.4522 16.7049 21.4575C16.7049 21.4627 16.7049 21.468 16.7049 21.4733C16.7049 21.4786 16.7049 21.4839 16.7049 21.4892C16.7049 21.4945 16.7049 21.4998 16.7049 21.505C16.7049 21.5103 16.7049 21.5156 16.7049 21.5209C16.7049 21.5261 16.7049 21.5314 16.7049 21.5367C16.7049 21.542 16.7049 21.5472 16.7049 21.5525C16.7049 21.5578 16.7049 21.563 16.7049 21.5683C16.7049 21.5736 16.7049 21.5788 16.7049 21.5841C16.7049 21.5893 16.7049 21.5946 16.7049 21.5998C16.7049 21.6051 16.7049 21.6103 16.7049 21.6156C16.7049 21.6209 16.7049 21.6261 16.7049 21.6313C16.7049 21.6366 16.7049 21.6418 16.7049 21.6471C16.7049 21.6523 16.7049 21.6576 16.7049 21.6628C16.7049 21.668 16.7049 21.6733 16.7049 21.6785C16.7049 21.6838 16.7049 21.689 16.7049 21.6942C16.7049 21.6995 16.7049 21.7047 16.7049 21.7099C16.7049 21.7151 16.7049 21.7204 16.7049 21.7256C16.7049 21.7308 16.7049 21.736 16.7049 21.7413C16.7049 21.7465 16.7049 21.7517 16.7049 21.7569C16.7049 21.7621 16.7049 21.7674 16.7049 21.7726C16.7049 21.7778 16.7049 21.783 16.7049 21.7882C16.7049 21.7934 16.7049 21.7986 16.7049 21.8038C16.7049 21.809 16.7049 21.8142 16.7049 21.8194C16.7049 21.8247 16.7049 21.8299 16.7049 21.8351C16.7049 21.8403 16.7049 21.8455 16.7049 21.8507C16.7049 21.8558 16.7049 21.861 16.7049 21.8662C16.7049 21.8714 16.7049 21.8766 16.7049 21.8818C16.7049 21.887 16.7049 21.8922 16.7049 21.8974C16.7049 21.9026 16.7049 21.9078 16.7049 21.9129C16.7049 21.9181 16.7049 21.9233 16.7049 21.9285C16.7049 21.9337 16.7049 21.9389 16.7049 21.944C16.7049 21.9492 16.7049 21.9544 16.7049 21.9596C16.7049 21.9647 16.7049 21.9699 16.7049 21.9751C16.7049 21.9803 16.7049 21.9854 16.7049 21.9906C16.7049 21.9958 16.7049 22.0009 16.7049 22.0061C16.7049 22.0113 16.7049 22.0164 16.7049 22.0216C16.7049 22.0268 16.7049 22.0319 16.7049 22.0371C16.7049 22.0422 16.7049 22.0474 16.7049 22.0526C16.7049 22.0577 16.7049 22.0629 16.7049 22.068C16.7049 22.0732 16.7049 22.0783 16.7049 22.0835C16.7049 22.0886 16.7049 22.0938 16.7049 22.099C16.7049 22.1041 16.7049 22.1093 16.7049 22.1144C16.7049 22.1195 16.7049 22.1247 16.7049 22.1298C16.7049 22.135 16.7049 22.1401 16.7049 22.1453C16.7049 22.1504 16.7049 22.1556 16.7049 22.1607C16.7049 22.1658 16.7049 22.171 16.7049 22.1761C16.7049 22.1813 16.7049 22.1864 16.7049 22.1915C16.7049 22.1967 16.7049 22.2018 16.7049 22.2069C16.7049 22.2121 16.7049 22.2172 16.7049 22.2223C16.7049 22.2275 16.7049 22.2326 16.7049 22.2377C16.7049 22.2428 16.7049 22.248 16.7049 22.2531C16.7049 22.2582 16.7049 22.2634 16.7049 22.2685C16.7049 22.2736 16.7049 22.2787 16.7049 22.2838C16.7049 22.289 16.7049 22.2941 16.7049 22.2992C16.7049 22.3043 16.7049 22.3095 16.7049 22.3146C16.7049 22.3197 16.7049 22.3248 16.7049 22.3299C16.7049 22.335 16.7049 22.3402 16.7049 22.3453C16.7049 22.3504 16.7049 22.3555 16.7049 22.3606C16.7049 22.3657 16.7049 22.3708 16.7049 22.376C16.7049 22.3811 16.7049 22.3862 16.7049 22.3913C16.7049 22.3964 16.7049 22.4015 16.7049 22.4066C16.7049 22.4117 16.7049 22.4168 16.7049 22.4219C16.7049 22.427 16.7049 22.4321 16.7049 22.4372C16.7049 22.4424 16.7049 22.4475 16.7049 22.4526C16.7049 22.4577 16.7049 22.4628 16.7049 22.4679C16.7049 22.473 16.7049 22.4781 16.7049 22.4832C16.7049 22.4883 16.7049 22.4934 16.7049 22.4985C16.7049 22.5036 16.7049 22.5087 16.7049 22.5138C16.7049 22.5189 16.7049 22.5239 16.7049 22.529C16.7049 22.5341 16.7049 22.5392 16.7049 22.5443C16.7049 22.5494 16.7049 22.5545 16.7049 22.5596C16.7049 22.5647 16.7049 22.5698 16.7049 22.5749C16.7049 22.58 16.7049 22.5851 16.7049 22.5902C16.7049 22.5952 16.7049 22.6003 16.7049 22.6054C16.7049 22.6105 16.7049 22.6156 16.7049 22.6207C16.7049 22.6258 16.7049 22.6309 16.7049 22.636C16.7049 22.641 16.7049 22.6461 16.7049 22.6512C16.7049 22.6563 16.7049 22.6614 16.7049 22.6665C16.7049 22.6716 16.7049 22.6766 16.7049 22.6817C16.7049 22.6868 16.7049 22.6919 16.7049 22.697C16.7049 22.7021 16.7049 22.7071 16.7049 22.7122C16.7049 22.7173 16.7049 22.7224 16.7049 22.7275C16.7049 22.7326 16.7049 22.7376 16.7049 22.7427C16.7049 22.7478 16.7049 22.7529 16.7049 22.758C16.7049 22.763 16.7049 22.7681 16.7049 22.7732C16.7049 22.7783 16.7049 22.7834 16.7049 22.7884C16.7049 22.7935 16.7049 22.7986 16.7049 22.8037C16.7049 22.8088 16.7049 22.8138 16.7049 22.8189C16.7049 22.824 16.7049 22.8291 16.7049 22.8341C16.7049 22.8392 16.7049 22.8443 16.7049 22.8494C16.7049 22.8544 16.7049 22.8595 16.7049 22.8646C16.7049 22.8697 16.7049 22.8748 16.7049 22.8798C16.7049 22.8849 16.7049 22.89 16.7049 22.8951C16.7049 22.9001 16.7049 22.9052 16.7049 22.9103C16.7049 22.9154 16.7049 22.9204 16.7049 22.9255C16.7049 22.9306 16.7049 22.9357 16.7049 22.9407C16.7049 22.9458 16.7049 22.9509 16.7049 22.956C16.7049 22.961 16.7049 22.9661 16.7049 22.9712C16.7049 22.9763 16.7049 22.9813 16.7049 22.9864C16.7049 22.9915 16.7049 22.9966 16.7049 23.0016C16.7049 23.0067 16.7049 23.0118 16.7049 23.0169C16.7049 23.0219 16.7049 23.027 16.7049 23.0321C16.7049 23.0371 16.7049 23.0422 16.7049 23.0473C16.7049 23.0524 16.7049 23.0574 16.7049 23.0625C16.7049 23.0676 16.7049 23.0727 16.7049 23.0777C16.7049 23.0828 16.7049 23.0879 16.7049 23.093C16.7049 23.098 16.7049 23.1031 16.7049 23.1082C16.7049 23.1133 16.7049 23.1184 16.7049 23.1234C16.7049 23.1285 16.7049 23.1336 16.7049 23.1387C16.7049 23.1437 16.7049 23.1488 16.7049 23.1539C16.7049 23.159 16.7049 23.164 16.7049 23.1691C16.7049 23.1742 16.7049 23.1793 16.7049 23.1843C16.7049 23.1894 16.7049 23.1945 16.7049 23.1996C16.7049 23.2047 16.7049 23.2097 16.7049 23.2148C16.7049 23.2199 16.7049 23.225 16.7049 23.2301C16.7049 23.2351 16.7049 23.2402 16.7049 23.2453C16.7049 23.2504 16.7049 23.2555 16.7049 23.2605C16.7049 23.2656 16.7049 23.2707 16.7049 23.2758C16.7049 23.2809 16.7049 23.2859 16.7049 23.291C16.7049 23.2961 16.7049 23.3012 16.7049 23.3063C16.7049 23.3114 16.7049 23.3164 16.7049 23.3215C16.7049 23.3266 16.7049 23.3317 16.7049 23.3368C16.7049 23.3419 16.7049 23.347 16.7049 23.352C16.7049 23.3571 16.7049 23.3622 16.7049 23.3673C16.7049 23.3724 16.7049 23.3775 16.7049 23.3826C16.7049 23.3876 16.7049 23.3927 16.7049 23.3978C16.7049 23.4029 16.7049 23.408 16.7049 23.4131C16.7049 23.4182 16.7049 23.4233 16.7049 23.4284C16.7049 23.4335 16.7049 23.4386 16.7049 23.4436C16.7049 23.4487 16.7049 23.4538 16.7049 23.4589C16.7049 23.464 16.7049 23.4691 16.7049 23.4742C16.7049 23.4793 16.7049 23.4844 16.7049 23.4895C16.7049 23.4946 16.7049 23.4997 16.7049 23.5048C16.7049 23.5099 16.7049 23.515 16.7049 23.5201C16.7049 23.5252 16.7049 23.5303 16.7049 23.5354C16.7049 23.5405 16.7049 23.5456 16.7049 23.5507C16.7049 23.5558 16.7049 23.5609 16.7049 23.566C16.7049 23.5711 16.7049 23.5762 16.7049 23.5813C16.7049 23.5864 16.7049 23.5915 16.7049 23.5966C16.7049 23.6018 16.7049 23.6069 16.7049 23.612C16.7049 23.6171 16.7049 23.6222 16.7049 23.6273C16.7049 23.6324 16.7049 23.6375 16.7049 23.6426C16.7049 23.6478 16.7049 23.6529 16.7049 23.658C16.7049 23.6631 16.7049 23.6682 16.7049 23.6733C16.7049 23.6784 16.7049 23.6836 16.7049 23.6887C16.7049 23.6938 16.7049 23.6989 16.7049 23.704C16.7049 23.7092 16.7049 23.7143 16.7049 23.7194C16.7049 23.7245 16.7049 23.7297 16.7049 23.7348C16.7049 23.7399 16.7049 23.745 16.7049 23.7502C16.7049 23.7553 16.7049 23.7604 16.7049 23.7655C16.7049 23.7707 16.7049 23.7758 16.7049 23.7809C16.7049 23.7861 16.7049 23.7912 16.7049 23.7963C16.7049 23.8015 16.7049 23.8066 16.7049 23.8117C16.7049 23.8169 16.7049 23.822 16.7049 23.8271C16.7049 23.8323 16.7049 23.8374 16.7049 23.8426C16.7049 23.8477 16.7049 23.8528 16.7049 23.858C16.7049 23.8631 16.7049 23.8683 16.7049 23.8734C16.7049 23.8786 16.7049 23.8837 16.7049 23.8889C16.7049 23.894 16.7049 23.8992 16.7049 23.9043C16.7049 23.9095 16.7049 23.9146 16.7049 23.9198C16.7049 23.9249 16.7049 23.9301 16.7049 23.9352C16.7049 23.9404 16.7049 23.9455 16.7049 23.9507C16.7049 23.9559 16.7049 23.961 16.7049 23.9662C16.7049 23.9713 16.7049 23.9765 16.7049 23.9817C16.7049 23.9868 16.7049 23.992 16.7049 23.9972C16.7049 24.0023 16.7049 24.0075 16.7049 24.0127C16.7049 24.0178 16.7049 24.023 16.7049 24.0282C16.7049 24.0333 16.7049 24.0385 16.7049 24.0437C16.7049 24.0489 16.7049 24.054 16.7049 24.0592C16.7049 24.0644 16.7049 24.0696 16.7049 24.0748C16.7049 24.0799 16.7049 24.0851 16.7049 24.0903C16.7049 24.0955 16.7049 24.1007 16.7049 24.1059C16.7049 24.1111 16.7049 24.1162 16.7049 24.1214C16.7049 24.1266 16.7049 24.1318 16.7049 24.137C16.7049 24.1422 16.7049 24.1474 16.7049 24.1526C16.7049 24.1578 16.7049 24.163 16.7049 24.1682C16.7049 24.1734 16.7049 24.1786 16.7049 24.1838C16.7049 24.189 16.7049 24.1942 16.7049 24.1994C16.7049 24.2046 16.7049 24.2098 16.7049 24.215C16.7049 24.2203 16.7049 24.2255 16.7049 24.2307C16.7049 24.2359 16.7049 24.2411 16.7049 24.2463C16.7049 24.2516 16.7049 24.2568 16.7049 24.262C16.7049 24.2672 16.7049 24.2724 16.7049 24.2777C16.7049 24.2829 16.7049 24.2881 16.7049 24.2933C16.7049 24.2986 16.7049 24.3038 16.7049 24.309C16.7049 24.3143 16.7049 24.3195 16.7049 24.3247C16.7049 24.33 16.7049 24.3352 16.7049 24.3404C16.7049 24.3457 16.7049 24.3509 16.7049 24.3562C16.7049 24.3614 16.7049 24.3667 16.7049 24.3719C16.7049 24.3772 16.7049 24.3824 16.7049 24.3877C16.7049 24.3929 16.7049 24.3982 16.7049 24.4034C16.7049 24.4087 16.7049 24.4139 16.7049 24.4192C16.7049 24.4244 16.7049 24.4297 16.7049 24.435C16.7049 24.4402 16.7049 24.4455 16.7049 24.4508C16.7049 24.456 16.7049 24.4613 16.7049 24.4666C16.7049 24.4718 16.7049 24.4771 16.7049 24.4824C16.7049 24.4877 16.7049 24.4929 16.7049 24.4982C16.7049 24.5035 16.7049 24.5088 16.7049 24.5141C16.7049 24.5194 16.7049 24.5246 16.7049 24.5299C16.7049 24.5352 16.7049 24.5405 16.7049 24.5458C16.7049 24.5511 16.7049 24.5564 16.7049 24.5617C16.7049 24.567 16.7049 24.5723 16.7049 24.5776C16.7049 24.5829 16.7049 24.5882 16.7049 24.5935C16.7049 24.5988 16.7049 24.6041 16.7049 24.6094C16.7049 24.6147 16.7049 24.62 16.7049 24.6254C16.7049 24.6307 16.7049 24.636 16.7049 24.6413C16.7049 24.6466 16.7049 24.6519 16.7049 24.6573C16.7049 24.6626 16.7049 24.6679 16.7049 24.6732C16.7049 24.6786 16.7049 24.6839 16.7049 24.6892C16.7049 24.6946 16.7049 24.6999 16.7049 24.7052C16.7049 24.7106 16.7049 24.7159 16.7049 24.7213C16.7049 24.7266 16.7049 24.732 16.7049 24.7373C16.7049 24.7427 16.7049 24.748 16.7049 24.7534C16.7049 24.7587 16.7049 24.7641 16.7049 24.7694C16.7049 24.7748 16.7049 24.7801 16.7049 24.7855C16.7049 24.7909 16.7049 24.7962 16.7049 24.8016C16.7049 24.807 16.7049 24.8123 16.7049 24.8177C16.7049 24.8231 16.7049 24.8285 16.7049 24.8338C16.7049 24.8392 16.7049 24.8446 16.7049 24.85C16.7049 24.8554 16.7049 24.8608 16.7049 24.8661C16.7049 24.8715 16.7049 24.8769 16.7049 24.8823C16.7049 24.8877 16.7049 24.8931 16.7049 24.8985C16.7049 24.9039 16.7049 24.9093 16.7049 24.9147C16.7049 24.9201 16.7049 24.9255 16.7049 24.9309C16.7049 24.9363 16.7049 24.9418 16.7049 24.9472C16.7049 24.9526 16.7049 24.958 16.7049 24.9634C16.7049 24.9688 16.7049 24.9743 16.7049 24.9797C16.7049 24.9851 16.7049 24.9905 16.7049 24.996C16.7049 25.0014 16.7049 25.0068 16.7049 25.0123C16.7049 25.0177 16.7049 25.0232 16.7049 25.0286C16.7049 25.034 16.7049 25.0395 16.7049 25.0449C16.7049 25.0504 16.7049 25.0558 16.7049 25.0613C16.7049 25.0667 16.7049 25.0722 16.7049 25.0777C16.7049 25.0831 16.7049 25.0886 16.7049 25.0941C16.7049 25.0995 16.7049 25.105 16.7049 25.1105C16.7049 25.1159 16.7049 25.1214 16.7049 25.1269C16.7049 25.1324 16.7049 25.1378 16.7049 25.1433C16.7049 25.1488 16.7049 25.1543 16.7049 25.1598C16.7049 25.1653 16.7049 25.1708 16.7049 25.1763C16.7049 25.1818 16.7049 25.1873 16.7049 25.1928C16.7049 25.1983 16.7049 25.2038 16.7049 25.2093C16.7049 25.2148 16.7049 25.2203 16.7049 25.2258C16.7049 25.2313 16.7049 25.2368 16.7049 25.2424C16.7049 25.2479 16.7049 25.2534 16.7049 25.2589C16.7049 25.2645 16.7049 25.27 16.7049 25.2755C16.7049 25.2811 16.7049 25.2866 16.7049 25.2921C16.7049 25.2977 16.7049 25.3032 16.7049 25.3088C16.7049 25.3143 16.7049 25.3199 16.7049 25.3254C16.7049 25.331 16.7049 25.3365 16.7049 25.3421C16.7049 25.3476 16.7049 25.3532 16.7049 25.3588C16.7049 25.3643 16.7049 25.3699 16.7049 25.3755C16.7049 25.381 16.7049 25.3866 16.7049 25.3922C16.7049 25.3978 16.7049 25.4033 16.7049 25.4089C16.7049 25.4145 16.7049 25.4201 16.7049 25.4257C16.7049 25.4313 16.7049 25.4369 16.7049 25.4425C16.7049 25.4481 16.7049 25.4537 16.7049 25.4593C16.7049 25.4649 16.7049 25.4705 16.7049 25.4761C16.7049 25.4817 16.7049 25.4873 16.7049 25.493C16.7049 25.4986 16.7049 25.5042 16.7049 25.5098C16.7049 25.5154 16.7049 25.5211 16.7049 25.5267C16.7049 25.5323 16.7049 25.538 16.7049 25.5436C16.7049 25.5493 16.7049 25.5549 16.7049 25.5605C16.7049 25.5662 16.7049 25.5718 16.7049 25.5775C16.7049 25.5831 16.7049 25.5888 16.7049 25.5945C16.7049 25.6001 16.7049 25.6058 16.7049 25.6115C16.7049 25.6171 16.7049 25.6228 16.7049 25.6285C16.7049 25.6342 16.7049 25.6398 16.7049 25.6455C16.7049 25.6512 16.7049 25.6569 16.7049 25.6626C16.7049 25.6683 16.7049 25.674 16.7049 25.6797C16.7049 25.6853 16.7049 25.691 16.7049 25.6968C16.7049 25.7025 16.7049 25.7082 16.7049 25.7139C16.7049 25.7196 16.7049 25.7253 16.7049 25.731C16.7049 25.7367 16.7049 25.7425 16.7049 25.7482C16.7049 25.7539 16.7049 25.7597 16.7049 25.7654C16.7049 25.7711 16.7049 25.7769 16.7049 25.7826C16.7049 25.7883 16.7049 25.7941 16.7049 25.7998C16.7049 25.8056 16.7049 25.8113 16.7049 25.8171C16.7049 25.8229 16.7049 25.8286 16.7049 25.8344C16.7049 25.8402 16.7049 25.8459 16.7049 25.8517C16.7049 25.8575 16.7049 25.8632 16.7049 25.869C16.7049 25.8748 16.7049 25.8806 16.7049 25.8864C16.7049 25.8922 16.7049 25.898 16.7049 25.9038C16.7049 25.9096 16.7049 25.9154 16.7049 25.9212C16.7049 25.927 16.7049 25.9328 16.7049 25.9386C16.7049 25.9444 16.7049 25.9502 16.7049 25.956C16.7049 25.9619 16.7049 25.9677 16.7049 25.9735C16.7049 25.9793 16.7049 25.9852 16.7049 25.991C16.7049 25.9968 16.7049 26.0027 16.7049 26.0085C16.7049 26.0144 16.7049 26.0202 16.7049 26.0261C16.7049 26.0319 16.7049 26.0378 16.7049 26.0436C16.7049 26.0495 16.7049 26.0554 16.7049 26.0612C16.7049 26.0671 16.7049 26.073 16.7049 26.0789C16.7049 26.0847 16.7049 26.0906 16.7049 26.0965C16.7049 26.1024 16.7049 26.1083 16.7049 26.1142C16.7049 26.1201 16.7049 26.126 16.7049 26.1319C16.7049 26.1378 16.7049 26.1437 16.7049 26.1496C16.7049 26.1555 16.7049 26.1614 16.7049 26.1674C16.7049 26.1733 16.7049 26.1792 16.7049 26.1851C16.7049 26.1911 16.7049 26.197 16.7049 26.2029C16.7049 26.2089 16.7049 26.2148 16.7049 26.2208C16.7049 26.2267 16.7049 26.2327 16.7049 26.2386C16.7049 26.2446 16.7049 26.2505 16.7049 26.2565C16.7049 26.2625 16.7049 26.2684 16.7049 26.2744C16.7049 26.2804 16.7049 26.2863 16.7049 26.2923C16.7049 26.2983 16.7049 26.3043 16.7049 26.3103C16.7049 26.3163 16.7049 26.3223 16.7049 26.3283C16.7049 26.3343 16.7049 26.3403 16.7049 26.3463C16.7049 26.3523 16.7049 26.3583 16.7049 26.3643C16.7049 26.3703 16.7049 26.3764 16.7049 26.3824C16.7049 26.3884 16.7049 26.3944 16.7049 26.4005C16.7049 26.4065 16.7049 26.4126 16.7049 26.4186C16.7049 26.4246 16.7049 26.4307 16.7049 26.4368C16.7049 26.4428 16.7049 26.4489 16.7049 26.4549C16.7049 26.461 16.7049 26.4671 16.7049 26.4731C16.7049 26.4792 16.7049 26.4853 16.7049 26.4914C16.7049 26.4974 16.7049 26.5035 16.7049 26.5096C16.7049 26.5157 16.7049 26.5218 16.7049 26.5279C16.7049 26.534 16.7049 26.5401 16.7049 26.5462C16.7049 26.5523 16.7049 26.5585 16.7049 26.5646C16.7049 26.5707 16.7049 26.5768 16.7049 26.583C16.7049 26.5891 16.7049 26.5952 16.7049 26.6014C16.7049 26.6075 16.7049 26.6136 16.7049 26.6198C16.7049 26.6259 16.7049 26.6321 16.7049 26.6382C16.7049 26.6444 16.7049 26.6506 16.7049 26.6567C16.7049 26.6629 16.7049 26.6691 16.7049 26.6753C16.7049 26.6814 16.7049 26.6876 16.7049 26.6938C16.7049 26.7 16.7049 26.7062 16.7049 26.7124C16.7049 26.7186 16.7049 26.7248 16.7049 26.731C16.7049 26.7372 16.7049 26.7434 16.7049 26.7496C16.7049 26.7558 16.7049 26.7621 16.7049 26.7683C16.7049 26.7745 16.7049 26.7808 16.7049 26.787C16.7049 26.7932 16.7049 26.7995 16.7049 26.8057C16.7049 26.812 16.7049 26.8182 16.7049 26.8245C16.7049 26.8307 16.7049 26.837 16.7049 26.8433C16.7049 26.8495 16.7049 26.8558 16.7049 26.8621C16.7049 26.8684 16.7049 26.8747 16.7049 26.8809C16.7049 26.8872 16.7049 26.8935 16.7049 26.8998C16.7049 26.9061 16.7049 26.9124 16.7049 26.9187C16.7049 26.925 16.7049 26.9314 16.7049 26.9377C16.7049 26.944 16.7049 26.9503 16.7049 26.9567C16.7049 26.963 16.7049 26.9693 16.7049 26.9757C16.7049 26.982 16.7049 26.9883 16.7049 26.9947C16.7049 27.001 16.7049 27.0074 16.7049 27.0138C16.7049 27.0201 16.7049 27.0265 16.7049 27.0329C16.7049 27.0392 16.7049 27.0456 16.7049 27.052C16.7049 27.0584 16.7049 27.0648 16.7049 27.0712C16.7049 27.0776 16.7049 27.084 16.7049 27.0904C16.7049 27.0968 16.7049 27.1032 16.7049 27.1096C16.7049 27.116 16.7049 27.1224 16.7049 27.1289C16.7049 27.1353 16.7049 27.1417 16.7049 27.1481C16.7049 27.1546 16.7049 27.161 16.7049 27.1675C16.7049 27.1739 16.7049 27.1804 16.7049 27.1868C16.7049 27.1933 16.7049 27.1998 16.7049 27.2062C16.7049 27.2127 16.7049 27.2192 16.7049 27.2257C16.7049 27.2321 16.7049 27.2386 16.7049 27.2451C16.7049 27.2516 16.7049 27.2581 16.7049 27.2646H18.2958Z" fill="#181F25"/>
<path d="M20.364 17.1818C20.364 17.1818 18.743 18.4546 17.5004 18.4546C16.2577 18.4546 14.6367 17.1818 14.6367 17.1818" stroke="#181F25" stroke-width="1.59091" stroke-linecap="square" stroke-linejoin="round"/>
<rect x="13.3633" y="13.3636" width="8.27273" height="1.59091" fill="#2A3AC6"/>
</g>
<defs>
<clipPath id="clip0_1467_21909">
<rect width="22.2727" height="30.5455" fill="white" transform="translate(6.36328 2.54547)"/>
</clipPath>
</defs>
</svg>
