<svg width="104" height="27" viewBox="0 0 104 27" fill="none" xmlns="http://www.w3.org/2000/svg">
<path d="M89.5862 26.3468V23.6367L93.9518 25.6878V23.652H94.3904V26.3661C94.3674 26.3558 94.336 26.3409 94.2961 26.3216C94.2562 26.3021 94.1954 26.2733 94.1131 26.2344C94.0309 26.1956 93.9192 26.1426 93.778 26.0754C93.6367 26.0081 93.46 25.9248 93.2481 25.8252C93.0363 25.7258 92.7787 25.6048 92.4757 25.4628C92.1724 25.3205 91.8192 25.1546 91.4161 24.9645C91.0127 24.7745 90.549 24.5568 90.0251 24.3112V26.3468H89.5862ZM82.5759 25.9437H85.8597C85.9058 25.9437 85.9482 25.9351 85.9867 25.9181C86.0252 25.9015 86.0592 25.8794 86.0888 25.8523C86.1182 25.825 86.1412 25.7933 86.158 25.757C86.1748 25.7207 86.1832 25.6833 86.1832 25.6444V24.3699C86.1832 24.3312 86.1748 24.2935 86.158 24.2572C86.1412 24.221 86.1182 24.1893 86.0888 24.1622C86.0592 24.1349 86.0252 24.1136 85.9867 24.098C85.9482 24.0826 85.9058 24.0747 85.8597 24.0747H82.5759C82.5296 24.0747 82.4873 24.0826 82.4487 24.098C82.4103 24.1136 82.3762 24.1349 82.3468 24.1622C82.3173 24.1893 82.2943 24.221 82.2777 24.2572C82.2608 24.2935 82.2525 24.3312 82.2525 24.3699V25.6444C82.2525 25.6833 82.2608 25.7207 82.2777 25.757C82.2943 25.7933 82.3173 25.825 82.3468 25.8523C82.3762 25.8794 82.4103 25.9015 82.4487 25.9181C82.4873 25.9351 82.5296 25.9437 82.5759 25.9437ZM82.5798 23.652H85.8635C85.9662 23.652 86.0638 23.6709 86.156 23.7083C86.2485 23.7459 86.3294 23.7975 86.3987 23.8634C86.468 23.9293 86.5224 24.0061 86.5623 24.094C86.602 24.182 86.622 24.2762 86.622 24.3771V25.6489C86.622 25.7497 86.602 25.844 86.5623 25.9319C86.5224 26.0199 86.468 26.0967 86.3987 26.1626C86.3294 26.2284 86.2485 26.2802 86.156 26.3176C86.0638 26.3551 85.9662 26.3739 85.8635 26.3739H82.5798C82.4745 26.3739 82.3762 26.3551 82.2851 26.3176C82.194 26.2802 82.114 26.2284 82.0447 26.1626C81.9753 26.0967 81.9207 26.0199 81.8811 25.9319C81.8413 25.844 81.8214 25.7497 81.8214 25.6489V24.3771C81.8214 24.2762 81.8413 24.182 81.8811 24.094C81.9207 24.0061 81.9753 23.9293 82.0447 23.8634C82.114 23.7975 82.194 23.7459 82.2851 23.7083C82.3762 23.6709 82.4745 23.652 82.5798 23.652ZM78.4145 23.652H78.8571V26.3661H78.4145V23.652ZM70.8074 24.0785V23.652H75.6041V24.0785H73.4213V26.3661H72.9824V24.0785H70.8074ZM64.7518 23.652H68.1436V24.0747H64.7518C64.6389 24.0723 64.531 24.0891 64.4286 24.1252C64.3257 24.1615 64.2327 24.2127 64.1493 24.2786C64.0659 24.3447 63.9946 24.4232 63.9358 24.5138C63.8766 24.6045 63.8356 24.7015 63.8126 24.8051L63.8009 24.8595C63.796 24.8804 63.792 24.9023 63.7896 24.9255C63.7868 24.949 63.7843 24.975 63.7818 25.0034C63.7818 25.125 63.8069 25.2423 63.8568 25.3549C63.9069 25.4676 63.9748 25.5675 64.061 25.6541C64.1469 25.741 64.2494 25.8102 64.3688 25.8619C64.4882 25.9138 64.6172 25.9397 64.7557 25.9397H68.1474V26.3622H64.7557C64.5657 26.3622 64.3848 26.3273 64.2129 26.2576C64.0409 26.1878 63.8906 26.0915 63.7615 25.9686C63.6326 25.8461 63.5304 25.7024 63.4556 25.5384C63.3803 25.3742 63.3429 25.1966 63.3429 25.0052C63.3429 24.8165 63.3809 24.6396 63.4573 24.4741C63.5336 24.3087 63.6365 24.1652 63.7654 24.0435C63.8944 23.9221 64.0441 23.8264 64.2148 23.7566C64.3855 23.687 64.5645 23.652 64.7518 23.652ZM55.6973 23.652H56.1361V25.645C56.1361 25.6839 56.1444 25.7213 56.161 25.7574C56.1776 25.7935 56.2009 25.8252 56.2303 25.8526C56.2599 25.8795 56.2933 25.9016 56.3306 25.9184C56.3678 25.9351 56.4069 25.9437 56.448 25.9437H59.7432C59.833 25.9437 59.9075 25.9138 59.9666 25.8544C60.0255 25.7949 60.0552 25.7251 60.0552 25.645V23.652H60.4941V25.645C60.4941 25.7458 60.4733 25.8401 60.4323 25.928C60.3912 26.0159 60.3362 26.0921 60.2669 26.1568C60.1975 26.2213 60.1175 26.2725 60.0262 26.3099C59.9351 26.3474 59.8407 26.3661 59.7432 26.3661H56.448C56.3503 26.3661 56.2567 26.3474 56.167 26.3099C56.0769 26.2725 55.9974 26.2213 55.9281 26.1568C55.8589 26.0921 55.803 26.0159 55.7606 25.928C55.7185 25.8401 55.6973 25.7458 55.6973 25.645V23.652ZM47.9789 24.0824V23.6599H51.9592C52.0851 23.6599 52.1993 23.6824 52.302 23.7276C52.4045 23.7726 52.4911 23.8331 52.5618 23.9092C52.6324 23.9855 52.6861 24.0711 52.7235 24.1666C52.7607 24.2619 52.7794 24.3592 52.7794 24.4586C52.7794 24.5577 52.7583 24.6557 52.7158 24.7526C52.6735 24.8492 52.6085 24.9349 52.5215 25.0095C52.4444 25.0793 52.3604 25.1313 52.2692 25.1663C52.1781 25.2011 52.0749 25.2198 51.9592 25.2223H51.944L52.9256 26.37H52.406L51.3818 25.2262H48.4213V26.37H47.9826V24.8037H52.0094C52.1017 24.7906 52.1811 24.7507 52.2481 24.6834C52.3147 24.6162 52.348 24.5362 52.348 24.443C52.348 24.3499 52.3147 24.2691 52.2481 24.2008C52.1811 24.1322 52.1017 24.0929 52.0094 24.0824H47.9789ZM40.3717 24.0785V23.652H45.1684V24.0785H42.9857V26.3661H42.5467V24.0785H40.3717ZM32.8804 25.9358H36.8608C36.9121 25.9358 36.9611 25.9261 37.0071 25.9067C37.0534 25.8874 37.0931 25.8614 37.1264 25.8291C37.1598 25.7967 37.1862 25.7586 37.2053 25.7148C37.2248 25.6707 37.2343 25.6244 37.2343 25.5753C37.2343 25.4743 37.1983 25.3898 37.1264 25.3212C37.0547 25.2528 36.9685 25.2184 36.8685 25.2184H33.6888C33.5885 25.2184 33.4906 25.1991 33.3942 25.1603C33.298 25.1215 33.2119 25.0671 33.1362 24.9975C33.0605 24.9277 32.9997 24.8457 32.9534 24.7513C32.9071 24.657 32.8842 24.5542 32.8842 24.443V24.4276C32.8842 24.319 32.9066 24.2175 32.9514 24.1232C32.9963 24.0289 33.056 23.9468 33.1304 23.877C33.2046 23.8071 33.2905 23.7523 33.388 23.7122C33.4856 23.6722 33.5881 23.652 33.6956 23.652H37.6732V24.0747H33.6996C33.6457 24.0723 33.5965 24.0794 33.5517 24.0962C33.5067 24.1132 33.4671 24.1377 33.4325 24.1703C33.3979 24.2025 33.3709 24.241 33.3517 24.2852C33.3326 24.3296 33.3231 24.3762 33.3231 24.4255C33.3231 24.4751 33.3326 24.5217 33.3517 24.5659C33.3709 24.6103 33.3971 24.6486 33.4306 24.6809C33.464 24.7136 33.5035 24.7394 33.5498 24.759C33.5958 24.7784 33.6447 24.7881 33.6956 24.7881H36.8624C36.9648 24.7881 37.0647 24.8088 37.1621 24.8501C37.2594 24.8916 37.3459 24.9471 37.4214 25.0169C37.4971 25.0867 37.5579 25.1695 37.6039 25.265C37.6502 25.3607 37.6732 25.4628 37.6732 25.5713C37.6732 25.6799 37.6519 25.7814 37.6096 25.8758C37.5675 25.9701 37.5092 26.0533 37.4346 26.1259C37.3603 26.1981 37.2737 26.2551 37.175 26.2963C37.0764 26.3377 36.9707 26.3584 36.8576 26.3584H32.8804V25.9358ZM25.2269 26.3468V23.6367L29.5926 25.6878V23.652H30.0313V26.3661C30.0082 26.3558 29.9768 26.3409 29.9369 26.3216C29.897 26.3021 29.8362 26.2733 29.7539 26.2344C29.6717 26.1956 29.56 26.1426 29.4187 26.0754C29.2774 26.0081 29.1009 25.9248 28.889 25.8252C28.677 25.7258 28.4195 25.6048 28.1164 25.4628C27.8131 25.3205 27.4599 25.1546 27.0568 24.9645C26.6534 24.7745 26.1897 24.5568 25.6658 24.3112V26.3468H25.2269ZM18.2167 25.9437H21.5006C21.5465 25.9437 21.589 25.9351 21.6275 25.9181C21.666 25.9015 21.6999 25.8794 21.7296 25.8523C21.759 25.825 21.782 25.7933 21.7989 25.757C21.8155 25.7207 21.8239 25.6833 21.8239 25.6444V24.3699C21.8239 24.3312 21.8155 24.2935 21.7989 24.2572C21.782 24.221 21.759 24.1893 21.7296 24.1622C21.6999 24.1349 21.666 24.1136 21.6275 24.098C21.589 24.0826 21.5465 24.0747 21.5006 24.0747H18.2167C18.1704 24.0747 18.1281 24.0826 18.0895 24.098C18.051 24.1136 18.017 24.1349 17.9876 24.1622C17.9581 24.1893 17.935 24.221 17.9184 24.2572C17.9015 24.2935 17.8933 24.3312 17.8933 24.3699V25.6444C17.8933 25.6833 17.9015 25.7207 17.9184 25.757C17.935 25.7933 17.9581 25.825 17.9876 25.8523C18.017 25.8794 18.051 25.9015 18.0895 25.9181C18.1281 25.9351 18.1704 25.9437 18.2167 25.9437ZM18.2205 23.652H21.5042C21.6071 23.652 21.7044 23.6709 21.7968 23.7083C21.8894 23.7459 21.9702 23.7975 22.0394 23.8634C22.1087 23.9293 22.1633 24.0061 22.203 24.094C22.2427 24.182 22.2628 24.2762 22.2628 24.3771V25.6489C22.2628 25.7497 22.2427 25.844 22.203 25.9319C22.1633 26.0199 22.1087 26.0967 22.0394 26.1626C21.9702 26.2284 21.8894 26.2802 21.7968 26.3176C21.7044 26.3551 21.6071 26.3739 21.5042 26.3739H18.2205C18.1153 26.3739 18.017 26.3551 17.926 26.3176C17.8347 26.2802 17.7548 26.2284 17.6855 26.1626C17.616 26.0967 17.5616 26.0199 17.5218 25.9319C17.4821 25.844 17.4622 25.7497 17.4622 25.6489V24.3771C17.4622 24.2762 17.4821 24.182 17.5218 24.094C17.5616 24.0061 17.616 23.9293 17.6855 23.8634C17.7548 23.7975 17.8347 23.7459 17.926 23.7083C18.017 23.6709 18.1153 23.652 18.2205 23.652ZM11.2526 23.652H14.6443V24.0747H11.2526C11.1396 24.0723 11.0317 24.0891 10.9293 24.1252C10.8265 24.1615 10.7335 24.2127 10.6501 24.2786C10.5668 24.3447 10.4954 24.4232 10.4367 24.5138C10.3774 24.6045 10.3364 24.7015 10.3134 24.8051L10.3017 24.8595C10.2967 24.8804 10.2929 24.9023 10.2904 24.9255C10.2876 24.949 10.2852 24.975 10.2825 25.0034C10.2825 25.125 10.3076 25.2423 10.3575 25.3549C10.4077 25.4676 10.4755 25.5675 10.5617 25.6541C10.6477 25.741 10.7501 25.8102 10.8696 25.8619C10.989 25.9138 11.118 25.9397 11.2566 25.9397H14.6482V26.3622H11.2566C11.0665 26.3622 10.8855 26.3273 10.7138 26.2576C10.5417 26.1878 10.3913 26.0915 10.2623 25.9686C10.1334 25.8461 10.0312 25.7024 9.9563 25.5384C9.881 25.3742 9.84375 25.1966 9.84375 25.0052C9.84375 24.8165 9.8818 24.6396 9.95803 24.4741C10.0344 24.3087 10.1372 24.1652 10.2661 24.0435C10.3952 23.9221 10.5448 23.8264 10.7155 23.7566C10.8862 23.687 11.0653 23.652 11.2526 23.652Z" fill="currentcolor"/>
<path d="M36.5059 19.0275H68.4974V16.1875H36.5059V19.0275Z" fill="currentcolor"/>
<path d="M68.459 8.57031H36.5059V11.3585H68.459V8.57031Z" fill="currentcolor"/>
<path d="M36.5059 3.74217H68.459V0.928068L36.5059 0.902344V3.74217Z" fill="currentcolor"/>
<path d="M75.0044 4.96589C75.1592 4.82065 75.3322 4.71319 75.5331 4.63762C75.7282 4.5642 75.9532 4.53284 76.2025 4.5445L103.496 4.54544V0.125H76.2138C75.3962 0.125 74.6053 0.279613 73.8628 0.584698C73.1262 0.887907 72.4674 1.30956 71.9045 1.83787C71.3387 2.36912 70.8791 3.00166 70.5381 3.71821C70.1889 4.45272 70.0119 5.25114 70.0119 6.09149V6.1948C70.0119 7.05592 70.1948 7.86587 70.5554 8.60238C70.9053 9.3176 71.3745 9.94907 71.9498 10.4793C72.5224 11.0073 73.1818 11.4237 73.9099 11.7171C74.6427 12.012 75.4022 12.1617 76.167 12.1617H97.3409C97.8059 12.1617 98.1775 12.3092 98.5098 12.6257C98.8296 12.9308 98.9785 13.2828 98.9785 13.7335C98.9785 13.9499 98.9378 14.1478 98.854 14.3391C98.7676 14.5364 98.6536 14.7023 98.5056 14.8457C98.3541 14.9924 98.1744 15.1082 97.9571 15.1996C97.7458 15.2882 97.5274 15.3313 97.2895 15.3313H69.9863V19.752H97.2684C98.1224 19.752 98.9365 19.5923 99.6877 19.2773C100.435 18.9645 101.1 18.5269 101.664 17.9773C102.23 17.4275 102.68 16.7842 103.003 16.0651C103.33 15.3349 103.496 14.542 103.496 13.7078C103.496 12.8663 103.314 12.0623 102.955 11.3171C102.605 10.5918 102.136 9.95483 101.561 9.42384C100.994 8.89983 100.336 8.47657 99.6047 8.16545C98.8601 7.84952 98.0844 7.68927 97.2991 7.68927H76.2138C75.9766 7.68927 75.7596 7.64626 75.55 7.55756C75.3331 7.46591 75.154 7.34949 75.0024 7.2017C74.8547 7.05794 74.741 6.89099 74.6538 6.69028C74.5699 6.49774 74.5292 6.29756 74.5292 6.07823C74.5292 5.85956 74.57 5.65939 74.6542 5.46591C74.7387 5.27136 74.8532 5.10778 75.0044 4.96589Z" fill="currentcolor"/>
<path d="M6.99625 0.907146C5.7839 1.40664 4.69781 2.10175 3.76844 2.97306C2.83467 3.84838 2.08023 4.89575 1.52614 6.08581C0.965802 7.28967 0.681641 8.60299 0.681641 9.98961C0.681641 11.3935 0.965802 12.7157 1.52614 13.9191C2.0797 15.1085 2.83307 16.1594 3.76525 17.0419C4.69675 17.9247 5.78551 18.6215 7.00104 19.1127C8.21804 19.6051 9.50821 19.8547 10.8358 19.8547H34.1914V7.81797H21.8285L24.8485 12.2387H29.6741V15.4342H10.8358C10.0744 15.4342 9.34577 15.2898 8.66969 15.0051C7.98509 14.7167 7.37593 14.3213 6.85883 13.8296C6.34744 13.3433 5.93756 12.7623 5.6405 12.1027C5.34756 11.4529 5.19909 10.7464 5.19909 10.0026V9.97675C5.19909 9.24961 5.34383 8.55489 5.62932 7.91176C5.91973 7.25805 6.32323 6.67575 6.82903 6.18041C7.33549 5.68413 7.93747 5.28713 8.6186 5.0004C9.29522 4.71528 10.0413 4.5707 10.8358 4.5707H34.1914V0.150391H10.8358C9.50674 0.150391 8.21498 0.404969 6.99625 0.907146Z" fill="currentcolor"/>
</svg>
