<svg width="55" height="55" viewBox="0 0 55 55" fill="none" xmlns="http://www.w3.org/2000/svg">
<g clip-path="url(#clip0_1447_14910)">
<circle cx="27" cy="27.5" r="21.25" stroke="#292B37" stroke-width="2.5"/>
<mask id="path-2-outside-1_1447_14910" maskUnits="userSpaceOnUse" x="19" y="15" width="15" height="26" fill="black">
<rect fill="white" x="19" y="15" width="15" height="26"/>
<path d="M33.69 32.06C33.69 33.4987 33.1787 34.6947 32.156 35.648C31.1334 36.584 29.6947 37.1127 27.84 37.234V39.86H25.89V37.182C24.7287 37.0433 23.7147 36.714 22.848 36.194C21.9814 35.6567 21.314 34.998 20.846 34.218C20.3954 33.4207 20.17 32.5713 20.17 31.67H22.25C22.25 32.3287 22.432 32.9353 22.796 33.49C23.1774 34.0447 23.732 34.4867 24.46 34.816C25.188 35.1453 26.0547 35.31 27.06 35.31C28.6027 35.31 29.7467 35.0153 30.492 34.426C31.2374 33.8193 31.61 33.0307 31.61 32.06C31.61 31.28 31.35 30.6387 30.83 30.136C30.31 29.616 29.53 29.2607 28.49 29.07L24.98 28.42C22.0334 27.8653 20.56 26.3053 20.56 23.74C20.56 22.336 21.0367 21.166 21.99 20.23C22.9434 19.294 24.2434 18.748 25.89 18.592V15.94H27.84V18.592C29.0014 18.7133 30.0067 19.034 30.856 19.554C31.7227 20.0567 32.39 20.7067 32.858 21.504C33.326 22.3013 33.56 23.1767 33.56 24.13H31.48C31.48 23.4713 31.2894 22.8647 30.908 22.31C30.544 21.7553 30.0067 21.3133 29.296 20.984C28.6027 20.6547 27.7707 20.49 26.8 20.49C25.4827 20.49 24.46 20.7933 23.732 21.4C23.004 22.0067 22.64 22.7867 22.64 23.74C22.64 24.468 22.8827 25.0833 23.368 25.586C23.8707 26.0887 24.6247 26.4267 25.63 26.6L28.49 27.12C30.2927 27.4493 31.61 28.0127 32.442 28.81C33.274 29.6073 33.69 30.6907 33.69 32.06Z"/>
</mask>
<path d="M33.69 32.06C33.69 33.4987 33.1787 34.6947 32.156 35.648C31.1334 36.584 29.6947 37.1127 27.84 37.234V39.86H25.89V37.182C24.7287 37.0433 23.7147 36.714 22.848 36.194C21.9814 35.6567 21.314 34.998 20.846 34.218C20.3954 33.4207 20.17 32.5713 20.17 31.67H22.25C22.25 32.3287 22.432 32.9353 22.796 33.49C23.1774 34.0447 23.732 34.4867 24.46 34.816C25.188 35.1453 26.0547 35.31 27.06 35.31C28.6027 35.31 29.7467 35.0153 30.492 34.426C31.2374 33.8193 31.61 33.0307 31.61 32.06C31.61 31.28 31.35 30.6387 30.83 30.136C30.31 29.616 29.53 29.2607 28.49 29.07L24.98 28.42C22.0334 27.8653 20.56 26.3053 20.56 23.74C20.56 22.336 21.0367 21.166 21.99 20.23C22.9434 19.294 24.2434 18.748 25.89 18.592V15.94H27.84V18.592C29.0014 18.7133 30.0067 19.034 30.856 19.554C31.7227 20.0567 32.39 20.7067 32.858 21.504C33.326 22.3013 33.56 23.1767 33.56 24.13H31.48C31.48 23.4713 31.2894 22.8647 30.908 22.31C30.544 21.7553 30.0067 21.3133 29.296 20.984C28.6027 20.6547 27.7707 20.49 26.8 20.49C25.4827 20.49 24.46 20.7933 23.732 21.4C23.004 22.0067 22.64 22.7867 22.64 23.74C22.64 24.468 22.8827 25.0833 23.368 25.586C23.8707 26.0887 24.6247 26.4267 25.63 26.6L28.49 27.12C30.2927 27.4493 31.61 28.0127 32.442 28.81C33.274 29.6073 33.69 30.6907 33.69 32.06Z" fill="#2A3AC6"/>
<path d="M32.156 35.648L32.2911 35.7955L32.2924 35.7943L32.156 35.648ZM27.84 37.234L27.827 37.0344L27.64 37.0467V37.234H27.84ZM27.84 39.86V40.06H28.04V39.86H27.84ZM25.89 39.86H25.69V40.06H25.89V39.86ZM25.89 37.182H26.09V37.0045L25.9137 36.9834L25.89 37.182ZM22.848 36.194L22.7426 36.364L22.7451 36.3655L22.848 36.194ZM20.846 34.218L20.6719 34.3164L20.6745 34.3209L20.846 34.218ZM20.17 31.67V31.47H19.97V31.67H20.17ZM22.25 31.67H22.45V31.47H22.25V31.67ZM22.796 33.49L22.6288 33.5998L22.6312 33.6033L22.796 33.49ZM30.492 34.426L30.6161 34.5829L30.6183 34.5811L30.492 34.426ZM30.83 30.136L30.6886 30.2774L30.691 30.2798L30.83 30.136ZM28.49 29.07L28.4536 29.2667L28.454 29.2667L28.49 29.07ZM24.98 28.42L24.943 28.6165L24.9436 28.6167L24.98 28.42ZM25.89 18.592L25.9089 18.7911L26.09 18.7739V18.592H25.89ZM25.89 15.94V15.74H25.69V15.94H25.89ZM27.84 15.94H28.04V15.74H27.84V15.94ZM27.84 18.592H27.64V18.7722L27.8192 18.7909L27.84 18.592ZM30.856 19.554L30.7516 19.7246L30.7557 19.727L30.856 19.554ZM32.858 21.504L33.0305 21.4028L32.858 21.504ZM33.56 24.13V24.33H33.76V24.13H33.56ZM31.48 24.13H31.28V24.33H31.48V24.13ZM30.908 22.31L30.7408 22.4198L30.7432 22.4233L30.908 22.31ZM29.296 20.984L29.2102 21.1647L29.2119 21.1655L29.296 20.984ZM23.732 21.4L23.8601 21.5536L23.732 21.4ZM23.368 25.586L23.2241 25.7249L23.2266 25.7274L23.368 25.586ZM25.63 26.6L25.6658 26.4032L25.664 26.4029L25.63 26.6ZM28.49 27.12L28.526 26.9233L28.5258 26.9232L28.49 27.12ZM32.442 28.81L32.5804 28.6656L32.442 28.81ZM33.49 32.06C33.49 33.445 33.0004 34.5874 32.0197 35.5017L32.2924 35.7943C33.357 34.8019 33.89 33.5523 33.89 32.06H33.49ZM32.021 35.5005C31.0418 36.3967 29.6517 36.9151 27.827 37.0344L27.8531 37.4336C29.7377 37.3103 31.225 36.7713 32.2911 35.7955L32.021 35.5005ZM27.64 37.234V39.86H28.04V37.234H27.64ZM27.84 39.66H25.89V40.06H27.84V39.66ZM26.09 39.86V37.182H25.69V39.86H26.09ZM25.9137 36.9834C24.776 36.8476 23.7899 36.5259 22.9509 36.0225L22.7451 36.3655C23.6395 36.9021 24.6814 37.2391 25.8663 37.3806L25.9137 36.9834ZM22.9534 36.024C22.1105 35.5014 21.4673 34.8646 21.0175 34.1151L20.6745 34.3209C21.1608 35.1314 21.8522 35.8119 22.7426 36.364L22.9534 36.024ZM21.0201 34.1196C20.5862 33.3518 20.37 32.5363 20.37 31.67H19.97C19.97 32.6064 20.2046 33.4896 20.6719 34.3164L21.0201 34.1196ZM20.17 31.87H22.25V31.47H20.17V31.87ZM22.05 31.67C22.05 32.368 22.2436 33.0127 22.6288 33.5997L22.9632 33.3803C22.6205 32.8579 22.45 32.2894 22.45 31.67H22.05ZM22.6312 33.6033C23.0368 34.1932 23.6226 34.6567 24.3776 34.9982L24.5425 34.6338C23.8414 34.3166 23.3179 33.8961 22.9608 33.3767L22.6312 33.6033ZM24.3776 34.9982C25.1373 35.3419 26.0334 35.51 27.06 35.51V35.11C26.076 35.11 25.2388 34.9488 24.5425 34.6338L24.3776 34.9982ZM27.06 35.51C28.6217 35.51 29.8194 35.2128 30.6161 34.5829L30.368 34.2691C29.674 34.8178 28.5837 35.11 27.06 35.11V35.51ZM30.6183 34.5811C31.4108 33.936 31.81 33.0901 31.81 32.06H31.41C31.41 32.9712 31.0639 33.7026 30.3658 34.2709L30.6183 34.5811ZM31.81 32.06C31.81 31.2305 31.5313 30.5357 30.969 29.9922L30.691 30.2798C31.1688 30.7416 31.41 31.3295 31.41 32.06H31.81ZM30.9715 29.9946C30.4127 29.4358 29.5893 29.0682 28.5261 28.8733L28.454 29.2667C29.4708 29.4531 30.2073 29.7962 30.6886 30.2774L30.9715 29.9946ZM28.5264 28.8733L25.0164 28.2233L24.9436 28.6167L28.4536 29.2667L28.5264 28.8733ZM25.017 28.2235C23.5691 27.9509 22.5086 27.4359 21.8104 26.6967C21.1155 25.9609 20.76 24.9822 20.76 23.74H20.36C20.36 25.0631 20.7412 26.1471 21.5196 26.9713C22.2948 27.7921 23.4443 28.3344 24.943 28.6165L25.017 28.2235ZM20.76 23.74C20.76 22.3866 21.2172 21.269 22.1301 20.3727L21.8499 20.0873C20.8562 21.063 20.36 22.2854 20.36 23.74H20.76ZM22.1301 20.3727C23.0435 19.4759 24.2967 18.9438 25.9089 18.7911L25.8712 18.3929C24.19 18.5522 22.8432 19.1121 21.8499 20.0873L22.1301 20.3727ZM26.09 18.592V15.94H25.69V18.592H26.09ZM25.89 16.14H27.84V15.74H25.89V16.14ZM27.64 15.94V18.592H28.04V15.94H27.64ZM27.8192 18.7909C28.956 18.9097 29.9317 19.2226 30.7516 19.7246L30.9605 19.3834C30.0817 18.8454 29.0467 18.517 27.8608 18.3931L27.8192 18.7909ZM30.7557 19.727C31.5951 20.2139 32.2365 20.8401 32.6855 21.6052L33.0305 21.4028C32.5436 20.5732 31.8503 19.8995 30.9564 19.381L30.7557 19.727ZM32.6855 21.6052C33.135 22.3709 33.36 23.2111 33.36 24.13H33.76C33.76 23.1422 33.5171 22.2318 33.0305 21.4028L32.6855 21.6052ZM33.56 23.93H31.48V24.33H33.56V23.93ZM31.68 24.13C31.68 23.4299 31.4766 22.7839 31.0728 22.1967L30.7432 22.4233C31.1022 22.9454 31.28 23.5127 31.28 24.13H31.68ZM31.0752 22.2003C30.6873 21.6092 30.1185 21.1447 29.3801 20.8025L29.2119 21.1655C29.8949 21.482 30.4007 21.9015 30.7408 22.4197L31.0752 22.2003ZM29.3818 20.8033C28.6556 20.4584 27.7928 20.29 26.8 20.29V20.69C27.7486 20.69 28.5498 20.851 29.2102 21.1647L29.3818 20.8033ZM26.8 20.29C25.454 20.29 24.3797 20.5999 23.604 21.2464L23.8601 21.5536C24.5403 20.9868 25.5114 20.69 26.8 20.69V20.29ZM23.604 21.2464C22.8301 21.8913 22.44 22.7277 22.44 23.74H22.84C22.84 22.8456 23.178 22.122 23.8601 21.5536L23.604 21.2464ZM22.44 23.74C22.44 24.5174 22.7012 25.1833 23.2242 25.7249L23.5119 25.4471C23.0642 24.9834 22.84 24.4186 22.84 23.74H22.44ZM23.2266 25.7274C23.7687 26.2695 24.567 26.6197 25.596 26.7971L25.664 26.4029C24.6824 26.2337 23.9727 25.9078 23.5095 25.4446L23.2266 25.7274ZM25.5943 26.7968L28.4543 27.3168L28.5258 26.9232L25.6658 26.4032L25.5943 26.7968ZM28.4541 27.3167C30.239 27.6428 31.5121 28.1958 32.3036 28.9544L32.5804 28.6656C31.708 27.8295 30.3464 27.2558 28.526 26.9233L28.4541 27.3167ZM32.3036 28.9544C33.0889 29.707 33.49 30.7341 33.49 32.06H33.89C33.89 30.6472 33.4591 29.5077 32.5804 28.6656L32.3036 28.9544Z" fill="#2A3AC6" mask="url(#path-2-outside-1_1447_14910)"/>
</g>
<defs>
<clipPath id="clip0_1447_14910">
<rect width="46" height="45.0001" fill="white" transform="translate(4.00003 5)"/>
</clipPath>
</defs>
</svg>
