<svg width="35" height="35" viewBox="0 0 35 35" fill="none" xmlns="http://www.w3.org/2000/svg">
<g clip-path="url(#clip0_1467_21856)">
<path d="M6.9517 16.3626C6.9517 14.781 7.63942 13.6361 8.68002 12.8656C9.74453 12.0774 11.2068 11.666 12.7123 11.6761C14.2175 11.6862 15.6841 12.1173 16.7534 12.9138C17.8009 13.6941 18.4835 14.8311 18.4835 16.3626V30.9081C18.4835 31.3179 18.0704 31.4643 17.8151 31.2529C16 29.7503 13.2545 27.3074 10.9696 24.5634C8.6509 21.7788 6.9517 18.8527 6.9517 16.3626Z" stroke="#292B37" stroke-width="1.59091"/>
<path d="M21.483 28.1596V20.5041C21.483 18.7167 22.932 17.2677 24.7194 17.2677C27.4594 17.2677 28.9597 20.4599 27.2111 22.5695L22.3258 28.4635C22.0411 28.8069 21.483 28.6056 21.483 28.1596Z" stroke="#292B37" stroke-width="1.59091"/>
<circle cx="15.5372" cy="6.59113" r="2.94876" stroke="#2A3AC6" stroke-width="1.59091"/>
<circle cx="23.9744" cy="12.1432" r="2.49142" stroke="#2A3AC6" stroke-width="1.59091"/>
</g>
<defs>
<clipPath id="clip0_1467_21856">
<rect width="22.9091" height="29.9091" fill="white" transform="translate(6.04688 2.54541)"/>
</clipPath>
</defs>
</svg>
