<svg width="753" height="223" viewBox="0 0 753 223" fill="none" xmlns="http://www.w3.org/2000/svg">
<path d="M524.61 404.612C568.458 388.515 607.741 366.115 641.355 338.035C675.128 309.827 702.415 276.074 722.456 237.722C742.722 198.926 753 156.602 753 111.917C753 66.6739 742.722 24.065 722.456 -14.7181C702.434 -53.0479 675.186 -86.9128 641.47 -115.355C607.779 -143.805 568.401 -166.258 524.436 -182.087C480.419 -197.955 433.756 -206 385.74 -206H-459V181.901H-11.8521L-121.082 39.437H-295.615V-63.5443H385.74C413.277 -63.5443 439.631 -58.8899 464.084 -49.7144C488.845 -40.4224 510.877 -27.6801 529.58 -11.8335C548.076 3.84036 562.901 22.5625 573.645 43.8194C584.241 64.7611 589.61 87.5294 589.61 111.498V112.331C589.61 135.764 584.375 158.152 574.05 178.878C563.546 199.945 548.952 218.711 530.658 234.674C512.34 250.667 490.567 263.461 465.931 272.701C441.459 281.89 414.475 286.549 385.74 286.549H-459V429H385.74C433.809 429 480.53 420.796 524.61 404.612Z" fill="white" fill-opacity="0.1"/>
</svg>
