<svg width="31" height="26" viewBox="0 0 31 26" fill="none" xmlns="http://www.w3.org/2000/svg">
<path opacity="0.89772" d="M0.733009 25.7793V21.1689C3.14934 20.7644 4.84076 19.9152 5.8073 18.621C6.77383 17.3268 7.25709 15.0216 7.25709 11.7054H1.09546V0.179296L12.9355 0.179296V9.88546C12.9355 14.9003 12.0092 18.7828 10.1567 21.5329C8.30416 24.3638 5.16294 25.7793 0.733009 25.7793ZM18.1306 25.7793V21.1689C20.5469 20.7644 22.2383 19.9152 23.2048 18.621C24.1714 17.3268 24.6546 15.0216 24.6546 11.7054H18.493L18.493 0.179296L30.333 0.179296V9.88546C30.333 14.9003 29.4067 18.7828 27.5542 21.5329C25.7017 24.3638 22.5605 25.7793 18.1306 25.7793Z" fill="#2A3AC6"/>
</svg>
