<svg width="803" height="305" viewBox="0 0 803 305" fill="none" xmlns="http://www.w3.org/2000/svg">
<path d="M201.82 21.584C163.073 35.8305 128.36 55.6561 98.6565 80.5073C68.8125 105.473 44.7001 135.346 26.991 169.288C9.08203 203.624 0 241.083 0 280.631C0 320.673 9.08203 358.383 26.991 392.708C44.6831 426.631 68.7616 456.603 98.5546 481.775C128.326 506.955 163.124 526.827 201.973 540.836C240.87 554.88 282.104 562 324.534 562H1071V218.693L926.623 221.368V344.779V435.921H324.534C300.201 435.921 276.913 431.802 255.305 423.681C233.424 415.457 213.955 404.18 197.428 390.155C181.084 376.283 167.984 359.713 158.489 340.9C149.127 322.366 144.381 302.215 144.381 281.002V280.264C144.381 259.525 149.007 239.711 158.132 221.368C167.414 202.723 180.31 186.114 196.476 171.986C212.662 157.832 231.902 146.508 253.672 138.33C275.297 130.198 299.142 126.075 324.534 126.075H1071V0H324.534C282.058 0 240.772 7.26101 201.82 21.584Z" fill="url(#paint0_linear_1038_5689)" fill-opacity="0.15"/>
<defs>
<linearGradient id="paint0_linear_1038_5689" x1="535.5" y1="0" x2="535.5" y2="562" gradientUnits="userSpaceOnUse">
<stop stop-color="white"/>
<stop offset="1" stop-color="#999999"/>
</linearGradient>
</defs>
</svg>
