<svg width="272" height="208" viewBox="0 0 272 208" fill="none" xmlns="http://www.w3.org/2000/svg">
<path d="M104.585 11.176C84.5054 18.5528 66.5172 28.8184 51.1245 41.6862C35.6591 54.6133 23.1639 70.0812 13.9869 87.6564C4.70637 105.435 0 124.831 0 145.309C0 166.042 4.70637 185.569 13.9869 203.342C23.1551 220.907 35.6328 236.426 51.0717 249.46C66.4996 262.498 84.5319 272.787 104.664 280.042C124.82 287.313 146.189 291 168.176 291H555V113.238L480.183 114.623V178.524V225.717H168.176C155.566 225.717 143.498 223.584 132.301 219.379C120.962 215.121 110.873 209.282 102.309 202.02C93.839 194.837 87.0504 186.257 82.1303 176.516C77.2785 166.919 74.8195 156.485 74.8195 145.501V145.119C74.8195 134.381 77.2167 124.121 81.9451 114.623C86.7551 104.968 93.4379 96.3689 101.815 89.0535C110.203 81.7242 120.173 75.8611 131.455 71.6266C142.661 67.4158 155.017 65.2807 168.176 65.2807H555V0H168.176C146.164 0 124.77 3.7597 104.585 11.176Z" fill="url(#paint0_linear_1239_16596)" fill-opacity="0.15"/>
<defs>
<linearGradient id="paint0_linear_1239_16596" x1="277.5" y1="0" x2="277.5" y2="291" gradientUnits="userSpaceOnUse">
<stop stop-color="white"/>
<stop offset="1" stop-color="#999999"/>
</linearGradient>
</defs>
</svg>
