<svg width="265" height="175" viewBox="0 0 265 175" fill="none" xmlns="http://www.w3.org/2000/svg">
<path d="M146.094 12.7123C168.923 21.103 189.374 32.7797 206.875 47.4162C224.458 62.1203 238.664 79.7143 249.098 99.7054C259.649 119.928 265 141.99 265 165.283C265 188.866 259.649 211.076 249.098 231.292C238.674 251.272 224.488 268.925 206.935 283.75C189.394 298.58 168.893 310.284 146.004 318.535C123.087 326.807 98.7928 331 73.7946 331L-366 331V128.803H-133.203L-190.071 203.064H-280.938V256.744L73.7946 256.744C88.1312 256.744 101.852 254.317 114.582 249.535C127.474 244.691 138.944 238.049 148.681 229.789C158.311 221.619 166.029 211.86 171.623 200.779C177.139 189.863 179.935 177.995 179.935 165.501V165.067C179.935 152.852 177.209 141.182 171.834 130.378C166.365 119.397 158.767 109.615 149.243 101.295C139.706 92.9578 128.37 86.2888 115.544 81.4722C102.803 76.6826 88.7549 74.254 73.7946 74.254L-366 74.254V0L73.7946 0C98.8204 0 123.145 4.2765 146.094 12.7123Z" fill="white" fill-opacity="0.1"/>
</svg>
