<svg width="323" height="291" viewBox="0 0 323 291" fill="none" xmlns="http://www.w3.org/2000/svg">
<path d="M157.361 17.705C189.162 29.3912 217.651 45.6539 242.03 66.0389C266.524 86.518 286.313 111.022 300.848 138.865C315.546 167.03 323 197.756 323 230.198C323 263.043 315.546 293.976 300.848 322.132C286.327 349.959 266.565 374.545 242.113 395.193C217.679 415.847 189.12 432.148 157.235 443.64C125.311 455.16 91.4689 461 56.6457 461L-556 461V179.39L-231.707 179.39L-310.926 282.817H-437.506V357.579L56.6457 357.579C76.617 357.579 95.7298 354.2 113.464 347.539C131.422 340.793 147.401 331.543 160.965 320.038C174.379 308.659 185.131 295.067 192.923 279.635C200.608 264.432 204.502 247.902 204.502 230.502V229.897C204.502 212.885 200.705 196.631 193.217 181.584C185.599 166.29 175.015 152.667 161.747 141.078C148.462 129.467 132.671 120.179 114.804 113.47C97.0559 106.8 77.4859 103.417 56.6457 103.417L-556 103.417V0L56.6457 0C91.5073 0 125.392 5.9561 157.361 17.705Z" fill="white" fill-opacity="0.1"/>
</svg>
