<svg width="647" height="293" viewBox="0 0 647 293" fill="none" xmlns="http://www.w3.org/2000/svg">
<path d="M445.18 21.584C483.927 35.8305 518.64 55.6561 548.343 80.5073C578.187 105.473 602.3 135.346 620.009 169.288C637.918 203.624 647 241.083 647 280.631C647 320.673 637.918 358.383 620.009 392.708C602.317 426.631 578.238 456.603 548.445 481.775C518.674 506.955 483.876 526.827 445.027 540.836C406.13 554.88 364.896 562 322.466 562H-424V218.693L-279.623 221.368V344.779V435.921H322.466C346.799 435.921 370.087 431.802 391.695 423.681C413.576 415.457 433.045 404.18 449.572 390.155C465.916 376.283 479.016 359.713 488.511 340.9C497.873 322.366 502.619 302.215 502.619 281.002V280.264C502.619 259.525 497.993 239.711 488.868 221.368C479.586 202.723 466.69 186.114 450.524 171.986C434.338 157.832 415.098 146.508 393.328 138.33C371.703 130.198 347.858 126.075 322.466 126.075H-424V0H322.466C364.942 0 406.228 7.26101 445.18 21.584Z" fill="#F2F2F2" fill-opacity="0.3"/>
</svg>
