<svg width="31" height="26" viewBox="0 0 31 26" fill="none" xmlns="http://www.w3.org/2000/svg">
<path opacity="0.89772" d="M0.732643 25.7793V21.1689C3.14897 20.7644 4.8404 19.9152 5.80693 18.621C6.77346 17.3268 7.25673 15.0216 7.25673 11.7054H1.0951V0.179296L12.9351 0.179296V9.88546C12.9351 14.9003 12.0088 18.7828 10.1563 21.5329C8.3038 24.3638 5.16257 25.7793 0.732643 25.7793ZM18.1302 25.7793V21.1689C20.5465 20.7644 22.2379 19.9152 23.2045 18.621C24.171 17.3268 24.6543 15.0216 24.6543 11.7054H18.4926L18.4926 0.179296L30.3326 0.179296V9.88546C30.3326 14.9003 29.4064 18.7828 27.5539 21.5329C25.7013 24.3638 22.5601 25.7793 18.1302 25.7793Z" fill="#292B37"/>
</svg>
