<svg width="1400" height="730" viewBox="0 0 1400 730" fill="none" xmlns="http://www.w3.org/2000/svg">
<path d="M779.665 -91.3449C740.868 -47.9801 710.784 -0.344042 690.258 50.2303C669.632 101.04 659.386 154.162 659.801 208.111C660.228 262.681 673.706 315.295 699.869 364.5C726.357 414.319 762.607 455.227 807.602 486.082C852.061 516.581 901.854 537.938 955.584 549.542C1009.29 561.17 1065.74 562.867 1123.36 554.591C1181.06 546.325 1237.08 527.898 1289.89 499.822L2218.86 5.87556L1991.75 -421.256L1500.02 -159.795L1703.55 -66.793L1895.49 -168.848L1955.78 -55.4515L1206.48 342.958C1176.2 359.06 1144.49 369.345 1112.23 373.54C1079.56 377.786 1047.87 376.639 1018.02 370.125C988.505 363.682 961.24 351.734 936.978 334.61C913.065 317.746 893.83 295.815 879.796 269.422L879.309 268.505C865.589 242.702 858.238 214.988 857.459 186.128C856.676 156.789 861.738 127.592 872.51 99.3175C883.291 70.9955 899.744 44.1763 921.426 19.5962C942.959 -4.83111 969.906 -25.7398 1001.51 -42.5422L1930.48 -536.488L1847.08 -693.346L918.104 -199.4C865.242 -171.293 818.665 -134.94 779.665 -91.3449Z" fill="url(#paint0_linear_963_4131)" fill-opacity="0.1"/>
<path d="M277.334 175.749C334.98 167.834 391.295 169.531 444.701 180.795C498.358 192.108 548.128 213.319 592.621 243.831C637.623 274.7 673.706 315.295 699.869 364.5C726.357 414.319 740.002 467.247 740.421 521.803C740.845 575.716 730.706 628.939 710.281 679.972C689.888 731 659.728 778.75 620.647 821.887C581.532 865.098 534.925 901.242 482.121 929.318L-446.857 1423.26L-673.967 996.133L-182.229 734.671L-218.941 955.414L-410.879 1057.47L-350.585 1170.87L398.715 772.455C428.998 756.353 455.255 735.818 476.774 711.417C498.564 686.706 515.333 659.792 526.623 631.407C537.787 603.333 543.128 574.048 542.498 544.359C541.889 515.104 534.464 486.893 520.431 460.5L519.943 459.583C506.223 433.78 487.358 412.188 463.868 395.404C439.983 378.349 412.947 366.219 383.482 359.338C353.974 352.438 322.539 351.082 290.036 355.312C257.744 359.504 225.342 370.152 193.741 386.955L-735.237 880.901L-818.639 724.043L110.338 230.096C163.2 201.989 219.384 183.704 277.334 175.749Z" fill="url(#paint1_linear_963_4131)" fill-opacity="0.1"/>
<defs>
<linearGradient id="paint0_linear_963_4131" x1="1180.65" y1="-338.999" x2="1552.43" y2="360.223" gradientUnits="userSpaceOnUse">
<stop stop-color="#D7E9EE"/>
<stop offset="1" stop-color="#7B8588"/>
</linearGradient>
<linearGradient id="paint1_linear_963_4131" x1="-152.209" y1="369.695" x2="219.574" y2="1068.92" gradientUnits="userSpaceOnUse">
<stop stop-color="#D7E9EE"/>
<stop offset="1" stop-color="#7B8588"/>
</linearGradient>
</defs>
</svg>
