<svg width="55" height="55" viewBox="0 0 55 55" fill="none" xmlns="http://www.w3.org/2000/svg">
<path d="M44.5423 48.8663L44.5364 48.8718L44.5309 48.8778C43.9655 49.4916 43.2413 49.8 42.341 49.8H12.3496C11.4492 49.8 10.6955 49.4912 10.0762 48.8718C9.49293 48.2886 9.19995 47.5616 9.19995 46.6763V8.32372C9.19995 7.43839 9.49293 6.71139 10.0762 6.12815C10.6955 5.50881 11.4492 5.2 12.3496 5.2H33.8499C34.3584 5.2 34.7762 5.34885 35.116 5.64008L44.941 15.4651C45.2681 15.9142 45.4907 16.3027 45.4907 16.659V46.6763C45.4907 47.5564 45.1756 48.2817 44.5423 48.8663ZM31.2425 19.3516L31.2425 19.3515L31.2389 19.3479C30.9461 19.0551 30.8041 18.7159 30.8041 18.3208V8.32372V8.12372H30.6041H12.3496H12.1496V8.32372V46.6763V46.8763H12.3496H42.341H42.541V46.6763V20.0087V19.8087H42.341H32.3439C31.8935 19.8087 31.5315 19.6558 31.2425 19.3516ZM41.5101 16.859H41.9964L41.6507 16.5168L34.0685 9.0125L33.7278 8.67531V9.15464V16.659V16.859H33.9278H41.5101Z" fill="#292B37" stroke="#F6F7FC" stroke-width="0.4"/>
<rect x="18" y="37" width="18" height="2.5" fill="#2A3AC6"/>
<rect x="18" y="32" width="18" height="2.5" fill="#2A3AC6"/>
</svg>
