<svg width="35" height="35" viewBox="0 0 35 35" fill="none" xmlns="http://www.w3.org/2000/svg">
<mask id="path-1-outside-1_1467_21927" maskUnits="userSpaceOnUse" x="2.18359" y="2.18182" width="30" height="30" fill="black">
<rect fill="white" x="2.18359" y="2.18182" width="30" height="30"/>
<path fill-rule="evenodd" clip-rule="evenodd" d="M15.3255 29.7786L15.6436 30.3764C15.6735 30.4472 15.7456 30.4907 15.8214 30.4845H19.1909C19.268 30.4907 19.3401 30.4472 19.3699 30.3764C19.5029 30.1378 19.6235 29.8917 19.7291 29.6381C19.7403 29.5896 19.7453 29.5399 19.7453 29.489V28C19.7477 27.7017 19.9479 27.4419 20.235 27.3636C20.6364 27.2505 21.0304 27.115 21.4157 26.956C21.7849 26.8031 22.1453 26.6278 22.4945 26.4315C22.758 26.2537 23.1123 26.2873 23.3372 26.5135L24.3875 27.5637C24.4571 27.6383 24.5441 27.693 24.6423 27.7228L25.2786 27.9267C25.3495 27.954 25.429 27.9341 25.4787 27.8757L27.8688 25.4856L27.8676 25.4869C27.9272 25.4384 27.9471 25.3564 27.9185 25.2855C27.8489 25.0195 27.7632 24.756 27.6613 24.5C27.6352 24.4565 27.6028 24.4167 27.5656 24.3819L26.5153 23.3317C26.309 23.1204 26.2667 22.7985 26.4109 22.5399C26.6147 22.1758 26.7974 21.7992 26.9578 21.4139C27.1156 21.0447 27.2511 20.6681 27.3654 20.2841C27.4226 19.9758 27.6886 19.7521 28.0018 19.7459H29.4883C29.589 19.7509 29.6897 19.7272 29.7767 19.6763L30.3745 19.3581H30.3758C30.4466 19.3283 30.4901 19.2562 30.4839 19.1804V15.8108C30.4901 15.7338 30.4466 15.6617 30.3758 15.6318C30.1371 15.4988 29.8923 15.3795 29.64 15.2726C29.5915 15.2615 29.5418 15.2565 29.4908 15.2565H28.0018C27.7035 15.254 27.4438 15.0539 27.3655 14.7668C27.2523 14.3653 27.1169 13.9713 26.9578 13.586C26.8049 13.2169 26.6297 12.8564 26.4333 12.5072C26.2556 12.2437 26.2891 11.8895 26.5153 11.6645L27.5656 10.6143C27.6402 10.5447 27.6949 10.4577 27.7247 10.3595L27.9285 9.72311C27.9559 9.65227 27.936 9.57272 27.8776 9.523L25.4887 7.1242C25.439 7.06578 25.3582 7.0459 25.2874 7.07324C25.0226 7.14657 24.7629 7.23606 24.5081 7.34046C24.4646 7.36656 24.4248 7.39887 24.39 7.43616L23.3397 8.48642H23.341C23.1272 8.69522 22.8016 8.73873 22.5418 8.59082C22.1776 8.38699 21.8035 8.20429 21.4182 8.04393C21.0491 7.88608 20.6712 7.7506 20.286 7.63627C19.9777 7.5791 19.754 7.31313 19.7478 6.99991V5.51091C19.7528 5.409 19.7291 5.30956 19.6782 5.22132L19.36 4.62348C19.3302 4.55264 19.2581 4.50914 19.1823 4.51535H15.8127C15.7357 4.50914 15.6636 4.55264 15.6337 4.62348C15.5008 4.86212 15.3802 5.1082 15.2745 5.36176C15.2634 5.41023 15.2584 5.45995 15.2584 5.51091V6.99991C15.2559 7.2982 15.0558 7.55797 14.7687 7.63627C14.3672 7.74937 13.9732 7.88485 13.5879 8.04392C13.2188 8.1968 12.8583 8.37203 12.5091 8.56842C12.2456 8.74615 11.8914 8.71259 11.6664 8.48639L10.6162 7.43613C10.5466 7.36155 10.4596 7.30687 10.3614 7.27704L9.72502 7.0732C9.65417 7.04462 9.57339 7.0645 9.52491 7.12417L7.1261 9.51301C7.06769 9.56273 7.0478 9.64352 7.07514 9.71436C7.14848 9.98158 7.23796 10.2438 7.34237 10.4999C7.36847 10.5434 7.40078 10.5832 7.43807 10.618L8.48832 11.6682C8.69465 11.8795 8.7369 12.2014 8.59273 12.46C8.38889 12.8241 8.2062 13.1982 8.04584 13.5835C7.88799 13.9527 7.75251 14.3305 7.63818 14.7158C7.57977 15.0228 7.31379 15.2465 7.00182 15.254H5.51282C5.4109 15.249 5.31147 15.2726 5.22322 15.3236L4.62539 15.6418C4.55454 15.6716 4.51104 15.7437 4.51726 15.8195V19.189C4.51105 19.2661 4.55455 19.3382 4.62539 19.368C4.86403 19.501 5.11011 19.6216 5.36367 19.7272C5.41214 19.7384 5.46186 19.7434 5.51282 19.7434H7.00181C7.30011 19.7459 7.55987 19.946 7.63818 20.2331C7.75128 20.6345 7.88676 21.0285 8.04583 21.4138C8.19871 21.783 8.37394 22.1434 8.57032 22.4927C8.74806 22.7561 8.7145 23.1104 8.48829 23.3353L7.43804 24.3856C7.36346 24.4552 7.30878 24.5422 7.27895 24.6404L7.07511 25.2767C7.04653 25.3476 7.06641 25.4284 7.12607 25.4768L9.51616 27.8669L9.51492 27.8657C9.56339 27.9254 9.64542 27.9452 9.71627 27.9167C9.98225 27.8471 10.2458 27.7613 10.5018 27.6594C10.5453 27.6333 10.5851 27.601 10.6199 27.5637L11.6701 26.5134C11.8814 26.3071 12.2033 26.2648 12.4619 26.409C12.826 26.6128 13.2026 26.7955 13.5879 26.9559C13.9571 27.1138 14.3337 27.2492 14.7177 27.3636C15.026 27.4207 15.2497 27.6867 15.2559 27.9999V29.4864C15.2509 29.5871 15.2746 29.6878 15.3255 29.7748L15.3255 29.7786ZM21.1224 13.8695C22.0819 14.8302 22.6213 16.1315 22.6213 17.4901C22.6213 18.8473 22.0819 20.1486 21.1212 21.1094C20.1617 22.0689 18.8591 22.6083 17.5019 22.6083C16.1446 22.6083 14.8421 22.0689 13.8825 21.1094C12.9218 20.1486 12.3824 18.8473 12.3824 17.4901C12.3824 16.1316 12.9218 14.8302 13.8813 13.8695C14.8421 12.91 16.1434 12.3705 17.5019 12.3705C18.8604 12.3705 20.1616 12.91 21.1224 13.8695ZM17.5018 11.0468C19.2133 11.0468 20.8539 11.7267 22.0646 12.9373C23.2751 14.1479 23.955 15.7885 23.955 17.5C23.955 19.2115 23.2751 20.8521 22.0646 22.0627C20.854 23.2733 19.2134 23.9532 17.5018 23.9532C15.7903 23.9532 14.1498 23.2733 12.9391 22.0627C11.7285 20.8522 11.0487 19.2115 11.0487 17.5C11.0487 15.7885 11.7285 14.148 12.9391 12.9373C14.1497 11.7267 15.7903 11.0468 17.5018 11.0468ZM14.4505 30.9879L14.1323 30.3901C13.9894 30.1105 13.9136 29.8022 13.9124 29.489V28.4959C13.3394 28.3108 12.7826 28.0796 12.2456 27.8061L11.5459 28.5096C11.3246 28.7308 11.0524 28.8949 10.7529 28.9869L10.1165 29.1932C9.57092 29.3722 8.97181 29.228 8.56788 28.8203L6.17531 26.4277H6.17407C5.76765 26.0238 5.62345 25.4235 5.80243 24.8791L6.00626 24.2427C6.09948 23.9432 6.26479 23.671 6.48602 23.4497L7.18949 22.75C6.91605 22.2131 6.68488 21.6562 6.49967 21.0833H5.5128C5.19959 21.082 4.89135 21.0062 4.6117 20.8633L4.01387 20.5451C3.50427 20.2853 3.18361 19.7621 3.18361 19.1891V15.811C3.18112 15.2367 3.50179 14.7098 4.01387 14.4488L4.6117 14.1306C4.89136 13.9876 5.19961 13.9118 5.5128 13.9106H6.50587C6.69107 13.3376 6.92225 12.7808 7.19569 12.2438L6.49222 11.5441C6.27099 11.3229 6.10694 11.0507 6.01495 10.7511L5.80863 10.1148C5.62965 9.56914 5.77383 8.97004 6.18151 8.5661L8.57408 6.17353V6.17229C8.97801 5.76588 9.57832 5.62168 10.1227 5.80065L10.7591 6.00449C11.0586 6.09771 11.3308 6.26301 11.5521 6.48424L12.2518 7.18771C12.7887 6.91427 13.3456 6.68311 13.9185 6.49789V5.51102C13.9198 5.19781 13.9956 4.88958 14.1385 4.60993L14.4567 4.0121C14.7165 3.5025 15.2397 3.18183 15.8127 3.18183H19.1909C19.7651 3.17935 20.2921 3.50001 20.5531 4.0121L20.8712 4.60993C21.0142 4.88958 21.09 5.19783 21.0912 5.51102V6.5041C21.6642 6.68929 22.221 6.92047 22.758 7.19392L23.4577 6.49045C23.679 6.26921 23.9512 6.10516 24.2507 6.01318L24.8871 5.80685C25.4327 5.62788 26.0318 5.77205 26.4357 6.17973L28.8283 8.5723H28.8295C29.2359 8.97623 29.3801 9.57655 29.2012 10.121L28.9948 10.7573C28.9029 11.0569 28.7388 11.3291 28.5176 11.5503L27.8141 12.25C28.0875 12.787 28.3187 13.3438 28.5039 13.9168H29.497C29.8102 13.918 30.1197 13.9938 30.3981 14.1368L30.9959 14.4549C31.503 14.716 31.8212 15.2405 31.8199 15.8109V19.1891C31.8224 19.7633 31.5018 20.2903 30.9897 20.5513L30.3918 20.8695C30.1122 21.0124 29.8039 21.0882 29.4908 21.0895H28.4977C28.3125 21.6624 28.0813 22.2193 27.8079 22.7562L28.5113 23.4559C28.7326 23.6784 28.8966 23.9494 28.9911 24.2489L29.1949 24.8853C29.3739 25.4309 29.2297 26.03 28.822 26.4339L26.4295 28.8265V28.8277C26.0255 29.2342 25.4252 29.3784 24.8808 29.1994L24.2444 28.9931C23.9449 28.9011 23.6727 28.737 23.4515 28.5158L22.7517 27.8123C22.2148 28.0858 21.658 28.3169 21.085 28.5021V29.4952C21.0838 29.8084 21.0079 30.1179 20.865 30.3963L20.5468 30.9941C20.2858 31.5013 19.7613 31.8194 19.1908 31.8182H15.8127C15.2385 31.8207 14.7115 31.5 14.4505 30.9879Z"/>
</mask>
<path fill-rule="evenodd" clip-rule="evenodd" d="M15.3255 29.7786L15.6436 30.3764C15.6735 30.4472 15.7456 30.4907 15.8214 30.4845H19.1909C19.268 30.4907 19.3401 30.4472 19.3699 30.3764C19.5029 30.1378 19.6235 29.8917 19.7291 29.6381C19.7403 29.5896 19.7453 29.5399 19.7453 29.489V28C19.7477 27.7017 19.9479 27.4419 20.235 27.3636C20.6364 27.2505 21.0304 27.115 21.4157 26.956C21.7849 26.8031 22.1453 26.6278 22.4945 26.4315C22.758 26.2537 23.1123 26.2873 23.3372 26.5135L24.3875 27.5637C24.4571 27.6383 24.5441 27.693 24.6423 27.7228L25.2786 27.9267C25.3495 27.954 25.429 27.9341 25.4787 27.8757L27.8688 25.4856L27.8676 25.4869C27.9272 25.4384 27.9471 25.3564 27.9185 25.2855C27.8489 25.0195 27.7632 24.756 27.6613 24.5C27.6352 24.4565 27.6028 24.4167 27.5656 24.3819L26.5153 23.3317C26.309 23.1204 26.2667 22.7985 26.4109 22.5399C26.6147 22.1758 26.7974 21.7992 26.9578 21.4139C27.1156 21.0447 27.2511 20.6681 27.3654 20.2841C27.4226 19.9758 27.6886 19.7521 28.0018 19.7459H29.4883C29.589 19.7509 29.6897 19.7272 29.7767 19.6763L30.3745 19.3581H30.3758C30.4466 19.3283 30.4901 19.2562 30.4839 19.1804V15.8108C30.4901 15.7338 30.4466 15.6617 30.3758 15.6318C30.1371 15.4988 29.8923 15.3795 29.64 15.2726C29.5915 15.2615 29.5418 15.2565 29.4908 15.2565H28.0018C27.7035 15.254 27.4438 15.0539 27.3655 14.7668C27.2523 14.3653 27.1169 13.9713 26.9578 13.586C26.8049 13.2169 26.6297 12.8564 26.4333 12.5072C26.2556 12.2437 26.2891 11.8895 26.5153 11.6645L27.5656 10.6143C27.6402 10.5447 27.6949 10.4577 27.7247 10.3595L27.9285 9.72311C27.9559 9.65227 27.936 9.57272 27.8776 9.523L25.4887 7.1242C25.439 7.06578 25.3582 7.0459 25.2874 7.07324C25.0226 7.14657 24.7629 7.23606 24.5081 7.34046C24.4646 7.36656 24.4248 7.39887 24.39 7.43616L23.3397 8.48642H23.341C23.1272 8.69522 22.8016 8.73873 22.5418 8.59082C22.1776 8.38699 21.8035 8.20429 21.4182 8.04393C21.0491 7.88608 20.6712 7.7506 20.286 7.63627C19.9777 7.5791 19.754 7.31313 19.7478 6.99991V5.51091C19.7528 5.409 19.7291 5.30956 19.6782 5.22132L19.36 4.62348C19.3302 4.55264 19.2581 4.50914 19.1823 4.51535H15.8127C15.7357 4.50914 15.6636 4.55264 15.6337 4.62348C15.5008 4.86212 15.3802 5.1082 15.2745 5.36176C15.2634 5.41023 15.2584 5.45995 15.2584 5.51091V6.99991C15.2559 7.2982 15.0558 7.55797 14.7687 7.63627C14.3672 7.74937 13.9732 7.88485 13.5879 8.04392C13.2188 8.1968 12.8583 8.37203 12.5091 8.56842C12.2456 8.74615 11.8914 8.71259 11.6664 8.48639L10.6162 7.43613C10.5466 7.36155 10.4596 7.30687 10.3614 7.27704L9.72502 7.0732C9.65417 7.04462 9.57339 7.0645 9.52491 7.12417L7.1261 9.51301C7.06769 9.56273 7.0478 9.64352 7.07514 9.71436C7.14848 9.98158 7.23796 10.2438 7.34237 10.4999C7.36847 10.5434 7.40078 10.5832 7.43807 10.618L8.48832 11.6682C8.69465 11.8795 8.7369 12.2014 8.59273 12.46C8.38889 12.8241 8.2062 13.1982 8.04584 13.5835C7.88799 13.9527 7.75251 14.3305 7.63818 14.7158C7.57977 15.0228 7.31379 15.2465 7.00182 15.254H5.51282C5.4109 15.249 5.31147 15.2726 5.22322 15.3236L4.62539 15.6418C4.55454 15.6716 4.51104 15.7437 4.51726 15.8195V19.189C4.51105 19.2661 4.55455 19.3382 4.62539 19.368C4.86403 19.501 5.11011 19.6216 5.36367 19.7272C5.41214 19.7384 5.46186 19.7434 5.51282 19.7434H7.00181C7.30011 19.7459 7.55987 19.946 7.63818 20.2331C7.75128 20.6345 7.88676 21.0285 8.04583 21.4138C8.19871 21.783 8.37394 22.1434 8.57032 22.4927C8.74806 22.7561 8.7145 23.1104 8.48829 23.3353L7.43804 24.3856C7.36346 24.4552 7.30878 24.5422 7.27895 24.6404L7.07511 25.2767C7.04653 25.3476 7.06641 25.4284 7.12607 25.4768L9.51616 27.8669L9.51492 27.8657C9.56339 27.9254 9.64542 27.9452 9.71627 27.9167C9.98225 27.8471 10.2458 27.7613 10.5018 27.6594C10.5453 27.6333 10.5851 27.601 10.6199 27.5637L11.6701 26.5134C11.8814 26.3071 12.2033 26.2648 12.4619 26.409C12.826 26.6128 13.2026 26.7955 13.5879 26.9559C13.9571 27.1138 14.3337 27.2492 14.7177 27.3636C15.026 27.4207 15.2497 27.6867 15.2559 27.9999V29.4864C15.2509 29.5871 15.2746 29.6878 15.3255 29.7748L15.3255 29.7786ZM21.1224 13.8695C22.0819 14.8302 22.6213 16.1315 22.6213 17.4901C22.6213 18.8473 22.0819 20.1486 21.1212 21.1094C20.1617 22.0689 18.8591 22.6083 17.5019 22.6083C16.1446 22.6083 14.8421 22.0689 13.8825 21.1094C12.9218 20.1486 12.3824 18.8473 12.3824 17.4901C12.3824 16.1316 12.9218 14.8302 13.8813 13.8695C14.8421 12.91 16.1434 12.3705 17.5019 12.3705C18.8604 12.3705 20.1616 12.91 21.1224 13.8695ZM17.5018 11.0468C19.2133 11.0468 20.8539 11.7267 22.0646 12.9373C23.2751 14.1479 23.955 15.7885 23.955 17.5C23.955 19.2115 23.2751 20.8521 22.0646 22.0627C20.854 23.2733 19.2134 23.9532 17.5018 23.9532C15.7903 23.9532 14.1498 23.2733 12.9391 22.0627C11.7285 20.8522 11.0487 19.2115 11.0487 17.5C11.0487 15.7885 11.7285 14.148 12.9391 12.9373C14.1497 11.7267 15.7903 11.0468 17.5018 11.0468ZM14.4505 30.9879L14.1323 30.3901C13.9894 30.1105 13.9136 29.8022 13.9124 29.489V28.4959C13.3394 28.3108 12.7826 28.0796 12.2456 27.8061L11.5459 28.5096C11.3246 28.7308 11.0524 28.8949 10.7529 28.9869L10.1165 29.1932C9.57092 29.3722 8.97181 29.228 8.56788 28.8203L6.17531 26.4277H6.17407C5.76765 26.0238 5.62345 25.4235 5.80243 24.8791L6.00626 24.2427C6.09948 23.9432 6.26479 23.671 6.48602 23.4497L7.18949 22.75C6.91605 22.2131 6.68488 21.6562 6.49967 21.0833H5.5128C5.19959 21.082 4.89135 21.0062 4.6117 20.8633L4.01387 20.5451C3.50427 20.2853 3.18361 19.7621 3.18361 19.1891V15.811C3.18112 15.2367 3.50179 14.7098 4.01387 14.4488L4.6117 14.1306C4.89136 13.9876 5.19961 13.9118 5.5128 13.9106H6.50587C6.69107 13.3376 6.92225 12.7808 7.19569 12.2438L6.49222 11.5441C6.27099 11.3229 6.10694 11.0507 6.01495 10.7511L5.80863 10.1148C5.62965 9.56914 5.77383 8.97004 6.18151 8.5661L8.57408 6.17353V6.17229C8.97801 5.76588 9.57832 5.62168 10.1227 5.80065L10.7591 6.00449C11.0586 6.09771 11.3308 6.26301 11.5521 6.48424L12.2518 7.18771C12.7887 6.91427 13.3456 6.68311 13.9185 6.49789V5.51102C13.9198 5.19781 13.9956 4.88958 14.1385 4.60993L14.4567 4.0121C14.7165 3.5025 15.2397 3.18183 15.8127 3.18183H19.1909C19.7651 3.17935 20.2921 3.50001 20.5531 4.0121L20.8712 4.60993C21.0142 4.88958 21.09 5.19783 21.0912 5.51102V6.5041C21.6642 6.68929 22.221 6.92047 22.758 7.19392L23.4577 6.49045C23.679 6.26921 23.9512 6.10516 24.2507 6.01318L24.8871 5.80685C25.4327 5.62788 26.0318 5.77205 26.4357 6.17973L28.8283 8.5723H28.8295C29.2359 8.97623 29.3801 9.57655 29.2012 10.121L28.9948 10.7573C28.9029 11.0569 28.7388 11.3291 28.5176 11.5503L27.8141 12.25C28.0875 12.787 28.3187 13.3438 28.5039 13.9168H29.497C29.8102 13.918 30.1197 13.9938 30.3981 14.1368L30.9959 14.4549C31.503 14.716 31.8212 15.2405 31.8199 15.8109V19.1891C31.8224 19.7633 31.5018 20.2903 30.9897 20.5513L30.3918 20.8695C30.1122 21.0124 29.8039 21.0882 29.4908 21.0895H28.4977C28.3125 21.6624 28.0813 22.2193 27.8079 22.7562L28.5113 23.4559C28.7326 23.6784 28.8966 23.9494 28.9911 24.2489L29.1949 24.8853C29.3739 25.4309 29.2297 26.03 28.822 26.4339L26.4295 28.8265V28.8277C26.0255 29.2342 25.4252 29.3784 24.8808 29.1994L24.2444 28.9931C23.9449 28.9011 23.6727 28.737 23.4515 28.5158L22.7517 27.8123C22.2148 28.0858 21.658 28.3169 21.085 28.5021V29.4952C21.0838 29.8084 21.0079 30.1179 20.865 30.3963L20.5468 30.9941C20.2858 31.5013 19.7613 31.8194 19.1908 31.8182H15.8127C15.2385 31.8207 14.7115 31.5 14.4505 30.9879Z" fill="#292B37"/>
<path fill-rule="evenodd" clip-rule="evenodd" d="M15.3255 29.7786L15.6436 30.3764C15.6735 30.4472 15.7456 30.4907 15.8214 30.4845H19.1909C19.268 30.4907 19.3401 30.4472 19.3699 30.3764C19.5029 30.1378 19.6235 29.8917 19.7291 29.6381C19.7403 29.5896 19.7453 29.5399 19.7453 29.489V28C19.7477 27.7017 19.9479 27.4419 20.235 27.3636C20.6364 27.2505 21.0304 27.115 21.4157 26.956C21.7849 26.8031 22.1453 26.6278 22.4945 26.4315C22.758 26.2537 23.1123 26.2873 23.3372 26.5135L24.3875 27.5637C24.4571 27.6383 24.5441 27.693 24.6423 27.7228L25.2786 27.9267C25.3495 27.954 25.429 27.9341 25.4787 27.8757L27.8688 25.4856L27.8676 25.4869C27.9272 25.4384 27.9471 25.3564 27.9185 25.2855C27.8489 25.0195 27.7632 24.756 27.6613 24.5C27.6352 24.4565 27.6028 24.4167 27.5656 24.3819L26.5153 23.3317C26.309 23.1204 26.2667 22.7985 26.4109 22.5399C26.6147 22.1758 26.7974 21.7992 26.9578 21.4139C27.1156 21.0447 27.2511 20.6681 27.3654 20.2841C27.4226 19.9758 27.6886 19.7521 28.0018 19.7459H29.4883C29.589 19.7509 29.6897 19.7272 29.7767 19.6763L30.3745 19.3581H30.3758C30.4466 19.3283 30.4901 19.2562 30.4839 19.1804V15.8108C30.4901 15.7338 30.4466 15.6617 30.3758 15.6318C30.1371 15.4988 29.8923 15.3795 29.64 15.2726C29.5915 15.2615 29.5418 15.2565 29.4908 15.2565H28.0018C27.7035 15.254 27.4438 15.0539 27.3655 14.7668C27.2523 14.3653 27.1169 13.9713 26.9578 13.586C26.8049 13.2169 26.6297 12.8564 26.4333 12.5072C26.2556 12.2437 26.2891 11.8895 26.5153 11.6645L27.5656 10.6143C27.6402 10.5447 27.6949 10.4577 27.7247 10.3595L27.9285 9.72311C27.9559 9.65227 27.936 9.57272 27.8776 9.523L25.4887 7.1242C25.439 7.06578 25.3582 7.0459 25.2874 7.07324C25.0226 7.14657 24.7629 7.23606 24.5081 7.34046C24.4646 7.36656 24.4248 7.39887 24.39 7.43616L23.3397 8.48642H23.341C23.1272 8.69522 22.8016 8.73873 22.5418 8.59082C22.1776 8.38699 21.8035 8.20429 21.4182 8.04393C21.0491 7.88608 20.6712 7.7506 20.286 7.63627C19.9777 7.5791 19.754 7.31313 19.7478 6.99991V5.51091C19.7528 5.409 19.7291 5.30956 19.6782 5.22132L19.36 4.62348C19.3302 4.55264 19.2581 4.50914 19.1823 4.51535H15.8127C15.7357 4.50914 15.6636 4.55264 15.6337 4.62348C15.5008 4.86212 15.3802 5.1082 15.2745 5.36176C15.2634 5.41023 15.2584 5.45995 15.2584 5.51091V6.99991C15.2559 7.2982 15.0558 7.55797 14.7687 7.63627C14.3672 7.74937 13.9732 7.88485 13.5879 8.04392C13.2188 8.1968 12.8583 8.37203 12.5091 8.56842C12.2456 8.74615 11.8914 8.71259 11.6664 8.48639L10.6162 7.43613C10.5466 7.36155 10.4596 7.30687 10.3614 7.27704L9.72502 7.0732C9.65417 7.04462 9.57339 7.0645 9.52491 7.12417L7.1261 9.51301C7.06769 9.56273 7.0478 9.64352 7.07514 9.71436C7.14848 9.98158 7.23796 10.2438 7.34237 10.4999C7.36847 10.5434 7.40078 10.5832 7.43807 10.618L8.48832 11.6682C8.69465 11.8795 8.7369 12.2014 8.59273 12.46C8.38889 12.8241 8.2062 13.1982 8.04584 13.5835C7.88799 13.9527 7.75251 14.3305 7.63818 14.7158C7.57977 15.0228 7.31379 15.2465 7.00182 15.254H5.51282C5.4109 15.249 5.31147 15.2726 5.22322 15.3236L4.62539 15.6418C4.55454 15.6716 4.51104 15.7437 4.51726 15.8195V19.189C4.51105 19.2661 4.55455 19.3382 4.62539 19.368C4.86403 19.501 5.11011 19.6216 5.36367 19.7272C5.41214 19.7384 5.46186 19.7434 5.51282 19.7434H7.00181C7.30011 19.7459 7.55987 19.946 7.63818 20.2331C7.75128 20.6345 7.88676 21.0285 8.04583 21.4138C8.19871 21.783 8.37394 22.1434 8.57032 22.4927C8.74806 22.7561 8.7145 23.1104 8.48829 23.3353L7.43804 24.3856C7.36346 24.4552 7.30878 24.5422 7.27895 24.6404L7.07511 25.2767C7.04653 25.3476 7.06641 25.4284 7.12607 25.4768L9.51616 27.8669L9.51492 27.8657C9.56339 27.9254 9.64542 27.9452 9.71627 27.9167C9.98225 27.8471 10.2458 27.7613 10.5018 27.6594C10.5453 27.6333 10.5851 27.601 10.6199 27.5637L11.6701 26.5134C11.8814 26.3071 12.2033 26.2648 12.4619 26.409C12.826 26.6128 13.2026 26.7955 13.5879 26.9559C13.9571 27.1138 14.3337 27.2492 14.7177 27.3636C15.026 27.4207 15.2497 27.6867 15.2559 27.9999V29.4864C15.2509 29.5871 15.2746 29.6878 15.3255 29.7748L15.3255 29.7786ZM21.1224 13.8695C22.0819 14.8302 22.6213 16.1315 22.6213 17.4901C22.6213 18.8473 22.0819 20.1486 21.1212 21.1094C20.1617 22.0689 18.8591 22.6083 17.5019 22.6083C16.1446 22.6083 14.8421 22.0689 13.8825 21.1094C12.9218 20.1486 12.3824 18.8473 12.3824 17.4901C12.3824 16.1316 12.9218 14.8302 13.8813 13.8695C14.8421 12.91 16.1434 12.3705 17.5019 12.3705C18.8604 12.3705 20.1616 12.91 21.1224 13.8695ZM17.5018 11.0468C19.2133 11.0468 20.8539 11.7267 22.0646 12.9373C23.2751 14.1479 23.955 15.7885 23.955 17.5C23.955 19.2115 23.2751 20.8521 22.0646 22.0627C20.854 23.2733 19.2134 23.9532 17.5018 23.9532C15.7903 23.9532 14.1498 23.2733 12.9391 22.0627C11.7285 20.8522 11.0487 19.2115 11.0487 17.5C11.0487 15.7885 11.7285 14.148 12.9391 12.9373C14.1497 11.7267 15.7903 11.0468 17.5018 11.0468ZM14.4505 30.9879L14.1323 30.3901C13.9894 30.1105 13.9136 29.8022 13.9124 29.489V28.4959C13.3394 28.3108 12.7826 28.0796 12.2456 27.8061L11.5459 28.5096C11.3246 28.7308 11.0524 28.8949 10.7529 28.9869L10.1165 29.1932C9.57092 29.3722 8.97181 29.228 8.56788 28.8203L6.17531 26.4277H6.17407C5.76765 26.0238 5.62345 25.4235 5.80243 24.8791L6.00626 24.2427C6.09948 23.9432 6.26479 23.671 6.48602 23.4497L7.18949 22.75C6.91605 22.2131 6.68488 21.6562 6.49967 21.0833H5.5128C5.19959 21.082 4.89135 21.0062 4.6117 20.8633L4.01387 20.5451C3.50427 20.2853 3.18361 19.7621 3.18361 19.1891V15.811C3.18112 15.2367 3.50179 14.7098 4.01387 14.4488L4.6117 14.1306C4.89136 13.9876 5.19961 13.9118 5.5128 13.9106H6.50587C6.69107 13.3376 6.92225 12.7808 7.19569 12.2438L6.49222 11.5441C6.27099 11.3229 6.10694 11.0507 6.01495 10.7511L5.80863 10.1148C5.62965 9.56914 5.77383 8.97004 6.18151 8.5661L8.57408 6.17353V6.17229C8.97801 5.76588 9.57832 5.62168 10.1227 5.80065L10.7591 6.00449C11.0586 6.09771 11.3308 6.26301 11.5521 6.48424L12.2518 7.18771C12.7887 6.91427 13.3456 6.68311 13.9185 6.49789V5.51102C13.9198 5.19781 13.9956 4.88958 14.1385 4.60993L14.4567 4.0121C14.7165 3.5025 15.2397 3.18183 15.8127 3.18183H19.1909C19.7651 3.17935 20.2921 3.50001 20.5531 4.0121L20.8712 4.60993C21.0142 4.88958 21.09 5.19783 21.0912 5.51102V6.5041C21.6642 6.68929 22.221 6.92047 22.758 7.19392L23.4577 6.49045C23.679 6.26921 23.9512 6.10516 24.2507 6.01318L24.8871 5.80685C25.4327 5.62788 26.0318 5.77205 26.4357 6.17973L28.8283 8.5723H28.8295C29.2359 8.97623 29.3801 9.57655 29.2012 10.121L28.9948 10.7573C28.9029 11.0569 28.7388 11.3291 28.5176 11.5503L27.8141 12.25C28.0875 12.787 28.3187 13.3438 28.5039 13.9168H29.497C29.8102 13.918 30.1197 13.9938 30.3981 14.1368L30.9959 14.4549C31.503 14.716 31.8212 15.2405 31.8199 15.8109V19.1891C31.8224 19.7633 31.5018 20.2903 30.9897 20.5513L30.3918 20.8695C30.1122 21.0124 29.8039 21.0882 29.4908 21.0895H28.4977C28.3125 21.6624 28.0813 22.2193 27.8079 22.7562L28.5113 23.4559C28.7326 23.6784 28.8966 23.9494 28.9911 24.2489L29.1949 24.8853C29.3739 25.4309 29.2297 26.03 28.822 26.4339L26.4295 28.8265V28.8277C26.0255 29.2342 25.4252 29.3784 24.8808 29.1994L24.2444 28.9931C23.9449 28.9011 23.6727 28.737 23.4515 28.5158L22.7517 27.8123C22.2148 28.0858 21.658 28.3169 21.085 28.5021V29.4952C21.0838 29.8084 21.0079 30.1179 20.865 30.3963L20.5468 30.9941C20.2858 31.5013 19.7613 31.8194 19.1908 31.8182H15.8127C15.2385 31.8207 14.7115 31.5 14.4505 30.9879Z" stroke="#292B37" stroke-width="0.381818" mask="url(#path-1-outside-1_1467_21927)"/>
<circle cx="17.5014" cy="16.7841" r="7.51705" fill="#F6F7FC"/>
<circle cx="17.5007" cy="17.5" r="4.93182" stroke="#2A3AC6" stroke-width="1.59091"/>
</svg>
