<svg width="55" height="55" viewBox="0 0 55 55" fill="none" xmlns="http://www.w3.org/2000/svg">
<path d="M29.5475 5.54716L45.3893 9.77164C46.5481 10.0806 47.3543 11.1301 47.3543 12.3293V28.2663C47.3543 33.5766 44.7004 38.5355 40.2819 41.4812L28.9697 49.0226C28.0806 49.6154 26.9222 49.6154 26.0331 49.0226L14.7208 41.4812C10.3024 38.5355 7.64844 33.5766 7.64844 28.2662V12.3293C7.64844 11.1301 8.45469 10.0806 9.61345 9.77164L25.4552 5.54716C26.7959 5.18965 28.2069 5.18965 29.5475 5.54716Z" stroke="#181F25" stroke-width="2.95486" stroke-linecap="round" stroke-linejoin="bevel"/>
<path d="M20.8845 26.1747L25.7107 31.0009C25.9692 31.2593 26.3882 31.2593 26.6466 31.0009L35.4434 22.2041" stroke="#0053CF" stroke-width="2.95486" stroke-linecap="square"/>
</svg>
