<svg width="24" height="24" viewBox="0 0 24 24" fill="none" xmlns="http://www.w3.org/2000/svg">
<path d="M11.6829 22L11.5914 22.1188L11.6829 22.1894L11.7745 22.1188L11.6829 22ZM11.6829 22C11.7745 22.1188 11.7746 22.1188 11.7746 22.1187L11.775 22.1184L11.7761 22.1175L11.7806 22.1141L11.7975 22.1009C11.8124 22.0892 11.8343 22.0719 11.8628 22.0492C11.9197 22.0037 12.003 21.9364 12.1088 21.8487C12.3204 21.6732 12.6222 21.4158 12.9842 21.0874C13.7079 20.4307 14.6732 19.489 15.6388 18.349C17.5647 16.0755 19.5159 12.986 19.5159 9.78267C19.5159 5.40339 16.0107 1.85 11.6829 1.85C7.3551 1.85 3.85 5.40339 3.85 9.78267C3.85 12.986 5.80112 16.0755 7.72701 18.349C8.69268 19.489 9.65793 20.4307 10.3817 21.0874C10.7436 21.4158 11.0455 21.6732 11.257 21.8487C11.3628 21.9364 11.4461 22.0037 11.5031 22.0492C11.5316 22.0719 11.5535 22.0892 11.5683 22.1009L11.5853 22.1141L11.5897 22.1175L11.5909 22.1184L11.5912 22.1187C11.5913 22.1188 11.5914 22.1188 11.6829 22ZM6.25692 13.8071L6.12275 13.8742L6.25691 13.8071C5.54203 12.3775 5.18385 11.0239 5.18385 9.78267C5.18385 8.89253 5.35567 8.03024 5.69437 7.21907L5.55596 7.16127L5.69437 7.21907C6.02178 6.43491 6.4906 5.73066 7.08807 5.12541C7.68555 4.52017 8.38057 4.04549 9.15421 3.71401C9.95443 3.37116 10.805 3.19728 11.6829 3.19728C12.5609 3.19728 13.4114 3.37116 14.2116 3.71401C14.9853 4.04548 15.6803 4.52017 16.2778 5.12541C16.8752 5.73066 17.344 6.43491 17.6715 7.21907C18.0102 8.03024 18.182 8.89253 18.182 9.78267C18.182 11.0186 17.8269 12.366 17.1181 13.7888C16.5289 14.9715 15.6994 16.2011 14.6507 17.4431C13.5278 18.773 12.3913 19.8313 11.6825 20.449C10.9806 19.8376 9.85875 18.7932 8.74052 17.4731C7.68535 16.2275 6.85036 14.994 6.25692 13.8071ZM11.6829 6.16535C9.62458 6.16535 7.95852 7.85014 7.95852 9.92528C7.95852 12.0005 9.62458 13.6853 11.6829 13.6853C13.7413 13.6853 15.4073 12.0005 15.4073 9.92528C15.4073 7.85014 13.7413 6.16535 11.6829 6.16535ZM11.6829 12.3379C10.3681 12.3379 9.29558 11.2569 9.29558 9.92528C9.29558 8.59371 10.3681 7.51273 11.6829 7.51273C12.9978 7.51273 14.0703 8.59371 14.0703 9.92528C14.0703 11.2569 12.9978 12.3379 11.6829 12.3379Z" fill="currentColor" stroke="currentColor" stroke-width="0.3"/>
</svg>
